<svg width="16" height="16" viewBox="0 0 16 16" fill="none" xmlns="http://www.w3.org/2000/svg">
<g clip-path="url(#clip0_1156_13468)">
<path d="M14.5115 12.7209H1.48828V11.4186H2.13944V6.88065C2.13944 3.63265 4.76363 1 7.99991 1C11.2362 1 13.8604 3.63265 13.8604 6.88065V11.4186H14.5115V12.7209ZM3.44177 11.4186H12.558V6.88065C12.558 4.35219 10.5173 2.30233 7.99991 2.30233C5.48251 2.30233 3.44177 4.35219 3.44177 6.88065V11.4186ZM6.372 13.3721H9.62782C9.62782 13.8038 9.45631 14.2179 9.15101 14.5232C8.84572 14.8285 8.43166 15 7.99991 15C7.56816 15 7.1541 14.8285 6.84881 14.5232C6.54351 14.2179 6.372 13.8038 6.372 13.3721V13.3721Z" fill="black"/>
</g>
<defs>
<clipPath id="clip0_1156_13468">
<rect width="16" height="16" fill="white"/>
</clipPath>
</defs>
</svg>
