<svg width="300" height="154" viewBox="0 0 300 154" fill="none" xmlns="http://www.w3.org/2000/svg">
<g clip-path="url(#clip0_794_5299)">
<path d="M18.6621 131.198C17.5575 131.023 16.8025 129.985 16.994 128.883C22.3749 97.9212 38.3959 69.7822 62.3245 49.3452C86.767 28.4694 117.856 17 150 17C182.144 17 213.233 28.4694 237.676 49.3452C261.604 69.7822 277.625 97.9213 283.006 128.883C283.198 129.985 282.442 131.023 281.338 131.198V131.198C280.233 131.373 279.197 130.619 279.005 129.517C273.776 99.5074 258.241 72.2356 235.045 52.4249C211.336 32.1753 181.18 21.05 150 21.05C118.82 21.05 88.664 32.1753 64.9548 52.4248C41.7594 72.2355 26.2243 99.5073 20.9945 129.517C20.8025 130.618 19.7668 131.373 18.6621 131.198V131.198Z" fill="#EAEAEA"/>
<path d="M18.6621 131.198C17.5575 131.023 16.8025 129.985 16.994 128.883C22.3749 97.9212 38.3959 69.7822 62.3245 49.3452C86.767 28.4694 117.856 17 150 17C182.144 17 213.233 28.4694 237.676 49.3452C261.604 69.7822 277.625 97.9213 283.006 128.883C283.198 129.985 282.442 131.023 281.338 131.198V131.198C280.233 131.373 279.197 130.619 279.005 129.517C273.776 99.5074 258.241 72.2356 235.045 52.4249C211.336 32.1753 181.18 21.05 150 21.05C118.82 21.05 88.664 32.1753 64.9548 52.4248C41.7594 72.2355 26.2243 99.5073 20.9945 129.517C20.8025 130.618 19.7668 131.373 18.6621 131.198V131.198Z" fill="#EAEAEA"/>
<rect x="23" y="61" width="36" height="36" rx="18" fill="white"/>
<g clip-path="url(#clip1_794_5299)">
<path fill-rule="evenodd" clip-rule="evenodd" d="M43.6712 69.0323C44.0553 69.1353 44.2833 69.5301 44.1804 69.9142L43.7497 71.5215C43.6468 71.9056 43.252 72.1335 42.8679 72.0306C42.4838 71.9277 42.2558 71.5329 42.3587 71.1488L42.7894 69.5415C42.8923 69.1574 43.2871 68.9294 43.6712 69.0323ZM49.854 73.889C50.0529 74.2333 49.9349 74.6737 49.5905 74.8725L48.2286 75.6588C47.8842 75.8576 47.4439 75.7396 47.2451 75.3953C47.0462 75.0509 47.1642 74.6105 47.5086 74.4117L48.8705 73.6254C49.2149 73.4266 49.6552 73.5446 49.854 73.889ZM35.8885 70.1469C36.2328 69.9481 36.6732 70.0661 36.872 70.4104L37.6583 71.7723C37.8571 72.1167 37.7391 72.5571 37.3948 72.7559C37.0504 72.9547 36.61 72.8367 36.4112 72.4923L35.6249 71.1304C35.4261 70.7861 35.5441 70.3457 35.8885 70.1469ZM31.0319 76.3297C31.1348 75.9456 31.5296 75.7177 31.9137 75.8206L33.4592 76.2347C33.8433 76.3376 34.0712 76.7324 33.9683 77.1165C33.8654 77.5006 33.4706 77.7285 33.0865 77.6256L31.541 77.2115C31.1569 77.1086 30.9289 76.7138 31.0319 76.3297ZM48.0322 80.8849C48.1351 80.5008 48.5299 80.2729 48.914 80.3758L50.4595 80.7899C50.8436 80.8928 51.0715 81.2876 50.9686 81.6717C50.8657 82.0558 50.4709 82.2838 50.0868 82.1808L48.5413 81.7667C48.1572 81.6638 47.9292 81.269 48.0322 80.8849ZM34.7554 82.6062C34.9542 82.9505 34.8362 83.3909 34.4918 83.5897L33.032 84.4326C32.6876 84.6314 32.2472 84.5134 32.0484 84.169C31.8496 83.8247 31.9676 83.3843 32.312 83.1855L33.7718 82.3426C34.1162 82.1438 34.5566 82.2618 34.7554 82.6062ZM44.6057 85.2455C44.95 85.0467 45.3904 85.1647 45.5892 85.5091L46.3755 86.871C46.5743 87.2154 46.4563 87.6557 46.112 87.8545C45.7676 88.0533 45.3273 87.9353 45.1284 87.591L44.3421 86.2291C44.1433 85.8847 44.2613 85.4444 44.6057 85.2455ZM39.116 86.0327C39.5001 86.1356 39.7281 86.5304 39.6251 86.9145L39.211 88.4599C39.1081 88.844 38.7133 89.072 38.3292 88.9691C37.9451 88.8661 37.7172 88.4713 37.8201 88.0872L38.2342 86.5418C38.3371 86.1577 38.7319 85.9297 39.116 86.0327Z" fill="#E96400"/>
<path fill-rule="evenodd" clip-rule="evenodd" d="M42.0561 75.0598C39.8796 74.4766 37.6424 75.7683 37.0592 77.9448C36.476 80.1214 37.7676 82.3586 39.9442 82.9418C42.1207 83.525 44.3579 82.2334 44.9411 80.0568C45.5243 77.8803 44.2327 75.6431 42.0561 75.0598ZM35.6682 77.5721C36.4573 74.6274 39.4841 72.8799 42.4288 73.6689C45.3736 74.458 47.1211 77.4848 46.3321 80.4295C45.543 83.3742 42.5162 85.1218 39.5715 84.3327C36.6267 83.5437 34.8792 80.5169 35.6682 77.5721Z" fill="#E96400"/>
</g>
<path d="M18.6621 131.198C17.5575 131.023 16.8024 129.986 16.9939 128.884C19.1871 116.264 23.1652 104.021 28.8083 92.5225C29.3011 91.5185 30.5219 91.1229 31.5184 91.6306V91.6306C32.5149 92.1383 32.9096 93.3571 32.4173 94.3613C26.9666 105.481 23.1206 117.317 20.9945 129.517C20.8024 130.619 19.7668 131.373 18.6621 131.198V131.198Z" fill="url(#paint0_linear_794_5299)"/>
</g>
<defs>
<linearGradient id="paint0_linear_794_5299" x1="32" y1="89.5" x2="17" y2="135.5" gradientUnits="userSpaceOnUse">
<stop stop-color="#E96400"/>
<stop offset="1" stop-color="#E96400" stop-opacity="0"/>
</linearGradient>
<clipPath id="clip0_794_5299">
<rect width="300" height="154" fill="white"/>
</clipPath>
<clipPath id="clip1_794_5299">
<rect x="29.48" y="67.4805" width="23.04" height="23.04" rx="11.52" fill="white"/>
</clipPath>
</defs>
</svg>
