<svg width="36" height="36" viewBox="0 0 36 36" fill="none" xmlns="http://www.w3.org/2000/svg">
<path fill-rule="evenodd" clip-rule="evenodd" d="M31.0543 18.1227C31.5529 15.9594 31.067 13.9936 29.952 12.4254C28.704 10.6699 26.7193 9.4748 24.6073 8.94456C22.4903 8.41308 20.1308 8.52005 18.0852 9.51627C16.1332 10.4669 14.5342 12.1977 13.7406 14.778C9.71323 15.7456 7.61622 19.1081 8.04526 22.3939C8.26646 24.0881 9.16042 25.6867 10.702 26.8074C12.2392 27.9248 14.3539 28.5229 16.9785 28.3801C18.4565 28.2997 21.6845 28.3409 24.5558 28.3775C25.9878 28.3958 27.3312 28.4129 28.3244 28.4133C30.3437 28.5232 31.9638 28.0484 33.1236 27.1237C34.2947 26.1899 34.8945 24.8754 34.9797 23.5425C35.1298 21.1938 33.6717 18.7577 31.0543 18.1227Z" fill="#55C4E4"/>
<path fill-rule="evenodd" clip-rule="evenodd" d="M9.95742 1.63842C9.25901 2.24351 9.56165 3.47498 9.79982 3.96024L9.80055 3.96171C10.1059 4.58099 10.2761 5.25988 10.276 5.97999L10.276 5.98338C10.2858 8.65139 7.84653 10.9713 4.82444 11.1083C4.37662 11.1289 3.94865 11.1043 3.53355 11.0405L3.53692 11.041C3.1992 10.988 2.83856 10.9756 2.49425 11.0513C2.14139 11.1289 1.74938 11.3158 1.5026 11.6883C1.25679 12.0594 1.25798 12.4594 1.3437 12.7755C1.42751 13.0846 1.60242 13.3673 1.80622 13.6135C2.7417 14.7535 4.29051 16.162 5.77212 16.7045C6.16788 16.8494 6.62118 16.7612 6.91765 16.4815L7.15991 16.253C8.1822 15.2887 9.22895 14.1162 10.6702 13.8419L11.6259 13.6599C11.9722 13.594 12.2588 13.3736 12.3877 13.0739L12.7722 12.1802C13.3325 10.8777 14.3291 9.76777 15.6208 9.00764L16.8226 8.30046C17.1917 8.08326 17.3726 7.67984 17.2757 7.2904C16.6557 4.80039 14.625 2.40208 12.0628 1.44717C11.5286 1.24738 10.6208 1.06371 9.95742 1.63842Z" fill="#969CA8"/>
<path fill-rule="evenodd" clip-rule="evenodd" d="M21.1265 30.6327C21.6686 30.9363 21.862 31.6219 21.5584 32.1639L20.7389 33.6272C20.4353 34.1692 19.7497 34.3626 19.2076 34.059C18.6655 33.7554 18.4722 33.0698 18.7758 32.5277L19.5953 31.0645C19.8989 30.5224 20.5844 30.3291 21.1265 30.6327Z" fill="#55C4E4"/>
<path fill-rule="evenodd" clip-rule="evenodd" d="M30.5765 30.6327C31.1186 30.9363 31.3119 31.6219 31.0083 32.1639L30.1888 33.6272C29.8852 34.1692 29.1997 34.3626 28.6576 34.059C28.1155 33.7554 27.9221 33.0698 28.2257 32.5277L29.0452 31.0645C29.3488 30.5224 30.0344 30.3291 30.5765 30.6327Z" fill="#55C4E4"/>
<path fill-rule="evenodd" clip-rule="evenodd" d="M13.6777 31.4297C13.6777 30.6013 14.3493 29.9297 15.1777 29.9297H15.1927C16.0212 29.9297 16.6927 30.6013 16.6927 31.4297C16.6927 32.2581 16.0212 32.9297 15.1927 32.9297H15.1777C14.3493 32.9297 13.6777 32.2581 13.6777 31.4297Z" fill="#55C4E4"/>
<path fill-rule="evenodd" clip-rule="evenodd" d="M23.2773 33.6797C23.2773 32.8513 23.9489 32.1797 24.7773 32.1797H24.7923C25.6208 32.1797 26.2923 32.8513 26.2923 33.6797C26.2923 34.5081 25.6208 35.1797 24.7923 35.1797H24.7773C23.9489 35.1797 23.2773 34.5081 23.2773 33.6797Z" fill="#55C4E4"/>
</svg>
