<svg width="300" height="154" viewBox="0 0 300 154" fill="none" xmlns="http://www.w3.org/2000/svg">
<path d="M18.6621 131.198C17.5575 131.023 16.8025 129.985 16.994 128.883C22.3749 97.9212 38.3959 69.7822 62.3245 49.3452C86.767 28.4694 117.856 17 150 17C182.144 17 213.233 28.4694 237.676 49.3452C261.604 69.7822 277.625 97.9213 283.006 128.883C283.198 129.985 282.442 131.023 281.338 131.198V131.198C280.233 131.373 279.197 130.619 279.005 129.517C273.776 99.5074 258.241 72.2356 235.045 52.4249C211.336 32.1753 181.18 21.05 150 21.05C118.82 21.05 88.664 32.1753 64.9548 52.4248C41.7594 72.2355 26.2243 99.5073 20.9945 129.517C20.8025 130.618 19.7668 131.373 18.6621 131.198V131.198Z" fill="#EAEAEA"/>
<path d="M18.6621 131.198C17.5575 131.023 16.8025 129.985 16.994 128.883C22.3749 97.9212 38.3959 69.7822 62.3245 49.3452C86.767 28.4694 117.856 17 150 17C182.144 17 213.233 28.4694 237.676 49.3452C261.604 69.7822 277.625 97.9213 283.006 128.883C283.198 129.985 282.442 131.023 281.338 131.198V131.198C280.233 131.373 279.197 130.619 279.005 129.517C273.776 99.5074 258.241 72.2356 235.045 52.4249C211.336 32.1753 181.18 21.05 150 21.05C118.82 21.05 88.664 32.1753 64.9548 52.4248C41.7594 72.2355 26.2243 99.5073 20.9945 129.517C20.8025 130.618 19.7668 131.373 18.6621 131.198V131.198Z" fill="#EAEAEA"/>
<rect x="49" y="28" width="36" height="36" rx="18" fill="white"/>
<g clip-path="url(#clip0_794_5298)">
<path fill-rule="evenodd" clip-rule="evenodd" d="M69.6712 36.0323C70.0553 36.1353 70.2833 36.5301 70.1804 36.9142L69.7497 38.5215C69.6468 38.9056 69.252 39.1335 68.8679 39.0306C68.4838 38.9277 68.2558 38.5329 68.3587 38.1488L68.7894 36.5415C68.8923 36.1574 69.2871 35.9294 69.6712 36.0323ZM75.854 40.889C76.0529 41.2333 75.9349 41.6737 75.5905 41.8725L74.2286 42.6588C73.8842 42.8576 73.4439 42.7396 73.2451 42.3953C73.0462 42.0509 73.1642 41.6105 73.5086 41.4117L74.8705 40.6254C75.2149 40.4266 75.6552 40.5446 75.854 40.889ZM61.8885 37.1469C62.2328 36.9481 62.6732 37.0661 62.872 37.4104L63.6583 38.7723C63.8571 39.1167 63.7391 39.5571 63.3948 39.7559C63.0504 39.9547 62.61 39.8367 62.4112 39.4923L61.6249 38.1304C61.4261 37.7861 61.5441 37.3457 61.8885 37.1469ZM57.0319 43.3297C57.1348 42.9456 57.5296 42.7177 57.9137 42.8206L59.4592 43.2347C59.8433 43.3376 60.0712 43.7324 59.9683 44.1165C59.8654 44.5006 59.4706 44.7285 59.0865 44.6256L57.541 44.2115C57.1569 44.1086 56.9289 43.7138 57.0319 43.3297ZM74.0322 47.8849C74.1351 47.5008 74.5299 47.2729 74.914 47.3758L76.4595 47.7899C76.8436 47.8928 77.0715 48.2876 76.9686 48.6717C76.8657 49.0558 76.4709 49.2838 76.0868 49.1808L74.5413 48.7667C74.1572 48.6638 73.9292 48.269 74.0322 47.8849ZM60.7554 49.6062C60.9542 49.9505 60.8362 50.3909 60.4918 50.5897L59.032 51.4326C58.6876 51.6314 58.2472 51.5134 58.0484 51.169C57.8496 50.8247 57.9676 50.3843 58.312 50.1855L59.7718 49.3426C60.1162 49.1438 60.5566 49.2618 60.7554 49.6062ZM70.6057 52.2455C70.95 52.0467 71.3904 52.1647 71.5892 52.5091L72.3755 53.871C72.5743 54.2154 72.4563 54.6557 72.112 54.8545C71.7676 55.0533 71.3273 54.9353 71.1284 54.591L70.3421 53.2291C70.1433 52.8847 70.2613 52.4444 70.6057 52.2455ZM65.116 53.0327C65.5001 53.1356 65.7281 53.5304 65.6251 53.9145L65.211 55.4599C65.1081 55.844 64.7133 56.072 64.3292 55.9691C63.9451 55.8661 63.7172 55.4713 63.8201 55.0872L64.2342 53.5418C64.3371 53.1577 64.7319 52.9297 65.116 53.0327Z" fill="#E96400"/>
<path fill-rule="evenodd" clip-rule="evenodd" d="M68.0561 42.0598C65.8796 41.4766 63.6424 42.7683 63.0592 44.9448C62.476 47.1214 63.7676 49.3586 65.9442 49.9418C68.1207 50.525 70.3579 49.2334 70.9411 47.0568C71.5243 44.8803 70.2327 42.6431 68.0561 42.0598ZM61.6682 44.5721C62.4573 41.6274 65.4841 39.8799 68.4288 40.6689C71.3736 41.458 73.1211 44.4848 72.3321 47.4295C71.543 50.3742 68.5162 52.1218 65.5715 51.3327C62.6267 50.5437 60.8792 47.5169 61.6682 44.5721Z" fill="#E96400"/>
</g>
<path d="M18.6621 131.198C17.5575 131.023 16.8024 129.985 16.9939 128.883C21.6386 102.158 34.228 77.4499 53.1192 57.9834C53.8981 57.1809 55.1817 57.1816 55.9725 57.9725V57.9725C56.7633 58.7633 56.7618 60.0446 55.9834 60.8475C37.6965 79.7087 25.5048 103.636 20.9945 129.517C20.8025 130.619 19.7668 131.373 18.6621 131.198V131.198Z" fill="url(#paint0_linear_794_5298)"/>
<defs>
<linearGradient id="paint0_linear_794_5298" x1="57" y1="55.5" x2="15" y2="135.5" gradientUnits="userSpaceOnUse">
<stop stop-color="#E96400"/>
<stop offset="1" stop-color="#E96400" stop-opacity="0"/>
</linearGradient>
<clipPath id="clip0_794_5298">
<rect x="55.48" y="34.4805" width="23.04" height="23.04" rx="11.52" fill="white"/>
</clipPath>
</defs>
</svg>
