<svg width="36" height="36" viewBox="0 0 36 36" fill="none" xmlns="http://www.w3.org/2000/svg">
<path fill-rule="evenodd" clip-rule="evenodd" d="M7.45226 1.56154C7.95905 1.37022 8.5199 1.6399 8.70494 2.16387L9.21067 3.59593C9.39571 4.11991 9.13488 4.69976 8.62808 4.89107C8.12129 5.08239 7.56044 4.81271 7.3754 4.28874L6.86967 2.85668C6.68463 2.3327 6.94546 1.75285 7.45226 1.56154ZM14.6189 1.94217C15.1093 2.17456 15.3247 2.77402 15.0999 3.28112L14.5196 4.59033C14.2949 5.09742 13.7151 5.32012 13.2246 5.08773C12.7341 4.85534 12.5187 4.25587 12.7435 3.74878L13.3238 2.43957C13.5486 1.93247 14.1284 1.70978 14.6189 1.94217ZM8.9063 5.69435C10.9125 4.92484 13.0777 5.52466 14.463 7.02974L15.3003 7.93944L14.2614 8.58992C13.065 9.33895 12.1783 10.556 11.799 11.9559L11.6544 12.4898L11.0017 12.6938C9.96205 13.0188 8.99585 13.5556 8.15996 14.2726L7.31196 15L6.68914 14.2128C6.32594 13.7537 6.03054 13.2252 5.82352 12.6389C4.83537 9.84084 6.208 6.72932 8.9063 5.69435ZM2.22775 6.69098C2.4555 6.18531 3.03661 5.96626 3.52571 6.20172L4.78194 6.8065C5.27104 7.04196 5.4829 7.64277 5.25516 8.14844C5.02742 8.65412 4.4463 8.87317 3.95721 8.6377L2.70097 8.03293C2.21188 7.79746 2.00001 7.19665 2.22775 6.69098ZM5.01459 12.9547C5.20225 13.4777 4.94432 14.0589 4.43849 14.253L3.11723 14.7597C2.6114 14.9538 2.04921 14.6871 1.86156 14.1641C1.6739 13.6411 1.93183 13.0599 2.43766 12.8659L3.75892 12.3591C4.26475 12.1651 4.82693 12.4317 5.01459 12.9547Z" fill="#E96400"/>
<path fill-rule="evenodd" clip-rule="evenodd" d="M29.9774 17.1423C30.476 14.979 29.9901 13.0131 28.8751 11.4449C27.6271 9.68946 25.6424 8.49433 23.5304 7.96409C21.4134 7.43261 19.0539 7.53958 17.0083 8.5358C15.0562 9.48644 13.4573 11.2172 12.6637 13.7975C8.63633 14.7651 6.53932 18.1276 6.96835 21.4135C7.18956 23.1077 8.08352 24.7063 9.62511 25.8269C11.1623 26.9443 13.277 27.5424 15.9016 27.3997C17.3796 27.3193 20.6076 27.3604 23.4789 27.3971C24.9109 27.4153 26.2542 27.4325 27.2475 27.4328C29.2668 27.5428 30.8869 27.068 32.0467 26.1432C33.2178 25.2095 33.8176 23.8949 33.9028 22.5621C34.0529 20.2134 32.5948 17.7772 29.9774 17.1423Z" fill="#55C4E4"/>
<path fill-rule="evenodd" clip-rule="evenodd" d="M29.3566 28.5067C29.8959 28.8152 30.083 29.5025 29.7745 30.0418L28.1091 32.9532C27.8006 33.4925 27.1133 33.6796 26.574 33.3711C26.0346 33.0626 25.8475 32.3753 26.156 31.836L27.8214 28.9246C28.1299 28.3853 28.8172 28.1981 29.3566 28.5067Z" fill="#55C4E4"/>
<path fill-rule="evenodd" clip-rule="evenodd" d="M21.4996 28.2001C21.9132 28.4758 22.0249 29.0346 21.7492 29.4482L21.182 30.2989H21.1898C22.1482 30.2989 22.7199 31.3671 22.1883 32.1646L20.9992 33.9482C20.7235 34.3617 20.1647 34.4735 19.7511 34.1978C19.3375 33.9221 19.2258 33.3633 19.5015 32.9497L20.0687 32.0989H20.0609C19.1025 32.0989 18.5308 31.0307 19.0624 30.2333L20.2515 28.4497C20.5272 28.0361 21.086 27.9244 21.4996 28.2001Z" fill="#DFC60A"/>
<path fill-rule="evenodd" clip-rule="evenodd" d="M14.6564 28.5067C15.1957 28.8152 15.3828 29.5025 15.0743 30.0418L13.4089 32.9532C13.1004 33.4925 12.4131 33.6796 11.8738 33.3711C11.3344 33.0626 11.1473 32.3753 11.4558 31.836L13.1212 28.9246C13.4297 28.3853 14.117 28.1981 14.6564 28.5067Z" fill="#55C4E4"/>
</svg>
