<svg width="24" height="24" viewBox="0 0 24 24" fill="none" xmlns="http://www.w3.org/2000/svg">
<g clip-path="url(#clip0_1156_13439)">
<path d="M21.7673 19.0814H2.23242V17.1279H3.20917V10.321C3.20917 5.44898 7.14545 1.5 11.9999 1.5C16.8543 1.5 20.7906 5.44898 20.7906 10.321V17.1279H21.7673V19.0814ZM5.16265 17.1279H18.8371V10.321C18.8371 6.52828 15.776 3.45349 11.9999 3.45349C8.22377 3.45349 5.16265 6.52828 5.16265 10.321V17.1279ZM9.558 20.0581H14.4417C14.4417 20.7058 14.1845 21.3269 13.7265 21.7848C13.2686 22.2427 12.6475 22.5 11.9999 22.5C11.3522 22.5 10.7311 22.2427 10.2732 21.7848C9.81527 21.3269 9.558 20.7058 9.558 20.0581V20.0581Z" fill="black"/>
</g>
<defs>
<clipPath id="clip0_1156_13439">
<rect width="24" height="24" fill="white"/>
</clipPath>
</defs>
</svg>
