<svg width="36" height="36" viewBox="0 0 36 36" fill="none" xmlns="http://www.w3.org/2000/svg">
<g clip-path="url(#clip0_266_4104)">
<path d="M26.6748 24.5866L33 30.9103L30.9103 33L24.5866 26.6748C22.2336 28.561 19.307 29.5869 16.2913 29.5827C8.95451 29.5827 3 23.6281 3 16.2913C3 8.95451 8.95451 3 16.2913 3C23.6281 3 29.5827 8.95451 29.5827 16.2913C29.5869 19.307 28.561 22.2336 26.6748 24.5866ZM23.7123 23.4908C25.5866 21.5634 26.6333 18.9798 26.629 16.2913C26.629 10.579 22.0022 5.95363 16.2913 5.95363C10.579 5.95363 5.95363 10.579 5.95363 16.2913C5.95363 22.0022 10.579 26.629 16.2913 26.629C18.9798 26.6333 21.5634 25.5866 23.4908 23.7123L23.7123 23.4908Z" fill="black"/>
</g>
<defs>
<clipPath id="clip0_266_4104">
<rect width="36" height="36" fill="white"/>
</clipPath>
</defs>
</svg>
