<svg width="300" height="154" viewBox="0 0 300 154" fill="none" xmlns="http://www.w3.org/2000/svg">
<path d="M18.6621 131.198C17.5575 131.023 16.8025 129.985 16.994 128.883C22.3749 97.9212 38.3959 69.7822 62.3245 49.3452C86.767 28.4694 117.856 17 150 17C182.144 17 213.233 28.4694 237.676 49.3452C261.604 69.7822 277.625 97.9213 283.006 128.883C283.198 129.985 282.442 131.023 281.338 131.198V131.198C280.233 131.373 279.197 130.619 279.005 129.517C273.776 99.5074 258.241 72.2356 235.045 52.4249C211.336 32.1753 181.18 21.05 150 21.05C118.82 21.05 88.664 32.1753 64.9548 52.4248C41.7594 72.2355 26.2243 99.5073 20.9945 129.517C20.8025 130.618 19.7668 131.373 18.6621 131.198V131.198Z" fill="#EAEAEA"/>
<path d="M18.6621 131.198C17.5575 131.023 16.8025 129.985 16.994 128.883C22.3749 97.9212 38.3959 69.7822 62.3245 49.3452C86.767 28.4694 117.856 17 150 17C182.144 17 213.233 28.4694 237.676 49.3452C261.604 69.7822 277.625 97.9213 283.006 128.883C283.198 129.985 282.442 131.023 281.338 131.198V131.198C280.233 131.373 279.197 130.619 279.005 129.517C273.776 99.5074 258.241 72.2356 235.045 52.4249C211.336 32.1753 181.18 21.05 150 21.05C118.82 21.05 88.664 32.1753 64.9548 52.4248C41.7594 72.2355 26.2243 99.5073 20.9945 129.517C20.8025 130.618 19.7668 131.373 18.6621 131.198V131.198Z" fill="#EAEAEA"/>
<rect x="206" y="24" width="36" height="36" rx="18" fill="white"/>
<g clip-path="url(#clip0_794_5305)">
<path fill-rule="evenodd" clip-rule="evenodd" d="M226.671 32.0323C227.055 32.1353 227.283 32.5301 227.18 32.9142L226.75 34.5215C226.647 34.9056 226.252 35.1335 225.868 35.0306C225.484 34.9277 225.256 34.5329 225.359 34.1488L225.789 32.5415C225.892 32.1574 226.287 31.9294 226.671 32.0323ZM232.854 36.889C233.053 37.2333 232.935 37.6737 232.591 37.8725L231.229 38.6588C230.884 38.8576 230.444 38.7396 230.245 38.3953C230.046 38.0509 230.164 37.6105 230.509 37.4117L231.871 36.6254C232.215 36.4266 232.655 36.5446 232.854 36.889ZM218.888 33.1469C219.233 32.9481 219.673 33.0661 219.872 33.4104L220.658 34.7723C220.857 35.1167 220.739 35.5571 220.395 35.7559C220.05 35.9547 219.61 35.8367 219.411 35.4923L218.625 34.1304C218.426 33.7861 218.544 33.3457 218.888 33.1469ZM214.032 39.3297C214.135 38.9456 214.53 38.7177 214.914 38.8206L216.459 39.2347C216.843 39.3376 217.071 39.7324 216.968 40.1165C216.865 40.5006 216.471 40.7285 216.086 40.6256L214.541 40.2115C214.157 40.1086 213.929 39.7138 214.032 39.3297ZM231.032 43.8849C231.135 43.5008 231.53 43.2729 231.914 43.3758L233.459 43.7899C233.844 43.8928 234.071 44.2876 233.969 44.6717C233.866 45.0558 233.471 45.2838 233.087 45.1808L231.541 44.7667C231.157 44.6638 230.929 44.269 231.032 43.8849ZM217.755 45.6062C217.954 45.9505 217.836 46.3909 217.492 46.5897L216.032 47.4326C215.688 47.6314 215.247 47.5134 215.048 47.169C214.85 46.8247 214.968 46.3843 215.312 46.1855L216.772 45.3426C217.116 45.1438 217.557 45.2618 217.755 45.6062ZM227.606 48.2455C227.95 48.0467 228.39 48.1647 228.589 48.5091L229.376 49.871C229.574 50.2154 229.456 50.6557 229.112 50.8545C228.768 51.0533 228.327 50.9353 228.128 50.591L227.342 49.2291C227.143 48.8847 227.261 48.4444 227.606 48.2455ZM222.116 49.0327C222.5 49.1356 222.728 49.5304 222.625 49.9145L222.211 51.4599C222.108 51.844 221.713 52.072 221.329 51.9691C220.945 51.8661 220.717 51.4713 220.82 51.0872L221.234 49.5418C221.337 49.1577 221.732 48.9297 222.116 49.0327Z" fill="#E96400"/>
<path fill-rule="evenodd" clip-rule="evenodd" d="M225.056 38.0598C222.88 37.4766 220.642 38.7683 220.059 40.9448C219.476 43.1214 220.768 45.3586 222.944 45.9418C225.121 46.525 227.358 45.2334 227.941 43.0568C228.524 40.8803 227.233 38.6431 225.056 38.0598ZM218.668 40.5721C219.457 37.6274 222.484 35.8799 225.429 36.6689C228.374 37.458 230.121 40.4848 229.332 43.4295C228.543 46.3742 225.516 48.1218 222.571 47.3327C219.627 46.5437 217.879 43.5169 218.668 40.5721Z" fill="#E96400"/>
</g>
<path d="M18.6621 131.198C17.5575 131.023 16.8023 129.986 16.9938 128.884C20.5231 108.577 28.6572 89.3383 40.7827 72.649C53.3051 55.4133 69.7289 41.3861 88.7113 31.7141C107.694 22.0421 128.696 17 150 17C170.629 17 190.975 21.7275 209.478 30.8084C210.482 31.3011 210.877 32.5219 210.369 33.5184V33.5184C209.862 34.5149 208.643 34.9096 207.639 34.4173C189.705 25.6264 169.99 21.05 150 21.05C129.335 21.05 108.963 25.9409 90.55 35.3227C72.1371 44.7045 56.206 58.311 44.0592 75.0295C32.3094 91.2017 24.4234 109.842 20.9945 129.517C20.8024 130.619 19.7668 131.373 18.6621 131.198V131.198Z" fill="url(#paint0_linear_794_5305)"/>
<defs>
<linearGradient id="paint0_linear_794_5305" x1="215.5" y1="24.5" x2="15" y2="139" gradientUnits="userSpaceOnUse">
<stop stop-color="#E96400"/>
<stop offset="1" stop-color="#E96400" stop-opacity="0"/>
</linearGradient>
<clipPath id="clip0_794_5305">
<rect x="212.48" y="30.4805" width="23.04" height="23.04" rx="11.52" fill="white"/>
</clipPath>
</defs>
</svg>
