<svg width="300" height="154" viewBox="0 0 300 154" fill="none" xmlns="http://www.w3.org/2000/svg">
<path d="M18.6621 131.198C17.5575 131.023 16.8025 129.985 16.994 128.883C22.3749 97.9212 38.3959 69.7822 62.3245 49.3452C86.767 28.4694 117.856 17 150 17C182.144 17 213.233 28.4694 237.676 49.3452C261.604 69.7822 277.625 97.9213 283.006 128.883C283.198 129.985 282.442 131.023 281.338 131.198V131.198C280.233 131.373 279.197 130.619 279.005 129.517C273.776 99.5074 258.241 72.2356 235.045 52.4249C211.336 32.1753 181.18 21.05 150 21.05C118.82 21.05 88.664 32.1753 64.9548 52.4248C41.7594 72.2355 26.2243 99.5073 20.9945 129.517C20.8025 130.618 19.7668 131.373 18.6621 131.198V131.198Z" fill="#EAEAEA"/>
<path d="M18.6621 131.198C17.5575 131.023 16.8025 129.985 16.994 128.883C22.3749 97.9212 38.3959 69.7822 62.3245 49.3452C86.767 28.4694 117.856 17 150 17C182.144 17 213.233 28.4694 237.676 49.3452C261.604 69.7822 277.625 97.9213 283.006 128.883C283.198 129.985 282.442 131.023 281.338 131.198V131.198C280.233 131.373 279.197 130.619 279.005 129.517C273.776 99.5074 258.241 72.2356 235.045 52.4249C211.336 32.1753 181.18 21.05 150 21.05C118.82 21.05 88.664 32.1753 64.9548 52.4248C41.7594 72.2355 26.2243 99.5073 20.9945 129.517C20.8025 130.618 19.7668 131.373 18.6621 131.198V131.198Z" fill="#EAEAEA"/>
<rect x="87" y="8" width="36" height="36" rx="18" fill="white"/>
<g clip-path="url(#clip0_794_5297)">
<path fill-rule="evenodd" clip-rule="evenodd" d="M107.671 16.0323C108.056 16.1353 108.284 16.5301 108.181 16.9142L107.75 18.5215C107.647 18.9056 107.252 19.1335 106.868 19.0306C106.484 18.9277 106.256 18.5329 106.359 18.1488L106.79 16.5415C106.893 16.1574 107.287 15.9294 107.671 16.0323ZM113.854 20.889C114.053 21.2333 113.935 21.6737 113.591 21.8725L112.229 22.6588C111.884 22.8576 111.444 22.7396 111.245 22.3953C111.046 22.0509 111.164 21.6105 111.509 21.4117L112.871 20.6254C113.215 20.4266 113.655 20.5446 113.854 20.889ZM99.8887 17.1469C100.233 16.9481 100.673 17.0661 100.872 17.4104L101.659 18.7723C101.857 19.1167 101.739 19.5571 101.395 19.7559C101.051 19.9547 100.61 19.8367 100.411 19.4923L99.6252 18.1304C99.4263 17.7861 99.5443 17.3457 99.8887 17.1469ZM95.0321 23.3297C95.135 22.9456 95.5298 22.7177 95.9139 22.8206L97.4594 23.2347C97.8435 23.3376 98.0714 23.7324 97.9685 24.1165C97.8656 24.5006 97.4708 24.7285 97.0867 24.6256L95.5412 24.2115C95.1571 24.1086 94.9292 23.7138 95.0321 23.3297ZM112.032 27.8849C112.135 27.5008 112.53 27.2729 112.914 27.3758L114.46 27.7899C114.844 27.8928 115.072 28.2876 114.969 28.6717C114.866 29.0558 114.471 29.2838 114.087 29.1808L112.542 28.7667C112.157 28.6638 111.929 28.269 112.032 27.8849ZM98.7556 29.6062C98.9545 29.9505 98.8365 30.3909 98.4921 30.5897L97.0322 31.4326C96.6878 31.6314 96.2475 31.5134 96.0487 31.169C95.8498 30.8247 95.9678 30.3843 96.3122 30.1855L97.7721 29.3426C98.1165 29.1438 98.5568 29.2618 98.7556 29.6062ZM108.606 32.2455C108.95 32.0467 109.391 32.1647 109.589 32.5091L110.376 33.871C110.575 34.2154 110.457 34.6557 110.112 34.8545C109.768 35.0533 109.327 34.9353 109.129 34.591L108.342 33.2291C108.144 32.8847 108.262 32.4444 108.606 32.2455ZM103.116 33.0327C103.5 33.1356 103.728 33.5304 103.625 33.9145L103.211 35.4599C103.108 35.844 102.714 36.072 102.329 35.9691C101.945 35.8661 101.717 35.4713 101.82 35.0872L102.234 33.5418C102.337 33.1577 102.732 32.9297 103.116 33.0327Z" fill="#E96400"/>
<path fill-rule="evenodd" clip-rule="evenodd" d="M106.056 22.0598C103.88 21.4766 101.643 22.7683 101.059 24.9448C100.476 27.1214 101.768 29.3586 103.944 29.9418C106.121 30.525 108.358 29.2334 108.941 27.0568C109.525 24.8803 108.233 22.6431 106.056 22.0598ZM99.6685 24.5721C100.458 21.6274 103.484 19.8799 106.429 20.6689C109.374 21.458 111.121 24.4848 110.332 27.4295C109.543 30.3742 106.516 32.1218 103.572 31.3327C100.627 30.5437 98.8794 27.5169 99.6685 24.5721Z" fill="#E96400"/>
</g>
<path d="M18.6621 131.198C17.5575 131.023 16.8023 129.986 16.9938 128.884C20.5231 108.577 28.6572 89.3383 40.7827 72.649C52.9082 55.9597 68.6916 42.2786 86.9139 32.647C87.9027 32.1244 89.1229 32.5219 89.6306 33.5184V33.5184C90.1383 34.5149 89.7413 35.7329 88.7528 36.256C71.0999 45.5972 55.809 58.8573 44.0592 75.0295C32.3094 91.2017 24.4234 109.842 20.9945 129.517C20.8024 130.619 19.7668 131.373 18.6621 131.198V131.198Z" fill="url(#paint0_linear_794_5297)"/>
<defs>
<linearGradient id="paint0_linear_794_5297" x1="93" y1="31.5" x2="17.5" y2="138" gradientUnits="userSpaceOnUse">
<stop stop-color="#E96400"/>
<stop offset="1" stop-color="#E96400" stop-opacity="0"/>
</linearGradient>
<clipPath id="clip0_794_5297">
<rect x="93.48" y="14.4805" width="23.04" height="23.04" rx="11.52" fill="white"/>
</clipPath>
</defs>
</svg>
