<svg width="36" height="36" viewBox="0 0 36 36" fill="none" xmlns="http://www.w3.org/2000/svg">
<path d="M26.0843 8.49052L27.4048 7.17002M19.4248 5.72602V3.75M19.4248 24.65V26.55M28.9248 15.15H30.8248M27.4048 23.13L26.0843 21.8095" stroke="#E96400" stroke-width="2.25" stroke-linecap="round" stroke-linejoin="round"/>
<path d="M19.4248 20.8512C22.5728 20.8512 25.1248 18.2992 25.1248 15.1512C25.1248 12.0031 22.5728 9.45117 19.4248 9.45117" stroke="#E96400" stroke-width="2.25" stroke-linecap="round"/>
<path d="M7.24949 23.4513C6.48446 24.1271 5.94318 25.0197 5.69756 26.0104C5.45195 27.0012 5.51364 28.0433 5.87443 28.9982C6.23521 29.9531 6.87802 30.7756 7.71744 31.3564C8.55686 31.9373 9.55315 32.2489 10.5739 32.25C11.5947 32.2511 12.5916 31.9415 13.4323 31.3624C14.2729 30.7834 14.9175 29.9622 15.2803 29.0081C15.6431 28.054 15.7069 27.012 15.4634 26.0207C15.2199 25.0294 14.6805 24.1357 13.9169 23.4583M13.9322 23.0294V7.10294C13.9322 5.25116 12.431 3.75 10.5792 3.75C8.72747 3.75 7.22631 5.25116 7.22631 7.10294V23.0294" stroke="black" stroke-width="2.25" stroke-linecap="round"/>
<path d="M10.5747 27.6016H10.5897" stroke="black" stroke-width="4.2" stroke-linecap="round"/>
<path d="M10.6199 27.75V10.5" stroke="black" stroke-width="2.25" stroke-linecap="round"/>
</svg>
