<svg width="24" height="40" viewBox="0 0 24 40" fill="none" xmlns="http://www.w3.org/2000/svg">
<rect x="9" y="33" width="6" height="6" rx="3" fill="black"/>
<path d="M13.29 5.59961H4.71C3 5.59961 2 6.80833 2 8.95561V21.2142C2 22.7789 3.04 23.4479 4.31 22.6817L8.24 20.3185C8.66 20.0703 9.34 20.0703 9.75 20.3185L13.68 22.6817C14.96 23.4371 16 22.7789 16 21.2142V8.65358C16 6.80833 15 5.59961 13.29 5.59961Z" fill="black"/>
<path d="M22.64 4.11V15.47C22.64 16.92 21.6 17.53 20.33 16.83L18.4 15.75C18.24 15.66 18.14 15.49 18.14 15.31V7.99C18.14 5 16.6402 3.38 13.53 3.38H9.46C9.09 3.38 8.99998 3.08444 9 2.67C9 1.5 9.64016 1 11.75 1H19.53C21.6401 1 22.64 2 22.64 4.11Z" fill="black"/>
</svg>
