<svg width="36" height="36" viewBox="0 0 36 36" fill="none" xmlns="http://www.w3.org/2000/svg">
<path fill-rule="evenodd" clip-rule="evenodd" d="M15.4825 6.74305C16.3252 7.50818 16.1174 8.67448 15.7377 9.51635L15.737 9.51796C15.178 10.7517 14.8714 12.1023 14.8828 13.53L14.8828 13.5337C14.9055 18.8207 19.4694 23.392 25.131 23.6156C25.9651 23.6491 26.763 23.5933 27.5368 23.4596C28.0505 23.3692 28.5528 23.3535 29.0047 23.4553C29.4623 23.5583 29.9348 23.8012 30.2327 24.2719C30.5329 24.7462 30.5469 25.2795 30.434 25.7385C30.3234 26.1878 30.0817 26.6233 29.7714 27.0292C27.0741 30.5924 22.5963 32.835 17.6131 32.6263C10.5471 32.3263 4.58159 26.8612 4.08692 20.0375C3.63518 13.9897 7.35366 8.75094 12.7092 6.57024C13.5679 6.21907 14.6979 6.03072 15.4825 6.74305Z" fill="#969CA8"/>
<path d="M29.9934 8.52688L30.8481 8.69735C30.8627 8.70026 30.8627 8.72112 30.8481 8.72403L29.9934 8.8945C28.3778 9.21673 27.1144 10.4788 26.7905 12.094L26.6208 12.9398C26.6179 12.9543 26.5971 12.9543 26.5942 12.9398L26.4245 12.094C26.1006 10.4788 24.8372 9.21673 23.2216 8.8945L22.3669 8.72403C22.3523 8.72112 22.3523 8.70026 22.3669 8.69735L23.2216 8.52688C24.8372 8.20466 26.1006 6.94261 26.4245 5.32736L26.5942 4.48163C26.5971 4.46706 26.6179 4.46706 26.6208 4.48163L26.7905 5.32737C27.1144 6.94261 28.3778 8.20466 29.9934 8.52688Z" fill="black"/>
<path fill-rule="evenodd" clip-rule="evenodd" d="M25.5941 4.28167C25.8162 3.17437 27.3992 3.17431 27.6213 4.28167L27.7909 5.12742C28.0339 6.33885 28.9814 7.28539 30.1931 7.52705L31.0478 7.69752C32.1566 7.91867 32.1566 9.50404 31.0478 9.72518L30.1931 9.89565C28.9814 10.1373 28.0339 11.0839 27.7909 12.2953L27.6213 13.141C27.3992 14.2484 25.8162 14.2484 25.5941 13.141L25.4244 12.2953C25.1815 11.0839 24.2339 10.1373 23.0222 9.89565L22.1675 9.72519C21.0587 9.50404 21.0587 7.91867 22.1675 7.69752L23.0222 7.52705C24.2339 7.28539 25.1815 6.33885 25.4244 5.12742L25.5941 4.28167Z" fill="#DFC60A"/>
<path fill-rule="evenodd" clip-rule="evenodd" d="M22.9212 13.9021C23.0931 13.0431 24.3185 13.043 24.4904 13.9021L24.6217 14.5582C24.8098 15.498 25.5433 16.2323 26.4812 16.4198L27.1428 16.5521C28.0011 16.7236 28.0011 17.9535 27.1428 18.1251L26.4812 18.2574C25.5433 18.4448 24.8098 19.1791 24.6217 20.119L24.4904 20.7751C24.3185 21.6341 23.0931 21.6341 22.9212 20.7751L22.7899 20.119C22.6018 19.1791 21.8683 18.4448 20.9304 18.2574L20.2687 18.1251C19.4104 17.9535 19.4104 16.7236 20.2687 16.5521L20.9304 16.4198C21.8683 16.2323 22.6018 15.498 22.7899 14.5582L22.9212 13.9021Z" fill="#DFC60A"/>
</svg>
