<svg width="24" height="24" viewBox="0 0 24 24" fill="none" xmlns="http://www.w3.org/2000/svg">
<path fill-rule="evenodd" clip-rule="evenodd" d="M16.5999 12.0309C15.1751 11.6206 13.6447 11.8068 12.3598 12.5468C10.6238 13.5465 8.53631 13.7332 6.65046 13.0575L4.26491 12.2027C3.91126 12.0759 3.72729 11.6865 3.85402 11.3329C3.98075 10.9792 4.37017 10.7952 4.72383 10.922L7.10937 11.7768C8.61939 12.3179 10.2909 12.1684 11.6809 11.3679C13.2856 10.4437 15.1969 10.2112 16.9764 10.7236L19.194 11.3621C19.555 11.4661 19.7634 11.843 19.6594 12.204C19.5555 12.565 19.1785 12.7734 18.8175 12.6695L16.5999 12.0309Z" fill="#55C4E4"/>
<path fill-rule="evenodd" clip-rule="evenodd" d="M17.7878 17.4552C15.9809 17.0382 14.0614 17.2419 12.373 18.0184C10.2556 18.9922 7.832 19.1877 5.58747 18.5443L2.49295 17.6572C2.13182 17.5537 1.92299 17.177 2.02651 16.8159C2.13004 16.4547 2.50671 16.2459 2.86784 16.3494L5.96236 17.2365C7.88985 17.7891 9.97895 17.622 11.8046 16.7824C13.7629 15.8818 15.9896 15.6441 18.0937 16.1296L20.9726 16.794C21.3386 16.8785 21.5669 17.2437 21.4824 17.6097C21.398 17.9758 21.0327 18.2041 20.6667 18.1196L17.7878 17.4552Z" fill="#55C4E4"/>
<path fill-rule="evenodd" clip-rule="evenodd" d="M17.7878 6.57242C15.9809 6.15543 14.0614 6.3591 12.373 7.13559C10.2556 8.10938 7.832 8.3049 5.58747 7.66147L2.49295 6.77437C2.13182 6.67085 1.92299 6.29417 2.02651 5.93304C2.13004 5.57191 2.50671 5.36308 2.86784 5.4666L5.96236 6.3537C7.88985 6.90624 9.97895 6.73918 11.8046 5.89959C13.7629 4.99897 15.9896 4.76125 18.0937 5.24682L20.9726 5.91117C21.3386 5.99564 21.5669 6.36087 21.4824 6.72692C21.398 7.09298 21.0327 7.32124 20.6667 7.23677L17.7878 6.57242Z" fill="#55C4E4"/>
</svg>
