<svg width="36" height="36" viewBox="0 0 36 36" fill="none" xmlns="http://www.w3.org/2000/svg">
<path fill-rule="evenodd" clip-rule="evenodd" d="M7.45177 1.86036C7.95857 1.66905 8.51941 1.93873 8.70445 2.4627L9.21018 3.89476C9.39522 4.41873 9.13439 4.99859 8.62759 5.1899C8.1208 5.38121 7.55995 5.11154 7.37491 4.58757L6.86918 3.1555C6.68414 2.63153 6.94497 2.05168 7.45177 1.86036ZM14.6184 2.241C15.1088 2.47338 15.3242 3.07285 15.0995 3.57995L14.5192 4.88916C14.2944 5.39625 13.7146 5.61894 13.2241 5.38656C12.7336 5.15417 12.5182 4.5547 12.743 4.0476L13.3233 2.73839C13.5481 2.2313 14.1279 2.00861 14.6184 2.241ZM8.90581 5.99318C10.912 5.22366 13.0773 5.82349 14.4625 7.32857L15.2998 8.23827L14.2609 8.88875C13.0645 9.63778 12.1778 10.8548 11.7986 12.2547L11.6539 12.7886L11.0012 12.9927C9.96156 13.3177 8.99536 13.8545 8.15947 14.5715L7.31147 15.2988L6.68865 14.5116C6.32545 14.0525 6.03006 13.524 5.82303 12.9378C4.83488 10.1397 6.20751 7.02814 8.90581 5.99318ZM2.22726 6.98981C2.45501 6.48413 3.03612 6.26508 3.52522 6.50055L4.78145 7.10533C5.27055 7.34079 5.48242 7.9416 5.25467 8.44727C5.02693 8.95295 4.44582 9.172 3.95672 8.93653L2.70049 8.33175C2.21139 8.09629 1.99952 7.49548 2.22726 6.98981ZM5.0141 13.2535C5.20176 13.7765 4.94383 14.3578 4.438 14.5518L3.11674 15.0586C2.61091 15.2526 2.04872 14.9859 1.86107 14.4629C1.67341 13.94 1.93134 13.3587 2.43717 13.1647L3.75843 12.6579C4.26426 12.4639 4.82645 12.7306 5.0141 13.2535Z" fill="#E96400"/>
<path fill-rule="evenodd" clip-rule="evenodd" d="M29.9772 17.4431C30.4757 15.2798 29.9899 13.3139 28.8749 11.7457C27.6268 9.99024 25.6422 8.79511 23.5302 8.26487C21.4132 7.73339 19.0537 7.84036 17.0081 8.83658C15.056 9.78723 13.4571 11.518 12.6635 14.0983C8.63608 15.0659 6.53907 18.4284 6.96811 21.7143C7.18931 23.4084 8.08327 25.007 9.62486 26.1277C11.1621 27.2451 13.2768 27.8432 15.9014 27.7004C17.3793 27.6201 20.6073 27.6612 23.4787 27.6978C24.9107 27.7161 26.254 27.7332 27.2473 27.7336C29.2666 27.8435 30.8867 27.3688 32.0465 26.444C33.2175 25.5102 33.8173 24.1957 33.9025 22.8628C34.0526 20.5142 32.5945 18.078 29.9772 17.4431Z" fill="#55C4E4"/>
<path fill-rule="evenodd" clip-rule="evenodd" d="M16.0065 28.657C16.5458 28.9655 16.7329 29.6528 16.4244 30.1922L14.759 33.1036C14.4505 33.6429 13.7632 33.83 13.2239 33.5215C12.6845 33.213 12.4974 32.5257 12.8059 31.9864L14.4713 29.075C14.7798 28.5357 15.4671 28.3485 16.0065 28.657Z" fill="#55C4E4"/>
<path fill-rule="evenodd" clip-rule="evenodd" d="M24.4061 28.8055C24.9454 29.114 25.1326 29.8013 24.824 30.3406L23.1586 33.252C22.8501 33.7913 22.1628 33.9785 21.6235 33.67C21.0842 33.3615 20.8971 32.6742 21.2056 32.1348L22.871 29.2234C23.1795 28.6841 23.8668 28.497 24.4061 28.8055Z" fill="#55C4E4"/>
<path fill-rule="evenodd" clip-rule="evenodd" d="M19.3345 30.535C19.8766 30.8386 20.07 31.5242 19.7664 32.0663L18.9469 33.5295C18.6433 34.0716 17.9577 34.2649 17.4156 33.9613C16.8735 33.6577 16.6802 32.9722 16.9838 32.4301L17.8033 30.9669C18.1069 30.4248 18.7924 30.2314 19.3345 30.535Z" fill="#55C4E4"/>
<path fill-rule="evenodd" clip-rule="evenodd" d="M28.149 30.703C28.6911 31.0066 28.8844 31.6922 28.5808 32.2343L27.7613 33.6975C27.4577 34.2396 26.7722 34.4329 26.2301 34.1293C25.688 33.8257 25.4946 33.1401 25.7982 32.598L26.6177 31.1348C26.9213 30.5927 27.6069 30.3994 28.149 30.703Z" fill="#55C4E4"/>
</svg>
