<svg width="36" height="36" viewBox="0 0 36 36" fill="none" xmlns="http://www.w3.org/2000/svg">
<path fill-rule="evenodd" clip-rule="evenodd" d="M22.6273 28.0488L25.4609 29.7863L27.0159 29.5025C27.4234 29.4282 27.814 29.6983 27.8883 30.1057C27.9574 30.484 27.7296 30.8476 27.3707 30.9574C27.7155 31.1766 27.8219 31.6326 27.6075 31.9822C27.3977 32.3244 26.9576 32.439 26.6092 32.2487L26.6155 32.2669C26.7518 32.6581 26.5452 33.0856 26.1541 33.2219C25.7629 33.3582 25.3353 33.1516 25.1991 32.7604L24.5898 31.0116L23.3761 30.2675L23.3761 31.8175L24.4581 33.1882C24.7147 33.5133 24.6592 33.9849 24.334 34.2416C24.0456 34.4693 23.6418 34.4512 23.3751 34.2172C23.3547 34.6131 23.0272 34.9279 22.6261 34.9279C22.2251 34.9279 21.8976 34.6131 21.8771 34.2172C21.6105 34.4512 21.2067 34.4693 20.9182 34.2416C20.5931 33.9849 20.5376 33.5133 20.7942 33.1882L21.8761 31.8175L21.8761 30.2634L20.6748 30.9956L20.102 32.6396C19.9657 33.0308 19.5381 33.2374 19.147 33.1011C18.78 32.9732 18.5755 32.589 18.6641 32.219C18.3173 32.3989 17.8855 32.2819 17.6791 31.9432C17.4635 31.5895 17.5754 31.128 17.9291 30.9125L18.0187 30.8579L18.0159 30.8573C17.6084 30.783 17.3384 30.3924 17.4127 29.9849C17.4871 29.5774 17.8777 29.3074 18.2851 29.3817L19.944 29.6844L22.6273 28.0488Z" fill="#55C4E4"/>
<path fill-rule="evenodd" clip-rule="evenodd" d="M29.2273 12.225C30.3112 13.7119 30.7832 15.5756 30.2979 17.6266C32.6839 18.1913 34.082 20.2589 34.1241 22.3485C34.148 23.5344 33.7385 24.7468 32.827 25.6939C31.9121 26.6444 30.5697 27.2488 28.8631 27.372L28.8217 27.375L27.7976 27.3732C27.7019 27.1811 27.5253 27.0322 27.3036 26.9783L27.3229 26.9666C27.6766 26.751 27.7885 26.2895 27.573 25.9358C27.3689 25.601 26.9443 25.4828 26.5995 25.6541C26.7179 25.2703 26.5118 24.8587 26.1294 24.7254C25.7383 24.5891 25.3107 24.7958 25.1744 25.1869L24.585 26.8787L23.7855 27.366L23.3759 27.3653V26.0615L24.4578 24.6909C24.7145 24.3657 24.6589 23.8941 24.3338 23.6375C24.0453 23.4098 23.6415 23.4278 23.3749 23.6619C23.3544 23.2659 23.0269 22.9512 22.6259 22.9512C22.2249 22.9512 21.8973 23.2659 21.8769 23.6619C21.6103 23.4278 21.2065 23.4098 20.918 23.6375C20.5928 23.8941 20.5373 24.3657 20.794 24.6909L21.8759 26.0615V27.3627L21.4336 27.3619L20.7047 26.9176L20.1017 25.1869C19.9655 24.7958 19.5379 24.5891 19.1467 24.7254C18.7556 24.8617 18.549 25.2893 18.6853 25.6804L18.6894 25.6923C18.3443 25.5197 17.9186 25.6377 17.7142 25.9731C17.5039 26.3181 17.6052 26.7656 17.9384 26.9875C17.7397 27.0457 17.5804 27.1815 17.488 27.3549L15.1916 27.3508L15.1607 27.349C10.6369 27.0923 8.05203 24.3506 7.88365 21.2006C7.72508 18.234 9.75219 15.3249 13.4649 14.4553C14.2362 12.0091 15.7906 10.3679 17.6888 9.46643C19.6779 8.52174 21.9724 8.42033 24.0309 8.92439C26.0846 9.42728 28.0142 10.5606 29.2273 12.225Z" fill="#55C4E4"/>
<path fill-rule="evenodd" clip-rule="evenodd" d="M7.55829 1.83474C8.13571 1.60532 8.78977 1.88742 9.01919 2.46483L9.64622 4.04294C9.87564 4.62036 9.59354 5.27442 9.01613 5.50385C8.43871 5.73327 7.78465 5.45116 7.55522 4.87375L6.9282 3.29564C6.69878 2.71823 6.98088 2.06416 7.55829 1.83474ZM15.8201 2.0265C16.392 2.26937 16.6587 2.92986 16.4159 3.50174L15.7888 4.97823C15.546 5.55012 14.8855 5.81685 14.3136 5.57398C13.7417 5.33111 13.475 4.67063 13.7178 4.09874L14.3449 2.62225C14.5877 2.05036 15.2482 1.78364 15.8201 2.0265ZM9.36156 6.38922C11.6469 5.46747 14.1582 6.06523 15.8 7.69616L16.7924 8.68194L15.6168 9.43983C14.263 10.3125 13.2804 11.6963 12.8877 13.2673L12.7379 13.8664L11.9929 14.1148C10.8063 14.5103 9.71082 15.1393 8.77104 15.9646L7.81763 16.802L7.07601 15.9456C6.64353 15.4462 6.28694 14.8673 6.03026 14.2213C4.80512 11.1378 6.28779 7.62894 9.36156 6.38922ZM1.70469 7.71513C1.95102 7.14473 2.61311 6.88202 3.18352 7.12835L4.64858 7.76105C5.21898 8.00738 5.48169 8.66948 5.23536 9.23988C4.98903 9.81028 4.32693 10.073 3.75653 9.82666L2.29146 9.19396C1.72106 8.94763 1.45835 8.28553 1.70469 7.71513ZM5.10894 14.5991C5.34134 15.1753 5.06263 15.8308 4.48641 16.0632L2.9813 16.6703C2.40508 16.9027 1.74957 16.624 1.51716 16.0477C1.28476 15.4715 1.56348 14.816 2.1397 14.5836L3.6448 13.9766C4.22102 13.7441 4.87654 14.0229 5.10894 14.5991Z" fill="#E96400"/>
</svg>
