<svg width="36" height="36" viewBox="0 0 36 36" fill="none" xmlns="http://www.w3.org/2000/svg">
<path fill-rule="evenodd" clip-rule="evenodd" d="M22.6268 27.6211L25.4604 29.3585L27.0154 29.0748C27.4229 29.0005 27.8135 29.2705 27.8879 29.678C27.9569 30.0562 27.7292 30.4199 27.3702 30.5296C27.715 30.7488 27.8214 31.2049 27.607 31.5545C27.3972 31.8967 26.9571 32.0112 26.6087 31.821L26.6151 31.8392C26.7513 32.2303 26.5447 32.6579 26.1536 32.7942C25.7624 32.9305 25.3348 32.7239 25.1986 32.3327L24.5893 30.5839L23.3756 29.8398L23.3756 31.3898L24.4576 32.7604C24.7142 33.0856 24.6587 33.5572 24.3336 33.8138C24.0451 34.0415 23.6413 34.0235 23.3746 33.7894C23.3542 34.1854 23.0267 34.5001 22.6256 34.5001C22.2246 34.5001 21.8971 34.1854 21.8767 33.7894C21.61 34.0235 21.2062 34.0415 20.9177 33.8138C20.5926 33.5572 20.5371 33.0856 20.7937 32.7604L21.8756 31.3898L21.8756 29.8356L20.6743 30.5679L20.1015 32.2119C19.9652 32.603 19.5377 32.8096 19.1465 32.6734C18.7796 32.5455 18.575 32.1613 18.6636 31.7913C18.3168 31.9712 17.885 31.8541 17.6786 31.5155C17.463 31.1618 17.5749 30.7003 17.9286 30.4847L18.0182 30.4301L18.0154 30.4296C17.6079 30.3553 17.3379 29.9647 17.4122 29.5572C17.4866 29.1497 17.8772 28.8796 18.2847 28.954L19.9435 29.2566L22.6268 27.6211Z" fill="#55C4E4"/>
<path fill-rule="evenodd" clip-rule="evenodd" d="M30.362 11.8436C31.4769 13.39 31.9623 15.3283 31.4631 17.4612C33.9173 18.0485 35.3553 20.1988 35.3986 22.372C35.4232 23.6054 35.002 24.8663 34.0644 25.8512C33.1235 26.8398 31.7427 27.4684 29.9874 27.5965L29.9447 27.5996L27.7937 27.5957C27.826 27.5323 27.8498 27.4631 27.8632 27.3895C27.9349 26.9965 27.6864 26.6193 27.3032 26.5262L27.3224 26.5145C27.6761 26.2989 27.7881 25.8374 27.5725 25.4837C27.3684 25.1488 26.9438 25.0306 26.5991 25.202C26.7174 24.8181 26.5113 24.4065 26.1289 24.2733C25.7378 24.137 25.3102 24.3436 25.1739 24.7348L24.5845 26.4266L23.3754 27.1636V25.6094L24.4573 24.2387C24.714 23.9136 24.6584 23.442 24.3333 23.1853C24.0448 22.9576 23.641 22.9757 23.3744 23.2097C23.354 22.8138 23.0264 22.499 22.6254 22.499C22.2244 22.499 21.8968 22.8138 21.8764 23.2097C21.6098 22.9757 21.206 22.9576 20.9175 23.1853C20.5924 23.442 20.5368 23.9136 20.7935 24.2387L21.8754 25.6094V27.1793L20.7042 26.4655L20.1013 24.7348C19.965 24.3436 19.5374 24.137 19.1463 24.2733C18.7551 24.4096 18.5485 24.8371 18.6848 25.2283L18.6889 25.2402C18.3438 25.0675 17.9181 25.1855 17.7137 25.521C17.5034 25.8659 17.6047 26.3134 17.9379 26.5353C17.5742 26.6419 17.3424 27.0083 17.412 27.3895C17.4241 27.456 17.4447 27.5189 17.4724 27.5772L15.9253 27.5744L15.8935 27.5726C11.2405 27.3056 8.58175 24.4543 8.40856 21.1782C8.24545 18.093 10.3305 15.0675 14.1493 14.1631C14.9426 11.6191 16.5413 9.91227 18.4938 8.9747C20.5398 7.99222 22.8997 7.88675 25.0171 8.41097C27.1295 8.93398 29.1141 10.1127 30.362 11.8436Z" fill="#55C4E4"/>
<path fill-rule="evenodd" clip-rule="evenodd" d="M10.097 1.47029C9.40761 2.12387 9.77511 3.37467 10.0421 3.86207L10.0429 3.86355C10.385 4.48549 10.591 5.17489 10.624 5.91444L10.6242 5.91793C10.7571 8.65754 8.35876 11.1524 5.26137 11.4322C4.8024 11.474 4.36174 11.4684 3.9325 11.422L3.93597 11.4224C3.58669 11.3835 3.21574 11.3873 2.86562 11.481C2.50681 11.5769 2.11281 11.7869 1.87652 12.1808C1.64115 12.5732 1.66079 12.9839 1.76338 13.3047C1.86368 13.6183 2.05632 13.9005 2.27696 14.144C3.29018 15.2717 4.94566 16.647 6.49226 17.1359C6.90538 17.2665 7.36686 17.155 7.65846 16.8542L7.89675 16.6083C8.90225 15.5709 9.92329 14.3186 11.3908 13.9705L12.364 13.7397C12.7166 13.656 13.0008 13.4164 13.1194 13.1028L13.4731 12.1672C13.9886 10.8037 14.961 9.61794 16.2526 8.77781L17.4542 7.99622C17.8233 7.75616 17.9906 7.33351 17.8731 6.93802C17.1217 4.4093 14.9258 2.0397 12.2504 1.17696C11.6927 0.996359 10.7518 0.849528 10.097 1.47029Z" fill="#969CA8"/>
</svg>
