<svg width="36" height="36" viewBox="0 0 36 36" fill="none" xmlns="http://www.w3.org/2000/svg">
<path fill-rule="evenodd" clip-rule="evenodd" d="M31.0533 18.1227C31.5519 15.9594 31.066 13.9936 29.9511 12.4254C28.703 10.6699 26.7184 9.4748 24.6063 8.94456C22.4894 8.41308 20.1299 8.52005 18.0842 9.51627C16.1322 10.4669 14.5332 12.1977 13.7397 14.778C9.71226 15.7456 7.61525 19.1081 8.04428 22.3939C8.26549 24.0881 9.15944 25.6867 10.701 26.8074C12.2382 27.9248 14.353 28.5229 16.9775 28.3801C18.4555 28.2997 21.6835 28.3409 24.5549 28.3775C25.9869 28.3958 27.3302 28.4129 28.3234 28.4133C30.3428 28.5232 31.9628 28.0484 33.1226 27.1237C34.2937 26.1899 34.8935 24.8754 34.9787 23.5425C35.1288 21.1938 33.6707 18.7577 31.0533 18.1227Z" fill="#55C4E4"/>
<path fill-rule="evenodd" clip-rule="evenodd" d="M9.95742 1.63842C9.25901 2.24351 9.56165 3.47498 9.79982 3.96024L9.80055 3.96171C10.1059 4.58099 10.2761 5.25988 10.276 5.97999L10.276 5.98338C10.2858 8.65139 7.84653 10.9713 4.82444 11.1083C4.37662 11.1289 3.94865 11.1043 3.53355 11.0405L3.53692 11.041C3.1992 10.988 2.83856 10.9756 2.49425 11.0513C2.14139 11.1289 1.74938 11.3158 1.5026 11.6883C1.25679 12.0594 1.25798 12.4594 1.3437 12.7755C1.42751 13.0846 1.60242 13.3673 1.80622 13.6135C2.7417 14.7535 4.29051 16.162 5.77212 16.7045C6.16788 16.8494 6.62118 16.7612 6.91765 16.4815L7.15991 16.253C8.1822 15.2887 9.22895 14.1162 10.6702 13.8419L11.6259 13.6599C11.9722 13.594 12.2588 13.3736 12.3877 13.0739L12.7722 12.1802C13.3325 10.8777 14.3291 9.76777 15.6208 9.00764L16.8226 8.30046C17.1917 8.08326 17.3726 7.67984 17.2757 7.2904C16.6557 4.80039 14.625 2.40208 12.0628 1.44717C11.5286 1.24738 10.6208 1.06371 9.95742 1.63842Z" fill="#969CA8"/>
<path fill-rule="evenodd" clip-rule="evenodd" d="M17.0826 29.3367C17.622 29.6452 17.8091 30.3325 17.5006 30.8718L15.8352 33.7833C15.5267 34.3226 14.8394 34.5097 14.3 34.2012C13.7607 33.8927 13.5736 33.2054 13.8821 32.6661L15.5475 29.7547C15.856 29.2153 16.5433 29.0282 17.0826 29.3367Z" fill="#55C4E4"/>
<path fill-rule="evenodd" clip-rule="evenodd" d="M25.4828 29.4852C26.0221 29.7937 26.2092 30.481 25.9007 31.0203L24.2353 33.9317C23.9268 34.471 23.2395 34.6581 22.7002 34.3496C22.1609 34.0411 21.9738 33.3538 22.2823 32.8145L23.9477 29.9031C24.2562 29.3638 24.9435 29.1767 25.4828 29.4852Z" fill="#55C4E4"/>
<path fill-rule="evenodd" clip-rule="evenodd" d="M20.4107 31.2147C20.9528 31.5183 21.1461 32.2039 20.8425 32.746L20.0231 34.2092C19.7195 34.7513 19.0339 34.9446 18.4918 34.641C17.9497 34.3374 17.7564 33.6518 18.06 33.1098L18.8794 31.6465C19.183 31.1045 19.8686 30.9111 20.4107 31.2147Z" fill="#55C4E4"/>
<path fill-rule="evenodd" clip-rule="evenodd" d="M29.2252 31.3827C29.7672 31.6863 29.9606 32.3719 29.657 32.9139L28.8375 34.3772C28.5339 34.9192 27.8483 35.1126 27.3063 34.809C26.7642 34.5054 26.5708 33.8198 26.8744 33.2777L27.6939 31.8145C27.9975 31.2724 28.6831 31.0791 29.2252 31.3827Z" fill="#55C4E4"/>
</svg>
