<svg width="16" height="16" viewBox="0 0 16 16" fill="none" xmlns="http://www.w3.org/2000/svg">
<path fill-rule="evenodd" clip-rule="evenodd" d="M7.99992 15.2729C8.41721 15.8738 8.41813 15.8731 8.41813 15.8731L8.41959 15.8721L8.42413 15.8691L8.43952 15.8586C8.45254 15.8498 8.47103 15.8371 8.49463 15.8206C8.54182 15.7878 8.60947 15.7401 8.69465 15.6784C8.86494 15.5549 9.10575 15.3748 9.39361 15.1446C9.96819 14.6852 10.736 14.0215 11.5063 13.2051C13.0185 11.6023 14.6666 9.27804 14.6666 6.67774C14.6666 4.9119 13.9682 3.21519 12.7198 1.96168C11.4709 0.70761 9.77347 0 7.99992 0C6.22637 0 4.52892 0.70761 3.28002 1.96168C2.03168 3.21519 1.33325 4.9119 1.33325 6.67774C1.33325 9.27804 2.98135 11.6023 4.49354 13.2051C5.26379 14.0215 6.03165 14.6852 6.60623 15.1446C6.89409 15.3748 7.1349 15.5549 7.30519 15.6784C7.39037 15.7401 7.45802 15.7878 7.50521 15.8206C7.52881 15.8371 7.5473 15.8498 7.56032 15.8586L7.57571 15.8691L7.58025 15.8721L7.58224 15.8735C7.83396 16.042 8.16549 16.0423 8.41721 15.8738L7.99992 15.2729ZM7.58224 15.8735C7.58224 15.8735 7.58263 15.8738 7.99992 15.2729L7.58224 15.8735ZM9.97535 6.67813C9.97535 7.77358 9.09097 8.66162 8.00004 8.66162C6.90911 8.66162 6.02473 7.77358 6.02473 6.67813C6.02473 5.58268 6.90911 4.69464 8.00004 4.69464C9.09097 4.69464 9.97535 5.58268 9.97535 6.67813Z" fill="black"/>
</svg>
