<svg width="24" height="40" viewBox="0 0 24 40" fill="none" xmlns="http://www.w3.org/2000/svg">
<rect x="9" y="33" width="6" height="6" rx="3" fill="black"/>
<path fill-rule="evenodd" clip-rule="evenodd" d="M12 22.9093C12.6259 23.8106 12.6273 23.8097 12.6273 23.8097L12.6295 23.8082L12.6363 23.8036L12.6594 23.788C12.6789 23.7746 12.7067 23.7556 12.7421 23.731C12.8129 23.6817 12.9143 23.6102 13.0421 23.5175C13.2975 23.3323 13.6587 23.0622 14.0905 22.7169C14.9524 22.0278 16.1042 21.0322 17.2596 19.8076C19.5279 17.4034 22 13.9171 22 10.0166C22 7.36785 20.9524 4.82278 19.0798 2.94251C17.2065 1.06142 14.6603 0 12 0C9.33968 0 6.7935 1.06141 4.92015 2.94251C3.04764 4.82278 2 7.36785 2 10.0166C2 13.9171 4.47215 17.4034 6.74042 19.8076C7.89581 21.0322 9.0476 22.0278 9.90947 22.7169C10.3413 23.0622 10.7025 23.3323 10.9579 23.5175C11.0857 23.6102 11.1871 23.6817 11.2579 23.731C11.2933 23.7556 11.3211 23.7746 11.3406 23.788L11.3637 23.8036L11.3705 23.8082L11.3735 23.8102C11.7511 24.063 12.2483 24.0634 12.6259 23.8106L12 22.9093ZM11.3735 23.8102C11.3735 23.8102 11.3741 23.8106 12 22.9093L11.3735 23.8102ZM14.9631 10.0172C14.9631 11.6604 13.6366 12.9924 12.0002 12.9924C10.3638 12.9924 9.03722 11.6604 9.03722 10.0172C9.03722 8.37402 10.3638 7.04196 12.0002 7.04196C13.6366 7.04196 14.9631 8.37402 14.9631 10.0172Z" fill="black"/>
</svg>
