<svg width="24" height="24" viewBox="0 0 24 24" fill="none" xmlns="http://www.w3.org/2000/svg">
<path d="M11.8549 14.5675L12.7735 15.7075L13.6921 14.5675M15.1799 15.4415L14.6846 16.8342L16.0985 17.0869M10.3852 15.4415L10.8805 16.8342L9.46655 17.0869M10.3852 20.4955L10.8805 19.1028L9.46655 18.85M15.1979 20.5829L14.7026 19.1902L16.1165 18.9375M11.8549 21.4075L12.7735 20.2675L13.6921 21.4075M12.7735 14.1875L12.7735 21.7875M15.9557 16.0875L9.59139 19.8875M15.9818 19.9145L9.6175 16.1145" stroke="#55C4E4" stroke-linecap="round"/>
<path d="M7.42764 15.764C0.993747 15.3926 1.007 8.0848 6.61043 7.0927C6.69057 7.07851 6.75848 7.01463 6.77848 6.93574C8.75277 -0.848787 20.7744 2.67971 18.2826 9.32796C18.2309 9.46598 18.333 9.62298 18.4803 9.62928C22.2354 9.78995 22.8812 15.4368 18.1608 15.7834" stroke="#55C4E4" stroke-width="1.5" stroke-linecap="round"/>
</svg>
