<svg width="24" height="24" viewBox="0 0 24 24" fill="none" xmlns="http://www.w3.org/2000/svg">
<path d="M13.7818 11.6719C13.7166 11.4925 13.5409 11.391 13.3529 11.4243C12.367 11.5892 9.35767 12.2465 8.16027 14.3448C7.18251 16.0383 7.66078 18.1573 9.23236 19.0647C10.8039 19.972 12.876 19.3305 13.8537 17.637C15.0477 15.5772 14.1263 12.61 13.7818 11.6719Z" stroke="#55C4E4" stroke-width="1.5" stroke-miterlimit="10"/>
<path d="M21.2644 8.06952C21.2202 7.94792 21.1011 7.87912 20.9737 7.90166C20.3054 8.01344 18.2655 8.45899 17.4538 9.88135C16.791 11.0293 17.1152 12.4657 18.1805 13.0808C19.2458 13.6958 20.6504 13.261 21.3132 12.113C22.1225 10.7167 21.4979 8.70537 21.2644 8.06952Z" stroke="#55C4E4" stroke-width="1.5" stroke-miterlimit="10"/>
<path d="M7.85053 4.70977C7.79897 4.56789 7.65995 4.48762 7.5113 4.51392C6.73158 4.64434 4.35155 5.16417 3.40455 6.82369C2.63126 8.16307 3.00951 9.83895 4.25244 10.5566C5.49538 11.2742 7.13411 10.7668 7.9074 9.42742C8.85165 7.79835 8.12292 5.45164 7.85053 4.70977Z" stroke="#55C4E4" stroke-width="1.5" stroke-miterlimit="10"/>
</svg>
