<svg width="36" height="36" viewBox="0 0 36 36" fill="none" xmlns="http://www.w3.org/2000/svg">
<path fill-rule="evenodd" clip-rule="evenodd" d="M30.3622 11.6912C31.4771 13.2376 31.9626 15.1759 31.4634 17.3089C33.9175 17.8962 35.3556 20.0465 35.3989 22.2197C35.4235 23.4531 35.0023 24.7139 34.0647 25.6989C33.1237 26.6874 31.7429 27.316 29.9876 27.4442L29.945 27.4473L27.0314 27.442C26.7598 26.9099 26.4431 26.4214 26.1221 25.9874C25.2427 24.7989 24.2453 23.9054 23.743 23.4886C23.1921 23.0294 22.4023 23.0285 21.8505 23.486C21.3458 23.8998 20.3472 24.7816 19.4685 25.9655C19.1455 26.4007 18.8279 26.8912 18.5566 27.4268L15.9255 27.4221L15.8938 27.4203C11.2407 27.1533 8.58199 24.3019 8.4088 21.0259C8.2457 17.9406 10.3307 14.9152 14.1495 14.0108C14.9428 11.4667 16.5416 9.75992 18.494 8.82235C20.54 7.83987 22.9 7.73441 25.0173 8.25863C27.1297 8.78164 29.1144 9.96034 30.3622 11.6912Z" fill="#55C4E4"/>
<path fill-rule="evenodd" clip-rule="evenodd" d="M10.0978 1.47029C9.40834 2.12387 9.77585 3.37467 10.0428 3.86207L10.0436 3.86355C10.3857 4.48549 10.5918 5.17489 10.6248 5.91444L10.6249 5.91793C10.7579 8.65754 8.35949 11.1524 5.2621 11.4322C4.80313 11.474 4.36247 11.4684 3.93323 11.422L3.93671 11.4224C3.58743 11.3835 3.21648 11.3873 2.86635 11.481C2.50754 11.5769 2.11355 11.7869 1.87725 12.1808C1.64188 12.5732 1.66152 12.9839 1.76411 13.3047C1.86442 13.6183 2.05705 13.9005 2.27769 14.144C3.29091 15.2717 4.94639 16.647 6.49299 17.1359C6.90612 17.2665 7.36759 17.155 7.65919 16.8542L7.89748 16.6083C8.90298 15.5709 9.92402 14.3186 11.3915 13.9705L12.3647 13.7397C12.7174 13.656 13.0015 13.4164 13.1201 13.1028L13.4738 12.1672C13.9893 10.8037 14.9617 9.61794 16.2533 8.77781L17.455 7.99622C17.8241 7.75616 17.9913 7.33351 17.8738 6.93802C17.1225 4.4093 14.9265 2.0397 12.2512 1.17696C11.6934 0.996359 10.7526 0.849528 10.0978 1.47029Z" fill="#969CA8"/>
<path fill-rule="evenodd" clip-rule="evenodd" d="M22.7635 25.6504C23.1935 26.0405 23.7987 26.6459 24.3376 27.385C25.0359 28.3427 25.5469 29.4208 25.5451 30.4835L25.5451 30.4851C25.5451 32.258 24.2361 33.579 22.7701 33.579C21.3056 33.579 19.9952 32.2546 19.9952 30.4801L19.9952 30.4754C19.9897 29.3921 20.4989 28.3146 21.1922 27.3668C21.7288 26.6333 22.3328 26.0362 22.7635 25.6504Z" fill="#55C4E4"/>
</svg>
