<svg width="36" height="36" viewBox="0 0 36 36" fill="none" xmlns="http://www.w3.org/2000/svg">
<g clip-path="url(#clip0_1864_5734)">
<path d="M20.6727 17.5076C20.575 17.2385 20.3113 17.0863 20.0294 17.1361C18.5505 17.3835 14.0365 18.3694 12.2404 21.5169C10.7738 24.0572 11.4912 27.2357 13.8485 28.5967C16.2059 29.9578 19.314 28.9955 20.7806 26.4552C22.5715 23.3655 21.1894 18.9146 20.6727 17.5076Z" fill="#55C4E4"/>
<path fill-rule="evenodd" clip-rule="evenodd" d="M19.8399 16.0262C20.657 15.8848 21.4454 16.3411 21.7296 17.1206C22.0046 17.8698 22.5104 19.4274 22.7103 21.225C22.908 23.0032 22.8242 25.1716 21.7546 27.0175C20.0182 30.0241 16.2499 31.2811 13.2862 29.57C10.3215 27.8584 9.53144 23.9611 11.2649 20.9558C12.3353 19.0819 14.1655 17.9216 15.8042 17.2068C17.4572 16.4857 19.0529 16.158 19.8399 16.0262Z" fill="#55C4E4"/>
<path d="M11.7758 7.06465C11.6985 6.85183 11.4899 6.73144 11.2669 6.77087C10.0974 6.96651 6.52732 7.74626 5.10682 10.2355C3.94689 12.2446 4.51426 14.7584 6.37866 15.8348C8.24306 16.9112 10.7012 16.1502 11.8611 14.1411C13.2775 11.6975 12.1844 8.17746 11.7758 7.06465Z" fill="#55C4E4"/>
<path fill-rule="evenodd" clip-rule="evenodd" d="M12.8327 6.67736C13.0536 7.27942 13.4601 8.53077 13.6211 9.97819C13.7799 11.4062 13.7174 13.1804 12.835 14.7033C11.4052 17.1786 8.28699 18.2342 5.81632 16.8078C3.34465 15.3808 2.70455 12.1482 4.13128 9.67418C5.01387 8.12933 6.51421 7.18516 7.83133 6.61062C9.16283 6.0298 10.4454 5.76658 11.0777 5.66062C11.8358 5.5297 12.5689 5.95415 12.8327 6.67736Z" fill="#55C4E4"/>
<path d="M31.8966 12.1043C31.8303 11.9219 31.6516 11.8187 31.4605 11.8525C30.4581 12.0202 27.3982 12.6885 26.1807 14.822C25.1865 16.544 25.6728 18.6986 27.2708 19.6212C28.8687 20.5437 30.9756 19.8914 31.9697 18.1695C33.1837 16.0751 32.2468 13.0581 31.8966 12.1043Z" fill="#55C4E4"/>
<path fill-rule="evenodd" clip-rule="evenodd" d="M32.9532 11.717C33.145 12.2395 33.4979 13.3254 33.6378 14.5835C33.7755 15.822 33.7246 17.383 32.9436 18.7312C31.6798 20.9197 28.9126 21.8668 26.7082 20.5941C24.503 19.3209 23.9439 16.4476 25.2049 14.2607C25.986 12.8937 27.308 12.0663 28.4513 11.5676C29.6091 11.0626 30.7224 10.8342 31.2711 10.7422C31.9973 10.617 32.7006 11.0242 32.9532 11.717Z" fill="#55C4E4"/>
</g>
<defs>
<clipPath id="clip0_1864_5734">
<rect width="36" height="36" fill="white"/>
</clipPath>
</defs>
</svg>
