<svg width="24" height="24" viewBox="0 0 24 24" fill="none" xmlns="http://www.w3.org/2000/svg">
<path d="M7.42764 15.764C0.993746 15.3927 1.007 8.0848 6.61043 7.0927C6.69058 7.07851 6.75848 7.01464 6.77849 6.93574C8.75277 -0.848789 20.7744 2.67971 18.2826 9.32796C18.2309 9.46599 18.333 9.62299 18.4803 9.62929C22.2354 9.78995 22.8812 15.4368 18.1608 15.7834" stroke="#55C4E4" stroke-width="1.5" stroke-linecap="round"/>
<path d="M12.8761 13.9802C12.7494 13.8738 12.5735 13.8738 12.4468 13.9802C11.7783 14.5312 9.80443 16.3286 9.81498 18.4224C9.81498 20.1172 11.0922 21.5004 12.665 21.5004C14.2377 21.5004 15.5149 20.121 15.5149 18.4262C15.5185 16.3628 13.5411 14.535 12.8761 13.9802Z" stroke="#55C4E4" stroke-width="1.5" stroke-miterlimit="10"/>
</svg>
