<svg width="24" height="60" viewBox="0 0 24 60" fill="none" xmlns="http://www.w3.org/2000/svg">
<g clip-path="url(#clip0_161_10012)">
<path d="M5 2H19C19.2652 2 19.5196 2.10536 19.7071 2.29289C19.8946 2.48043 20 2.73478 20 3V22.143C20.0001 22.2324 19.9763 22.3202 19.9309 22.3973C19.8855 22.4743 19.8204 22.5378 19.7421 22.5811C19.6639 22.6244 19.5755 22.6459 19.4861 22.6434C19.3968 22.641 19.3097 22.6146 19.234 22.567L12 18.03L4.766 22.566C4.69037 22.6135 4.60339 22.6399 4.5141 22.6424C4.42482 22.6449 4.33649 22.6235 4.2583 22.5803C4.1801 22.5371 4.11491 22.4738 4.06948 22.3969C4.02406 22.32 4.00007 22.2323 4 22.143V3C4 2.73478 4.10536 2.48043 4.29289 2.29289C4.48043 2.10536 4.73478 2 5 2Z" fill="black"/>
</g>
<g clip-path="url(#clip1_161_10012)">
<path d="M21.7674 55.0814H2.23254V53.1279H3.20929V46.321C3.20929 41.449 7.14557 37.5 12 37.5C16.8544 37.5 20.7907 41.449 20.7907 46.321V53.1279H21.7674V55.0814ZM9.55813 56.0581H14.4418C14.4418 56.7058 14.1846 57.3269 13.7266 57.7848C13.2687 58.2427 12.6476 58.5 12 58.5C11.3524 58.5 10.7313 58.2427 10.2733 57.7848C9.81539 57.3269 9.55813 56.7058 9.55813 56.0581Z" fill="black"/>
</g>
<defs>
<clipPath id="clip0_161_10012">
<rect width="24" height="24" fill="white"/>
</clipPath>
<clipPath id="clip1_161_10012">
<rect width="24" height="24" fill="white" transform="translate(0 36)"/>
</clipPath>
</defs>
</svg>
