<svg width="36" height="36" viewBox="0 0 36 36" fill="none" xmlns="http://www.w3.org/2000/svg">
<path fill-rule="evenodd" clip-rule="evenodd" d="M30.3354 15.4362C31.5071 17.0675 32.003 19.1117 31.4408 21.3626C34.2276 21.9708 35.7782 24.4806 35.6314 26.8924C35.5488 28.2513 34.9312 29.5957 33.7135 30.5535C32.5058 31.5035 30.8073 31.9981 28.6739 31.8836C27.6231 31.8832 26.1994 31.8654 24.6805 31.8464C21.632 31.8082 18.1998 31.7653 16.6288 31.8492C13.8579 31.9971 11.6357 31.3761 10.0268 30.2264C8.41412 29.074 7.48459 27.4344 7.25635 25.7021C6.813 22.3373 9.01124 18.8688 13.2768 17.8895C14.1022 15.2004 15.7864 13.4014 17.8477 12.4155C19.9995 11.3863 22.4868 11.2761 24.7197 11.8297C26.9481 12.382 29.0333 13.6233 30.3354 15.4362Z" fill="#55C4E4"/>
<path fill-rule="evenodd" clip-rule="evenodd" d="M9.19978 4.90566C8.54726 5.59919 8.82208 6.51483 9.08616 7.02864L9.08697 7.0302C9.42535 7.68586 9.63406 8.41336 9.67716 9.19462L9.67737 9.1983C9.8474 12.0923 7.58077 14.7386 4.60814 15.0477C4.16766 15.0938 3.74404 15.0898 3.33078 15.0426L3.33413 15.043C2.99783 15.0034 2.64136 15.0091 2.3063 15.1095C1.96291 15.2124 1.58748 15.4359 1.36645 15.8532C1.14628 16.2688 1.1715 16.7027 1.27504 17.0411C1.37629 17.3721 1.56579 17.6694 1.7816 17.9257C2.77282 19.1128 4.08734 20.0199 5.58134 20.5299C5.98042 20.6661 6.42223 20.5463 6.69785 20.2272L6.92308 19.9664C7.87348 18.8659 9.1333 18.0773 10.5384 17.7031L11.4702 17.455C11.8078 17.3651 12.0772 17.1108 12.1863 16.7788L12.5119 15.7888C12.9863 14.346 13.9026 13.0889 15.131 12.1957L16.2739 11.3647C16.6249 11.1095 16.7792 10.6622 16.6601 10.2448C15.899 7.57631 13.8496 5.48646 11.2649 4.58645C10.7261 4.39803 9.81955 4.24695 9.19978 4.90566Z" fill="#969CA8"/>
</svg>
