<svg width="36" height="36" viewBox="0 0 36 36" fill="none" xmlns="http://www.w3.org/2000/svg">
<path fill-rule="evenodd" clip-rule="evenodd" d="M7.45177 1.86036C7.95857 1.66905 8.51941 1.93873 8.70445 2.4627L9.21018 3.89476C9.39522 4.41873 9.13439 4.99859 8.62759 5.1899C8.1208 5.38121 7.55995 5.11154 7.37491 4.58757L6.86918 3.1555C6.68414 2.63153 6.94497 2.05168 7.45177 1.86036ZM14.6184 2.241C15.1088 2.47338 15.3242 3.07285 15.0995 3.57995L14.5192 4.88916C14.2944 5.39625 13.7146 5.61894 13.2241 5.38656C12.7336 5.15417 12.5182 4.5547 12.743 4.0476L13.3233 2.73839C13.5481 2.2313 14.1279 2.00861 14.6184 2.241ZM8.90581 5.99318C10.912 5.22366 13.0773 5.82349 14.4625 7.32857L15.2998 8.23827L14.2609 8.88875C13.0645 9.63778 12.1778 10.8548 11.7986 12.2547L11.6539 12.7886L11.0012 12.9927C9.96156 13.3177 8.99536 13.8545 8.15947 14.5715L7.31147 15.2988L6.68865 14.5116C6.32545 14.0525 6.03006 13.524 5.82303 12.9378C4.83488 10.1397 6.20751 7.02814 8.90581 5.99318ZM2.22726 6.98981C2.45501 6.48413 3.03612 6.26508 3.52522 6.50055L4.78145 7.10533C5.27055 7.34079 5.48242 7.9416 5.25467 8.44727C5.02693 8.95295 4.44582 9.172 3.95672 8.93653L2.70049 8.33175C2.21139 8.09629 1.99952 7.49548 2.22726 6.98981ZM5.0141 13.2535C5.20176 13.7765 4.94383 14.3578 4.438 14.5518L3.11674 15.0586C2.61091 15.2526 2.04872 14.9859 1.86107 14.4629C1.67341 13.94 1.93134 13.3587 2.43717 13.1647L3.75843 12.6579C4.26426 12.4639 4.82645 12.7306 5.0141 13.2535Z" fill="#E96400"/>
<path fill-rule="evenodd" clip-rule="evenodd" d="M29.9767 17.4431C30.4753 15.2798 29.9894 13.3139 28.8744 11.7457C27.6263 9.99024 25.6417 8.79511 23.5297 8.26487C21.4127 7.73339 19.0532 7.84036 17.0076 8.83658C15.0555 9.78723 13.4566 11.518 12.663 14.0983C8.6356 15.0659 6.53859 18.4284 6.96762 21.7143C7.18883 23.4084 8.08278 25.007 9.62437 26.1277C11.1616 27.2451 13.2763 27.8432 15.9009 27.7004C17.3788 27.6201 20.6069 27.6612 23.4782 27.6978C24.9102 27.7161 26.2535 27.7332 27.2468 27.7336C29.2661 27.8435 30.8862 27.3688 32.046 26.444C33.217 25.5102 33.8169 24.1957 33.902 22.8628C34.0521 20.5142 32.594 18.078 29.9767 17.4431Z" fill="#55C4E4"/>
<path fill-rule="evenodd" clip-rule="evenodd" d="M20.0486 29.953C20.5907 30.2566 20.7841 30.9422 20.4805 31.4843L19.661 32.9475C19.3574 33.4896 18.6718 33.6829 18.1297 33.3793C17.5876 33.0757 17.3943 32.3901 17.6979 31.848L18.5174 30.3848C18.821 29.8427 19.5065 29.6494 20.0486 29.953Z" fill="#55C4E4"/>
<path fill-rule="evenodd" clip-rule="evenodd" d="M29.4986 29.953C30.0407 30.2566 30.234 30.9422 29.9304 31.4843L29.111 32.9475C28.8074 33.4896 28.1218 33.6829 27.5797 33.3793C27.0376 33.0757 26.8443 32.3901 27.1479 31.848L27.9673 30.3848C28.2709 29.8427 28.9565 29.6494 29.4986 29.953Z" fill="#55C4E4"/>
<path fill-rule="evenodd" clip-rule="evenodd" d="M12.5999 30.75C12.5999 29.9216 13.2714 29.25 14.0999 29.25H14.1149C14.9433 29.25 15.6149 29.9216 15.6149 30.75C15.6149 31.5784 14.9433 32.25 14.1149 32.25H14.0999C13.2714 32.25 12.5999 31.5784 12.5999 30.75Z" fill="#55C4E4"/>
<path fill-rule="evenodd" clip-rule="evenodd" d="M22.1997 33C22.1997 32.1716 22.8713 31.5 23.6997 31.5H23.7147C24.5431 31.5 25.2147 32.1716 25.2147 33C25.2147 33.8284 24.5431 34.5 23.7147 34.5H23.6997C22.8713 34.5 22.1997 33.8284 22.1997 33Z" fill="#55C4E4"/>
</svg>
