<svg width="36" height="36" viewBox="0 0 36 36" fill="none" xmlns="http://www.w3.org/2000/svg">
<path fill-rule="evenodd" clip-rule="evenodd" d="M29.2273 12.225C30.3112 13.7119 30.7832 15.5756 30.2979 17.6266C32.6839 18.1913 34.082 20.2589 34.1241 22.3485C34.148 23.5344 33.7385 24.7468 32.827 25.6939C31.9121 26.6444 30.5697 27.2488 28.8631 27.372L28.8217 27.375L26.3892 27.3707C26.1456 26.924 25.8729 26.5108 25.597 26.1378C24.7176 24.9493 23.7202 24.0558 23.2179 23.639C22.667 23.1798 21.8772 23.1789 21.3254 23.6363C20.8208 24.0502 19.8221 24.932 18.9434 26.1159C18.6654 26.4905 18.3914 26.906 18.1475 27.356L15.1916 27.3508L15.1607 27.349C10.6369 27.0923 8.05203 24.3506 7.88365 21.2006C7.72508 18.234 9.75219 15.3249 13.4649 14.4553C14.2362 12.0091 15.7906 10.3679 17.6888 9.46643C19.6779 8.52174 21.9724 8.42033 24.0309 8.92439C26.0846 9.42728 28.0142 10.5606 29.2273 12.225Z" fill="#55C4E4"/>
<path fill-rule="evenodd" clip-rule="evenodd" d="M22.3432 25.6504C22.7848 26.0416 23.4063 26.6486 23.9598 27.3897C24.677 28.3499 25.2018 29.431 25.2 30.4966L25.2 30.4982C25.2 32.2758 23.8556 33.6004 22.35 33.6004C20.8459 33.6004 19.5001 32.2724 19.5001 30.4932L19.5 30.4884C19.4945 29.4022 20.0173 28.3218 20.7294 27.3715C21.2805 26.6359 21.9008 26.0372 22.3432 25.6504Z" fill="#55C4E4"/>
<path fill-rule="evenodd" clip-rule="evenodd" d="M7.55805 1.83669C8.13546 1.60727 8.78953 1.88937 9.01895 2.46678L9.64598 4.0449C9.8754 4.62231 9.59329 5.27638 9.01588 5.5058C8.43847 5.73522 7.7844 5.45312 7.55498 4.8757L6.92795 3.29759C6.69853 2.72018 6.98064 2.06611 7.55805 1.83669ZM15.8199 2.02845C16.3918 2.27132 16.6585 2.93181 16.4156 3.5037L15.7886 4.98019C15.5457 5.55207 14.8852 5.8188 14.3133 5.57593C13.7415 5.33307 13.4747 4.67258 13.7176 4.10069L14.3446 2.6242C14.5875 2.05231 15.248 1.78559 15.8199 2.02845ZM9.36131 6.39118C11.6467 5.46943 14.158 6.06718 15.7998 7.69812L16.7921 8.68389L15.6165 9.44179C14.2628 10.3145 13.2802 11.6983 12.8874 13.2692L12.7376 13.8684L11.9926 14.1167C10.806 14.5122 9.71058 15.1412 8.77079 15.9666L7.81739 16.8039L7.07577 15.9476C6.64329 15.4482 6.28669 14.8693 6.03002 14.2233C4.80487 11.1398 6.28754 7.6309 9.36131 6.39118ZM1.70444 7.71708C1.95077 7.14668 2.61287 6.88397 3.18327 7.1303L4.64834 7.763C5.21874 8.00934 5.48145 8.67143 5.23512 9.24183C4.98878 9.81224 4.32669 10.0749 3.75629 9.82861L2.29122 9.19591C1.72082 8.94958 1.45811 8.28749 1.70444 7.71708ZM5.1087 14.601C5.3411 15.1773 5.06238 15.8328 4.48616 16.0652L2.98106 16.6722C2.40484 16.9046 1.74932 16.6259 1.51692 16.0497C1.28452 15.4735 1.56324 14.8179 2.13946 14.5855L3.64456 13.9785C4.22078 13.7461 4.8763 14.0248 5.1087 14.601Z" fill="#E96400"/>
</svg>
