<svg width="36" height="36" viewBox="0 0 36 36" fill="none" xmlns="http://www.w3.org/2000/svg">
<path d="M26.7905 14.639C30.8819 4.59571 13.4233 -0.880223 10.5807 10.746C10.5516 10.8648 10.45 10.9617 10.3297 10.9839C1.96552 12.5236 2.36667 23.7844 12.9976 23.7844L26.6781 14.7766C26.7279 14.7438 26.768 14.6942 26.7905 14.639Z" fill="#55C4E4" stroke="#55C4E4" stroke-width="2.25"/>
<path d="M16.5 30.755L16.7828 30.5807C17.6016 30.0763 18.6089 29.9831 19.5064 30.3286V30.3286C20.2191 30.603 21.0082 30.603 21.7209 30.3286L21.9212 30.2515C22.7051 29.9497 23.5766 29.9702 24.3455 30.3085V30.3085C25.0026 30.5976 25.7381 30.656 26.4325 30.4742L27.2215 30.2676" stroke="#55C4E4" stroke-width="2.25" stroke-linecap="round"/>
<path d="M20.6772 23.4747L21.2483 23.2167C22.2729 22.7538 23.4281 22.6675 24.5101 22.973L24.9899 23.1085C25.8379 23.3479 26.7356 23.3479 27.5836 23.1085L28.575 22.8286C29.3303 22.6153 30.1344 22.6536 30.8661 22.9376V22.9376C31.7527 23.2817 32.7392 23.2627 33.612 22.8846L34.4999 22.5" stroke="#55C4E4" stroke-width="2.25" stroke-linecap="round"/>
</svg>
