<svg width="36" height="36" viewBox="0 0 36 36" fill="none" xmlns="http://www.w3.org/2000/svg">
<path fill-rule="evenodd" clip-rule="evenodd" d="M29.2273 12.225C30.3112 13.7119 30.7832 15.5756 30.2979 17.6266C32.6839 18.1913 34.082 20.2589 34.1241 22.3485C34.148 23.5344 33.7385 24.7468 32.827 25.6939C31.9121 26.6444 30.5697 27.2488 28.8631 27.372L28.8217 27.375L27.0287 27.3718C27.0254 27.3629 27.0221 27.354 27.0187 27.3452C26.8052 26.7924 26.2561 26.2028 25.4079 26.2028H24.8925V22.8438C24.8925 22.1008 24.4835 21.435 23.826 21.144C23.1304 20.8361 22.298 21.0228 21.7946 21.6963L21.7934 21.6978L17.7767 27.0511L17.7717 27.0579C17.7008 27.1539 17.641 27.2534 17.5915 27.355L15.1916 27.3508L15.1607 27.349C10.6369 27.0923 8.05203 24.3506 7.88365 21.2006C7.72508 18.234 9.75219 15.3249 13.4649 14.4553C14.2362 12.0091 15.7906 10.3679 17.6888 9.46643C19.6779 8.52174 21.9724 8.42033 24.0309 8.92439C26.0846 9.42728 28.0142 10.5606 29.2273 12.225Z" fill="#55C4E4"/>
<path fill-rule="evenodd" clip-rule="evenodd" d="M22.8775 23.6992L19.2002 28.2939H20.5496C21.0553 28.2939 21.4653 28.7039 21.4653 29.2096V33.0979L25.1426 28.5032H23.7932C23.2874 28.5032 22.8775 28.0932 22.8775 27.5875V23.6992Z" fill="#DFC60A"/>
<path fill-rule="evenodd" clip-rule="evenodd" d="M7.55829 1.83474C8.13571 1.60532 8.78977 1.88742 9.01919 2.46483L9.64622 4.04294C9.87564 4.62036 9.59354 5.27442 9.01613 5.50385C8.43871 5.73327 7.78465 5.45116 7.55522 4.87375L6.9282 3.29564C6.69878 2.71823 6.98088 2.06416 7.55829 1.83474ZM15.8201 2.0265C16.392 2.26937 16.6587 2.92986 16.4159 3.50174L15.7888 4.97823C15.546 5.55012 14.8855 5.81685 14.3136 5.57398C13.7417 5.33111 13.475 4.67063 13.7178 4.09874L14.3449 2.62225C14.5877 2.05036 15.2482 1.78364 15.8201 2.0265ZM9.36156 6.38922C11.6469 5.46747 14.1582 6.06523 15.8 7.69616L16.7924 8.68194L15.6168 9.43983C14.263 10.3125 13.2804 11.6963 12.8877 13.2673L12.7379 13.8664L11.9929 14.1148C10.8063 14.5103 9.71082 15.1393 8.77104 15.9646L7.81763 16.802L7.07601 15.9456C6.64353 15.4462 6.28694 14.8673 6.03026 14.2213C4.80512 11.1378 6.28779 7.62894 9.36156 6.38922ZM1.70469 7.71513C1.95102 7.14473 2.61311 6.88202 3.18352 7.12835L4.64858 7.76105C5.21898 8.00738 5.48169 8.66948 5.23536 9.23988C4.98903 9.81028 4.32693 10.073 3.75653 9.82666L2.29146 9.19396C1.72106 8.94763 1.45835 8.28553 1.70469 7.71513ZM5.10894 14.5991C5.34134 15.1753 5.06263 15.8308 4.48641 16.0632L2.9813 16.6703C2.40508 16.9027 1.74957 16.624 1.51716 16.0477C1.28476 15.4715 1.56348 14.816 2.1397 14.5836L3.6448 13.9766C4.22102 13.7441 4.87654 14.0229 5.10894 14.5991Z" fill="#E96400"/>
</svg>
