<svg width="16" height="17" viewBox="0 0 16 17" fill="none" xmlns="http://www.w3.org/2000/svg">
<g clip-path="url(#clip0_1346_15715)">
<path d="M3.33341 1.83325H12.6667C12.8436 1.83325 13.0131 1.90349 13.1382 2.02851C13.2632 2.15354 13.3334 2.32311 13.3334 2.49992V15.2619C13.3335 15.3215 13.3176 15.3801 13.2873 15.4314C13.2571 15.4828 13.2137 15.5251 13.1615 15.554C13.1094 15.5828 13.0504 15.5972 12.9908 15.5955C12.9313 15.5939 12.8732 15.5763 12.8227 15.5446L8.00008 12.5199L3.17741 15.5439C3.12699 15.5756 3.06901 15.5932 3.00948 15.5949C2.94996 15.5966 2.89107 15.5823 2.83894 15.5535C2.78682 15.5247 2.74335 15.4825 2.71307 15.4312C2.68279 15.3799 2.66679 15.3215 2.66675 15.2619V2.49992C2.66675 2.32311 2.73699 2.15354 2.86201 2.02851C2.98703 1.90349 3.1566 1.83325 3.33341 1.83325Z" fill="#DFC60A"/>
</g>
<defs>
<clipPath id="clip0_1346_15715">
<rect width="16" height="16" fill="white" transform="translate(0 0.5)"/>
</clipPath>
</defs>
</svg>
