<svg width="36" height="36" viewBox="0 0 36 36" fill="none" xmlns="http://www.w3.org/2000/svg">
<path d="M13.6307 13.4929C9.5254 15.0159 7.42225 19.6052 8.93317 23.7433C9.21225 24.5077 9.59511 25.2032 10.0598 25.8196C10.1627 25.9562 10.36 25.9711 10.4873 25.8569L21.8567 15.6667C21.9827 15.5538 21.9908 15.3586 21.8695 15.2407C19.752 13.1828 16.5762 12.4002 13.6307 13.4929Z" fill="black"/>
<path fill-rule="evenodd" clip-rule="evenodd" d="M10.509 4.94354C11.0926 4.73045 11.7385 5.03083 11.9516 5.61446L12.9 8.21197C13.1131 8.79561 12.8127 9.44148 12.2291 9.65458C11.6454 9.86768 10.9996 9.5673 10.7865 8.98366L9.83806 6.38615C9.62497 5.80252 9.92535 5.15664 10.509 4.94354ZM23.4115 5.61255C23.9764 5.8714 24.2244 6.53913 23.9656 7.10396L22.8773 9.47864C22.6185 10.0435 21.9507 10.2915 21.3859 10.0327C20.8211 9.77382 20.573 9.10609 20.8319 8.54126L21.9201 6.16658C22.179 5.60175 22.8467 5.3537 23.4115 5.61255ZM13.2392 12.4385C16.6083 11.1886 20.2378 12.0867 22.6533 14.4342C23.263 15.0267 23.1968 15.9765 22.6074 16.5048L11.238 26.695C10.6427 27.2286 9.6789 27.1838 9.16124 26.4971C8.63029 25.7928 8.19377 24.9992 7.87622 24.1295C6.15518 19.4159 8.54753 14.179 13.2392 12.4385ZM1.10986 13.8818C1.37214 13.3186 2.04135 13.0746 2.60461 13.3368L4.96043 14.4338C5.52368 14.6961 5.76767 15.3653 5.5054 15.9285C5.24312 16.4918 4.57391 16.7358 4.01065 16.4735L1.65483 15.3766C1.09158 15.1143 0.84759 14.4451 1.10986 13.8818ZM5.03233 25.1906C5.24844 25.7732 4.9514 26.4206 4.36887 26.6367L1.89112 27.5559C1.30859 27.772 0.661172 27.475 0.445062 26.8925C0.228952 26.3099 0.525991 25.6625 1.10852 25.4464L3.58627 24.5272C4.16879 24.3111 4.81622 24.6081 5.03233 25.1906Z" fill="#E96400"/>
<path fill-rule="evenodd" clip-rule="evenodd" d="M23.095 30.5902C22.598 30.3715 22.0347 30.3582 21.528 30.5533L21.3277 30.6305C20.3548 31.005 19.2775 31.005 18.3047 30.6305C17.7349 30.4111 17.0953 30.4703 16.5754 30.7905L16.2926 30.9647C15.7636 31.2906 15.0706 31.126 14.7447 30.597C14.4188 30.068 14.5835 29.375 15.1125 29.0491L15.3953 28.8749C16.513 28.1863 17.8881 28.059 19.1132 28.5307C19.5657 28.7049 20.0667 28.7049 20.5192 28.5307L20.7195 28.4536C21.7807 28.045 22.9604 28.0727 24.0012 28.5307C24.4259 28.7176 24.9013 28.7554 25.3501 28.6378L26.1391 28.4313C26.7402 28.2739 27.355 28.6336 27.5124 29.2346C27.6698 29.8357 27.3101 30.4505 26.709 30.6079L25.92 30.8145C24.98 31.0606 23.9844 30.9815 23.095 30.5902Z" fill="#55C4E4"/>
<path fill-rule="evenodd" clip-rule="evenodd" d="M29.9693 23.2661C29.2847 23.0452 28.5501 23.0316 27.8579 23.2271L27.0918 23.4434C26.0439 23.7393 24.9345 23.7393 23.8866 23.4434L23.4068 23.3079C22.5798 23.0744 21.697 23.1404 20.9139 23.4942L20.3428 23.7522C19.7766 24.0079 19.1102 23.7563 18.8544 23.1901C18.5986 22.6239 18.8503 21.9575 19.4165 21.7017L19.9875 21.4437C21.2537 20.8717 22.6811 20.7651 24.0182 21.1426L24.498 21.2781C25.1461 21.4611 25.8322 21.4611 26.4804 21.2781L27.2465 21.0618C28.3657 20.7457 29.5534 20.7677 30.6602 21.1248L31.1429 21.2806C31.7267 21.469 32.3486 21.5071 32.951 21.3914L34.2878 21.1348C34.898 21.0176 35.4876 21.4173 35.6047 22.0274C35.7219 22.6376 35.3222 23.2272 34.7121 23.3444L33.3752 23.6011C32.4012 23.7881 31.3958 23.7264 30.452 23.4219L29.9693 23.2661Z" fill="#55C4E4"/>
</svg>
