<svg width="24" height="24" viewBox="0 0 24 24" fill="none" xmlns="http://www.w3.org/2000/svg">
<path d="M9.625 15.8H14.3584C15.42 15.8 16.275 14.9454 16.275 13.9C16.275 12.8476 15.4129 12 14.3584 12C13.2967 12 12.4417 12.8546 12.4417 13.9" stroke="#55C4E4" stroke-width="1.5" stroke-miterlimit="10" stroke-linecap="round" stroke-linejoin="round"/>
<path d="M4.875 17.7H12.4584C13.52 17.7 14.375 18.5546 14.375 19.6C14.375 20.6524 13.5129 21.5 12.4584 21.5C11.3967 21.5 10.5417 20.6454 10.5417 19.6" stroke="#55C4E4" stroke-width="1.5" stroke-miterlimit="10" stroke-linecap="round" stroke-linejoin="round"/>
<path d="M7.42764 15.764C0.993746 15.3927 1.007 8.0848 6.61043 7.0927C6.69058 7.07851 6.75848 7.01464 6.77849 6.93574C8.75277 -0.848789 20.7744 2.67971 18.2826 9.32796C18.2309 9.46599 18.333 9.62299 18.4803 9.62929C22.2354 9.78995 22.8812 15.4368 18.1608 15.7834" stroke="#55C4E4" stroke-width="1.5" stroke-linecap="round"/>
</svg>
