<svg width="300" height="154" viewBox="0 0 300 154" fill="none" xmlns="http://www.w3.org/2000/svg">
<path d="M18.6621 131.198C17.5575 131.023 16.8025 129.985 16.994 128.883C22.3749 97.9212 38.3959 69.7822 62.3245 49.3452C86.767 28.4694 117.856 17 150 17C182.144 17 213.233 28.4694 237.676 49.3452C261.604 69.7822 277.625 97.9213 283.006 128.883C283.198 129.985 282.442 131.023 281.338 131.198V131.198C280.233 131.373 279.197 130.619 279.005 129.517C273.776 99.5074 258.241 72.2356 235.045 52.4249C211.336 32.1753 181.18 21.05 150 21.05C118.82 21.05 88.664 32.1753 64.9548 52.4248C41.7594 72.2355 26.2243 99.5073 20.9945 129.517C20.8025 130.618 19.7668 131.373 18.6621 131.198V131.198Z" fill="#EAEAEA"/>
<path d="M18.6621 131.198C17.5575 131.023 16.8025 129.985 16.994 128.883C22.3749 97.9212 38.3959 69.7822 62.3245 49.3452C86.767 28.4694 117.856 17 150 17C182.144 17 213.233 28.4694 237.676 49.3452C261.604 69.7822 277.625 97.9213 283.006 128.883C283.198 129.985 282.442 131.023 281.338 131.198V131.198C280.233 131.373 279.197 130.619 279.005 129.517C273.776 99.5074 258.241 72.2356 235.045 52.4249C211.336 32.1753 181.18 21.05 150 21.05C118.82 21.05 88.664 32.1753 64.9548 52.4248C41.7594 72.2355 26.2243 99.5073 20.9945 129.517C20.8025 130.618 19.7668 131.373 18.6621 131.198V131.198Z" fill="#EAEAEA"/>
<rect x="127" width="36" height="36" rx="18" fill="white"/>
<g clip-path="url(#clip0_794_5304)">
<path fill-rule="evenodd" clip-rule="evenodd" d="M147.671 8.03234C148.056 8.13526 148.284 8.53006 148.181 8.91416L147.75 10.5215C147.647 10.9056 147.252 11.1335 146.868 11.0306C146.484 10.9277 146.256 10.5329 146.359 10.1488L146.79 8.54146C146.893 8.15736 147.287 7.92942 147.671 8.03234ZM153.854 12.889C154.053 13.2333 153.935 13.6737 153.591 13.8725L152.229 14.6588C151.884 14.8576 151.444 14.7396 151.245 14.3953C151.046 14.0509 151.164 13.6105 151.509 13.4117L152.871 12.6254C153.215 12.4266 153.655 12.5446 153.854 12.889ZM139.889 9.14688C140.233 8.94806 140.673 9.06605 140.872 9.41042L141.659 10.7723C141.857 11.1167 141.739 11.5571 141.395 11.7559C141.051 11.9547 140.61 11.8367 140.411 11.4923L139.625 10.1304C139.426 9.78605 139.544 9.34571 139.889 9.14688ZM135.032 15.3297C135.135 14.9456 135.53 14.7177 135.914 14.8206L137.459 15.2347C137.844 15.3376 138.071 15.7324 137.969 16.1165C137.866 16.5006 137.471 16.7285 137.087 16.6256L135.541 16.2115C135.157 16.1086 134.929 15.7138 135.032 15.3297ZM152.032 19.8849C152.135 19.5008 152.53 19.2729 152.914 19.3758L154.46 19.7899C154.844 19.8928 155.072 20.2876 154.969 20.6717C154.866 21.0558 154.471 21.2838 154.087 21.1808L152.542 20.7667C152.157 20.6638 151.929 20.269 152.032 19.8849ZM138.756 21.6062C138.954 21.9505 138.836 22.3909 138.492 22.5897L137.032 23.4326C136.688 23.6314 136.247 23.5134 136.049 23.169C135.85 22.8247 135.968 22.3843 136.312 22.1855L137.772 21.3426C138.116 21.1438 138.557 21.2618 138.756 21.6062ZM148.606 24.2455C148.95 24.0467 149.391 24.1647 149.589 24.5091L150.376 25.871C150.575 26.2154 150.457 26.6557 150.112 26.8545C149.768 27.0533 149.327 26.9353 149.129 26.591L148.342 25.2291C148.144 24.8847 148.262 24.4444 148.606 24.2455ZM143.116 25.0327C143.5 25.1356 143.728 25.5304 143.625 25.9145L143.211 27.4599C143.108 27.844 142.714 28.072 142.329 27.9691C141.945 27.8661 141.717 27.4713 141.82 27.0872L142.234 25.5418C142.337 25.1577 142.732 24.9297 143.116 25.0327Z" fill="#E96400"/>
<path fill-rule="evenodd" clip-rule="evenodd" d="M146.056 14.0598C143.88 13.4766 141.643 14.7683 141.059 16.9448C140.476 19.1214 141.768 21.3586 143.944 21.9418C146.121 22.525 148.358 21.2334 148.941 19.0568C149.525 16.8803 148.233 14.6431 146.056 14.0598ZM139.668 16.5721C140.458 13.6274 143.484 11.8799 146.429 12.6689C149.374 13.458 151.121 16.4848 150.332 19.4295C149.543 22.3742 146.516 24.1218 143.572 23.3327C140.627 22.5437 138.879 19.5169 139.668 16.5721Z" fill="#E96400"/>
</g>
<path d="M18.6621 131.198C17.5575 131.023 16.8024 129.985 16.9939 128.883C21.7542 101.493 34.8592 76.2219 54.5406 56.5406C74.222 36.8592 99.4932 23.7542 126.883 18.9939C127.985 18.8024 129.023 19.5575 129.198 20.6621V20.6621C129.373 21.7668 128.619 22.8025 127.517 22.9945C100.972 27.6206 76.481 40.3278 57.4044 59.4044C38.3278 78.481 25.6206 102.972 20.9945 129.517C20.8025 130.619 19.7668 131.373 18.6621 131.198V131.198Z" fill="url(#paint0_linear_794_5304)"/>
<defs>
<linearGradient id="paint0_linear_794_5304" x1="150" y1="17" x2="15" y2="137" gradientUnits="userSpaceOnUse">
<stop stop-color="#E96400"/>
<stop offset="1" stop-color="#E96400" stop-opacity="0"/>
</linearGradient>
<clipPath id="clip0_794_5304">
<rect x="133.48" y="6.48047" width="23.04" height="23.04" rx="11.52" fill="white"/>
</clipPath>
</defs>
</svg>
