<svg width="16" height="16" viewBox="0 0 16 16" fill="none" xmlns="http://www.w3.org/2000/svg">
<g clip-path="url(#clip0_1156_13459)">
<path d="M3.33341 1.33398H12.6667C12.8436 1.33398 13.0131 1.40422 13.1382 1.52925C13.2632 1.65427 13.3334 1.82384 13.3334 2.00065V14.7627C13.3335 14.8223 13.3176 14.8808 13.2873 14.9322C13.2571 14.9835 13.2137 15.0258 13.1615 15.0547C13.1094 15.0836 13.0504 15.0979 12.9908 15.0963C12.9313 15.0946 12.8732 15.077 12.8227 15.0453L8.00008 12.0207L3.17741 15.0447C3.12699 15.0763 3.06901 15.0939 3.00948 15.0956C2.94996 15.0973 2.89107 15.083 2.83894 15.0542C2.78682 15.0254 2.74335 14.9832 2.71307 14.9319C2.68279 14.8806 2.66679 14.8222 2.66675 14.7627V2.00065C2.66675 1.82384 2.73699 1.65427 2.86201 1.52925C2.98703 1.40422 3.1566 1.33398 3.33341 1.33398ZM12.0001 2.66732H4.00008V12.9553L8.00008 10.448L12.0001 12.9553V2.66732Z" fill="black"/>
</g>
<defs>
<clipPath id="clip0_1156_13459">
<rect width="16" height="16" fill="white"/>
</clipPath>
</defs>
</svg>
