<svg width="24" height="24" viewBox="0 0 24 24" fill="none" xmlns="http://www.w3.org/2000/svg">
<path fill-rule="evenodd" clip-rule="evenodd" d="M10.2146 4.40137C9.12927 4.94603 8.20155 5.97774 7.78251 7.69164C7.69383 8.0543 7.39692 8.34044 7.02327 8.40964C4.62163 8.85444 3.56833 10.7262 3.77558 12.3818C3.87976 13.2141 4.30232 14.0105 5.06802 14.585C5.83404 15.1597 6.99419 15.5482 8.62324 15.457C9.75301 15.3936 12.2365 15.426 14.3657 15.4538C15.3919 15.4672 16.3358 15.4795 17.0061 15.4795H17.0283L17.0504 15.4808C18.2457 15.5516 19.021 15.2559 19.4948 14.8638C19.9696 14.4709 20.2138 13.923 20.2463 13.3436C20.3131 12.1503 19.503 10.984 18.1157 10.9172C17.4636 10.8858 17.0272 10.2248 17.247 9.61469C17.7548 8.20558 17.5174 7.01326 16.8872 6.08583C16.2409 5.13471 15.1477 4.41843 13.8997 4.09208C12.6539 3.76631 11.3203 3.84654 10.2146 4.40137ZM18.8475 9.50453C19.2541 7.88671 18.9268 6.41855 18.1278 5.24276C17.2442 3.94244 15.8165 3.04289 14.2792 2.64088C12.7396 2.23827 11.0236 2.31714 9.54187 3.0607C8.11926 3.7746 6.96993 5.07365 6.41305 7.00601C3.46322 7.70939 1.9913 10.2043 2.2872 12.5681C2.44012 13.7897 3.06543 14.9578 4.16784 15.7849C5.26994 16.6117 6.79814 17.0616 8.70717 16.9546C9.78647 16.8941 12.1442 16.9251 14.2391 16.9526C15.2831 16.9663 16.2617 16.9792 16.9844 16.9795C18.4572 17.0623 19.6257 16.7024 20.4511 16.0195C21.2797 15.3338 21.6906 14.3805 21.7439 13.4274C21.8385 11.738 20.7918 9.92506 18.8475 9.50453Z" fill="#55C4E4"/>
<path fill-rule="evenodd" clip-rule="evenodd" d="M8.67077 17.897C9.03032 18.1027 9.15506 18.5609 8.94939 18.9204L7.83912 20.8614C7.63345 21.2209 7.17525 21.3457 6.81571 21.14C6.45616 20.9343 6.33142 20.4761 6.53709 20.1166L7.64736 18.1756C7.85303 17.8161 8.31122 17.6913 8.67077 17.897Z" fill="#55C4E4"/>
<path fill-rule="evenodd" clip-rule="evenodd" d="M14.2709 17.9966C14.6304 18.2023 14.7552 18.6605 14.5495 19.02L13.4392 20.961C13.2335 21.3205 12.7753 21.4453 12.4158 21.2396C12.0563 21.0339 11.9315 20.5757 12.1372 20.2162L13.2475 18.2752C13.4531 17.9157 13.9113 17.791 14.2709 17.9966Z" fill="#55C4E4"/>
<path fill-rule="evenodd" clip-rule="evenodd" d="M10.8896 19.1536C11.251 19.356 11.3799 19.813 11.1775 20.1744L10.6311 21.1499C10.4287 21.5113 9.97169 21.6402 9.6103 21.4378C9.2489 21.2354 9.12001 20.7783 9.32241 20.4169L9.86872 19.4414C10.0711 19.0801 10.5282 18.9512 10.8896 19.1536Z" fill="#55C4E4"/>
<path fill-rule="evenodd" clip-rule="evenodd" d="M16.7659 19.2747C17.1273 19.4771 17.2562 19.9341 17.0538 20.2955L16.5075 21.271C16.3051 21.6324 15.848 21.7613 15.4866 21.5589C15.1252 21.3565 14.9964 20.8994 15.1988 20.538L15.7451 19.5625C15.9475 19.2011 16.4045 19.0723 16.7659 19.2747Z" fill="#55C4E4"/>
</svg>
