<svg width="36" height="36" viewBox="0 0 36 36" fill="none" xmlns="http://www.w3.org/2000/svg">
<path fill-rule="evenodd" clip-rule="evenodd" d="M23.202 30.2777C22.7051 29.977 22.0869 29.9593 21.5736 30.2311L21.3748 30.3363C20.2675 30.9225 18.9418 30.9225 17.8345 30.3363C17.2807 30.0431 16.6042 30.1164 16.1261 30.5214L15.7276 30.8589C15.2536 31.2605 14.5437 31.2018 14.1421 30.7277C13.7405 30.2536 13.7993 29.5437 14.2734 29.1421L14.6718 28.8046C15.8516 27.8052 17.5208 27.6244 18.8873 28.3478C19.336 28.5854 19.8733 28.5854 20.3221 28.3478L20.5208 28.2426C21.7331 27.6008 23.1932 27.6426 24.3668 28.3526C24.7931 28.6106 25.313 28.6623 25.7818 28.4936L26.6195 28.192C27.204 27.9816 27.8486 28.2849 28.059 28.8695C28.2695 29.4541 27.9662 30.0986 27.3816 30.309L26.5439 30.6106C25.4368 31.0092 24.2088 30.8868 23.202 30.2777Z" fill="#55C4E4"/>
<path fill-rule="evenodd" clip-rule="evenodd" d="M29.9872 22.8262C29.2111 22.4506 28.3107 22.428 27.5167 22.7643L27.2447 22.8795C25.9731 23.418 24.5375 23.418 23.266 22.8795C22.3757 22.5024 21.3551 22.6022 20.5548 23.1446L20.1312 23.4316C19.6169 23.7801 18.9173 23.6457 18.5688 23.1314C18.2203 22.617 18.3547 21.9175 18.869 21.569L19.2926 21.282C20.7245 20.3116 22.5507 20.133 24.1435 20.8076C24.8541 21.1086 25.6565 21.1086 26.3672 20.8076L26.6392 20.6924C28.0302 20.1033 29.6078 20.1429 30.9675 20.801C31.6313 21.1223 32.3904 21.1872 33.0991 20.9831L34.1888 20.6692C34.7858 20.4973 35.4092 20.8419 35.5812 21.4389C35.7531 22.036 35.4085 22.6594 34.8115 22.8314L33.7218 23.1452C32.4802 23.5028 31.1502 23.3892 29.9872 22.8262Z" fill="#55C4E4"/>
<path fill-rule="evenodd" clip-rule="evenodd" d="M13.14 5.00227C12.3052 5.78462 12.5325 6.94066 12.8688 7.7104L12.8696 7.71215C13.3458 8.79724 13.6074 9.98587 13.5977 11.2434L13.5977 11.2474C13.5783 15.911 9.68208 19.9079 4.89989 20.1028C4.19322 20.1322 3.51766 20.0834 2.86253 19.9666C2.39336 19.8814 1.9175 19.8632 1.47814 19.9654C1.02891 20.0698 0.556476 20.3193 0.259923 20.8029C-0.0355716 21.2849 -0.0444007 21.8168 0.0614228 22.2606C0.165282 22.6962 0.390369 23.1116 0.671417 23.4912C1.95604 25.2429 3.6982 26.6477 5.72337 27.5429C5.92412 27.6855 6.16381 27.7558 6.40346 27.7498C6.77482 27.7612 7.13417 27.5867 7.35337 27.2795L22.8335 14.7141C23.1633 14.4463 23.3142 14.0156 23.2236 13.6006C22.3542 9.61958 19.5415 6.36203 15.828 4.80105C15.0601 4.47696 13.9369 4.25537 13.14 5.00227Z" fill="#969CA8"/>
</svg>
