<svg width="300" height="154" viewBox="0 0 300 154" fill="none" xmlns="http://www.w3.org/2000/svg">
<path d="M18.6621 131.198C17.5575 131.023 16.8025 129.985 16.994 128.883C22.3749 97.9212 38.3959 69.7822 62.3245 49.3452C86.767 28.4694 117.856 17 150 17C182.144 17 213.233 28.4694 237.676 49.3452C261.604 69.7822 277.625 97.9213 283.006 128.883C283.198 129.985 282.442 131.023 281.338 131.198V131.198C280.233 131.373 279.197 130.619 279.005 129.517C273.776 99.5074 258.241 72.2356 235.045 52.4249C211.336 32.1753 181.18 21.05 150 21.05C118.82 21.05 88.664 32.1753 64.9548 52.4248C41.7594 72.2355 26.2243 99.5073 20.9945 129.517C20.8025 130.618 19.7668 131.373 18.6621 131.198V131.198Z" fill="#EAEAEA"/>
<path d="M18.6621 131.198C17.5575 131.023 16.8025 129.985 16.994 128.883C22.3749 97.9212 38.3959 69.7822 62.3245 49.3452C86.767 28.4694 117.856 17 150 17C182.144 17 213.233 28.4694 237.676 49.3452C261.604 69.7822 277.625 97.9213 283.006 128.883C283.198 129.985 282.442 131.023 281.338 131.198V131.198C280.233 131.373 279.197 130.619 279.005 129.517C273.776 99.5074 258.241 72.2356 235.045 52.4249C211.336 32.1753 181.18 21.05 150 21.05C118.82 21.05 88.664 32.1753 64.9548 52.4248C41.7594 72.2355 26.2243 99.5073 20.9945 129.517C20.8025 130.618 19.7668 131.373 18.6621 131.198V131.198Z" fill="#EAEAEA"/>
<rect x="169" y="7" width="36" height="36" rx="18" fill="white"/>
<g clip-path="url(#clip0_794_5302)">
<path fill-rule="evenodd" clip-rule="evenodd" d="M189.671 15.0323C190.055 15.1353 190.283 15.5301 190.18 15.9142L189.75 17.5215C189.647 17.9056 189.252 18.1335 188.868 18.0306C188.484 17.9277 188.256 17.5329 188.359 17.1488L188.789 15.5415C188.892 15.1574 189.287 14.9294 189.671 15.0323ZM195.854 19.889C196.053 20.2333 195.935 20.6737 195.591 20.8725L194.229 21.6588C193.884 21.8576 193.444 21.7396 193.245 21.3953C193.046 21.0509 193.164 20.6105 193.509 20.4117L194.871 19.6254C195.215 19.4266 195.655 19.5446 195.854 19.889ZM181.888 16.1469C182.233 15.9481 182.673 16.0661 182.872 16.4104L183.658 17.7723C183.857 18.1167 183.739 18.5571 183.395 18.7559C183.05 18.9547 182.61 18.8367 182.411 18.4923L181.625 17.1304C181.426 16.7861 181.544 16.3457 181.888 16.1469ZM177.032 22.3297C177.135 21.9456 177.53 21.7177 177.914 21.8206L179.459 22.2347C179.843 22.3376 180.071 22.7324 179.968 23.1165C179.865 23.5006 179.471 23.7285 179.086 23.6256L177.541 23.2115C177.157 23.1086 176.929 22.7138 177.032 22.3297ZM194.032 26.8849C194.135 26.5008 194.53 26.2729 194.914 26.3758L196.459 26.7899C196.844 26.8928 197.071 27.2876 196.969 27.6717C196.866 28.0558 196.471 28.2838 196.087 28.1808L194.541 27.7667C194.157 27.6638 193.929 27.269 194.032 26.8849ZM180.755 28.6062C180.954 28.9505 180.836 29.3909 180.492 29.5897L179.032 30.4326C178.688 30.6314 178.247 30.5134 178.048 30.169C177.85 29.8247 177.968 29.3843 178.312 29.1855L179.772 28.3426C180.116 28.1438 180.557 28.2618 180.755 28.6062ZM190.606 31.2455C190.95 31.0467 191.39 31.1647 191.589 31.5091L192.376 32.871C192.574 33.2154 192.456 33.6557 192.112 33.8545C191.768 34.0533 191.327 33.9353 191.128 33.591L190.342 32.2291C190.143 31.8847 190.261 31.4444 190.606 31.2455ZM185.116 32.0327C185.5 32.1356 185.728 32.5304 185.625 32.9145L185.211 34.4599C185.108 34.844 184.713 35.072 184.329 34.9691C183.945 34.8661 183.717 34.4713 183.82 34.0872L184.234 32.5418C184.337 32.1577 184.732 31.9297 185.116 32.0327Z" fill="#E96400"/>
<path fill-rule="evenodd" clip-rule="evenodd" d="M188.056 21.0598C185.88 20.4766 183.642 21.7683 183.059 23.9448C182.476 26.1214 183.768 28.3586 185.944 28.9418C188.121 29.525 190.358 28.2334 190.941 26.0568C191.524 23.8803 190.233 21.6431 188.056 21.0598ZM181.668 23.5721C182.457 20.6274 185.484 18.8799 188.429 19.6689C191.374 20.458 193.121 23.4848 192.332 26.4295C191.543 29.3742 188.516 31.1218 185.571 30.3327C182.627 29.5437 180.879 26.5169 181.668 23.5721Z" fill="#E96400"/>
</g>
<path d="M18.6621 131.198C17.5575 131.023 16.8025 129.985 16.994 128.883C22.9997 94.3253 42.2296 63.4306 70.649 42.7827C99.0684 22.1348 134.393 13.393 169.115 18.3601C170.222 18.5185 170.977 19.5575 170.802 20.6621V20.6621C170.627 21.7668 169.589 22.5186 168.482 22.3608C134.821 17.5613 100.58 26.0426 73.0295 46.0592C45.4791 66.0758 26.8319 96.0199 20.9946 129.516C20.8026 130.618 19.7668 131.373 18.6621 131.198V131.198Z" fill="url(#paint0_linear_794_5302)"/>
<defs>
<linearGradient id="paint0_linear_794_5302" x1="168" y1="17" x2="15" y2="132.5" gradientUnits="userSpaceOnUse">
<stop stop-color="#E96400"/>
<stop offset="1" stop-color="#E96400" stop-opacity="0"/>
</linearGradient>
<clipPath id="clip0_794_5302">
<rect x="175.48" y="13.4805" width="23.04" height="23.04" rx="11.52" fill="white"/>
</clipPath>
</defs>
</svg>
