<svg width="300" height="154" viewBox="0 0 300 154" fill="none" xmlns="http://www.w3.org/2000/svg">
<path d="M18.6621 131.198C17.5575 131.023 16.8025 129.985 16.994 128.883C22.3749 97.9212 38.3959 69.7822 62.3245 49.3452C86.767 28.4694 117.856 17 150 17C182.144 17 213.233 28.4694 237.676 49.3452C261.604 69.7822 277.625 97.9213 283.006 128.883C283.198 129.985 282.442 131.023 281.338 131.198V131.198C280.233 131.373 279.197 130.619 279.005 129.517C273.776 99.5074 258.241 72.2356 235.045 52.4249C211.336 32.1753 181.18 21.05 150 21.05C118.82 21.05 88.664 32.1753 64.9548 52.4248C41.7594 72.2355 26.2243 99.5073 20.9945 129.517C20.8025 130.618 19.7668 131.373 18.6621 131.198V131.198Z" fill="#EAEAEA"/>
<path d="M18.6621 131.198C17.5575 131.023 16.8025 129.985 16.994 128.883C22.3749 97.9212 38.3959 69.7822 62.3245 49.3452C86.767 28.4694 117.856 17 150 17C182.144 17 213.233 28.4694 237.676 49.3452C261.604 69.7822 277.625 97.9213 283.006 128.883C283.198 129.985 282.442 131.023 281.338 131.198V131.198C280.233 131.373 279.197 130.619 279.005 129.517C273.776 99.5074 258.241 72.2356 235.045 52.4249C211.336 32.1753 181.18 21.05 150 21.05C118.82 21.05 88.664 32.1753 64.9548 52.4248C41.7594 72.2355 26.2243 99.5073 20.9945 129.517C20.8025 130.618 19.7668 131.373 18.6621 131.198V131.198Z" fill="#EAEAEA"/>
<rect x="261" y="104" width="36" height="36" rx="18" fill="white"/>
<g clip-path="url(#clip0_794_5300)">
<path fill-rule="evenodd" clip-rule="evenodd" d="M281.671 112.032C282.056 112.135 282.284 112.53 282.181 112.914L281.75 114.521C281.647 114.906 281.252 115.134 280.868 115.031C280.484 114.928 280.256 114.533 280.359 114.149L280.79 112.541C280.893 112.157 281.287 111.929 281.671 112.032ZM287.854 116.889C288.053 117.233 287.935 117.674 287.591 117.872L286.229 118.659C285.884 118.858 285.444 118.74 285.245 118.395C285.046 118.051 285.164 117.611 285.509 117.412L286.871 116.625C287.215 116.427 287.655 116.545 287.854 116.889ZM273.889 113.147C274.233 112.948 274.673 113.066 274.872 113.41L275.659 114.772C275.857 115.117 275.739 115.557 275.395 115.756C275.051 115.955 274.61 115.837 274.411 115.492L273.625 114.13C273.426 113.786 273.544 113.346 273.889 113.147ZM269.032 119.33C269.135 118.946 269.53 118.718 269.914 118.821L271.459 119.235C271.844 119.338 272.071 119.732 271.969 120.117C271.866 120.501 271.471 120.729 271.087 120.626L269.541 120.212C269.157 120.109 268.929 119.714 269.032 119.33ZM286.032 123.885C286.135 123.501 286.53 123.273 286.914 123.376L288.46 123.79C288.844 123.893 289.072 124.288 288.969 124.672C288.866 125.056 288.471 125.284 288.087 125.181L286.542 124.767C286.157 124.664 285.929 124.269 286.032 123.885ZM272.756 125.606C272.954 125.951 272.836 126.391 272.492 126.59L271.032 127.433C270.688 127.631 270.247 127.513 270.049 127.169C269.85 126.825 269.968 126.384 270.312 126.185L271.772 125.343C272.116 125.144 272.557 125.262 272.756 125.606ZM282.606 128.246C282.95 128.047 283.391 128.165 283.589 128.509L284.376 129.871C284.575 130.215 284.457 130.656 284.112 130.855C283.768 131.053 283.327 130.935 283.129 130.591L282.342 129.229C282.144 128.885 282.262 128.444 282.606 128.246ZM277.116 129.033C277.5 129.136 277.728 129.53 277.625 129.914L277.211 131.46C277.108 131.844 276.714 132.072 276.329 131.969C275.945 131.866 275.717 131.471 275.82 131.087L276.234 129.542C276.337 129.158 276.732 128.93 277.116 129.033Z" fill="#E96400"/>
<path fill-rule="evenodd" clip-rule="evenodd" d="M280.056 118.06C277.88 117.477 275.643 118.768 275.059 120.945C274.476 123.121 275.768 125.359 277.944 125.942C280.121 126.525 282.358 125.233 282.941 123.057C283.525 120.88 282.233 118.643 280.056 118.06ZM273.668 120.572C274.458 117.627 277.484 115.88 280.429 116.669C283.374 117.458 285.121 120.485 284.332 123.43C283.543 126.374 280.516 128.122 277.572 127.333C274.627 126.544 272.879 123.517 273.668 120.572Z" fill="#E96400"/>
</g>
<path d="M18.6621 131.198C17.5575 131.023 16.8024 129.985 16.9939 128.883C22.0594 99.7368 36.5642 73.0399 58.3034 52.9206C80.5384 32.3424 109.049 19.8415 139.249 17.4288C169.449 15.0161 199.583 22.8318 224.803 39.6189C249.461 56.0315 268.02 80.0869 277.649 108.059C278.013 109.117 277.432 110.262 276.369 110.61V110.61C275.306 110.958 274.164 110.377 273.8 109.32C264.454 82.2114 246.46 58.8993 222.559 42.9903C198.095 26.7069 168.866 19.1256 139.572 21.4659C110.278 23.8062 82.6222 35.9321 61.0543 55.893C39.9821 75.395 25.9174 101.268 20.9945 129.517C20.8025 130.619 19.7668 131.373 18.6621 131.198V131.198Z" fill="url(#paint0_linear_794_5300)"/>
<defs>
<linearGradient id="paint0_linear_794_5300" x1="276" y1="84" x2="7.49999" y2="143.5" gradientUnits="userSpaceOnUse">
<stop stop-color="#E96400"/>
<stop offset="1" stop-color="#E96400" stop-opacity="0"/>
</linearGradient>
<clipPath id="clip0_794_5300">
<rect x="267.48" y="110.48" width="23.04" height="23.04" rx="11.52" fill="white"/>
</clipPath>
</defs>
</svg>
