<svg width="32" height="139" viewBox="0 0 32 139" fill="none" xmlns="http://www.w3.org/2000/svg">
<path d="M16.5 1C16.5 0.723858 16.2761 0.5 16 0.5C15.7239 0.5 15.5 0.723858 15.5 1H16.5ZM15.5 2C15.5 2.27614 15.7239 2.5 16 2.5C16.2761 2.5 16.5 2.27614 16.5 2H15.5ZM16.5 10C16.5 9.72386 16.2761 9.5 16 9.5C15.7239 9.5 15.5 9.72386 15.5 10H16.5ZM15.5 12C15.5 12.2761 15.7239 12.5 16 12.5C16.2761 12.5 16.5 12.2761 16.5 12H15.5ZM16.5 20C16.5 19.7239 16.2761 19.5 16 19.5C15.7239 19.5 15.5 19.7239 15.5 20H16.5ZM15.5 22C15.5 22.2761 15.7239 22.5 16 22.5C16.2761 22.5 16.5 22.2761 16.5 22H15.5ZM16.5 30C16.5 29.7239 16.2761 29.5 16 29.5C15.7239 29.5 15.5 29.7239 15.5 30H16.5ZM15.5 32C15.5 32.2761 15.7239 32.5 16 32.5C16.2761 32.5 16.5 32.2761 16.5 32H15.5ZM16.5 40C16.5 39.7239 16.2761 39.5 16 39.5C15.7239 39.5 15.5 39.7239 15.5 40H16.5ZM15.5 42C15.5 42.2761 15.7239 42.5 16 42.5C16.2761 42.5 16.5 42.2761 16.5 42H15.5ZM16.5 50C16.5 49.7239 16.2761 49.5 16 49.5C15.7239 49.5 15.5 49.7239 15.5 50H16.5ZM15.5 52C15.5 52.2761 15.7239 52.5 16 52.5C16.2761 52.5 16.5 52.2761 16.5 52H15.5ZM16.5 60C16.5 59.7239 16.2761 59.5 16 59.5C15.7239 59.5 15.5 59.7239 15.5 60H16.5ZM15.5 62C15.5 62.2761 15.7239 62.5 16 62.5C16.2761 62.5 16.5 62.2761 16.5 62H15.5ZM16.5 70C16.5 69.7239 16.2761 69.5 16 69.5C15.7239 69.5 15.5 69.7239 15.5 70H16.5ZM15.5 72C15.5 72.2761 15.7239 72.5 16 72.5C16.2761 72.5 16.5 72.2761 16.5 72H15.5ZM16.5 80C16.5 79.7238 16.2761 79.5 16 79.5C15.7239 79.5 15.5 79.7238 15.5 80H16.5ZM15.5 82C15.5 82.2761 15.7239 82.5 16 82.5C16.2761 82.5 16.5 82.2761 16.5 82H15.5ZM16.5 90C16.5 89.7239 16.2761 89.5 16 89.5C15.7239 89.5 15.5 89.7239 15.5 90H16.5ZM15.5 92C15.5 92.2761 15.7239 92.5 16 92.5C16.2761 92.5 16.5 92.2761 16.5 92H15.5ZM16.5 100C16.5 99.7238 16.2761 99.5 16 99.5C15.7239 99.5 15.5 99.7238 15.5 100H16.5ZM15.5 102C15.5 102.276 15.7239 102.5 16 102.5C16.2761 102.5 16.5 102.276 16.5 102H15.5ZM16.5 110C16.5 109.724 16.2761 109.5 16 109.5C15.7239 109.5 15.5 109.724 15.5 110H16.5ZM15.5 1V2H16.5V1H15.5ZM15.5 10V12H16.5V10H15.5ZM15.5 20V22H16.5V20H15.5ZM15.5 30V32H16.5L16.5 30H15.5ZM15.5 40V42H16.5V40H15.5ZM15.5 50V52H16.5V50H15.5ZM15.5 60V62H16.5V60H15.5ZM15.5 70V72H16.5V70H15.5ZM15.5 80V82H16.5V80H15.5ZM15.5 90V92H16.5V90H15.5ZM15.5 100V102H16.5V100H15.5ZM15.5 110V111H16.5V110H15.5Z" fill="#0A0A0A"/>
<rect y="111" width="32" height="28" rx="10" fill="#0A0A0A"/>
<path d="M15.2529 128.747H14.4531V124.713H13.4424V128.343H12.6602V121.03H13.4424V124.027H14.4531V120.872H15.2529V128.747ZM9.71582 126.009C10.5625 126 11.3682 125.92 12.1328 125.768L12.2207 126.497C11.7139 126.588 11.2305 126.652 10.7705 126.69C10.3135 126.726 9.85352 126.743 9.39062 126.743H8.88086V121.804H9.71582V126.009ZM18.5225 121.136C18.915 121.139 19.2666 121.216 19.5771 121.369C19.8906 121.518 20.1367 121.728 20.3154 121.997C20.4941 122.264 20.585 122.565 20.5879 122.902C20.585 123.242 20.4941 123.545 20.3154 123.812C20.1367 124.079 19.8906 124.287 19.5771 124.436C19.2666 124.585 18.915 124.66 18.5225 124.66C18.127 124.66 17.771 124.585 17.4546 124.436C17.1411 124.287 16.895 124.079 16.7163 123.812C16.5376 123.545 16.4482 123.242 16.4482 122.902C16.4482 122.565 16.5376 122.264 16.7163 121.997C16.895 121.728 17.1411 121.518 17.4546 121.369C17.771 121.216 18.127 121.139 18.5225 121.136ZM18.5225 121.839C18.2822 121.836 18.0654 121.878 17.8721 121.966C17.6816 122.054 17.5322 122.18 17.4238 122.344C17.3154 122.505 17.2627 122.691 17.2656 122.902C17.2627 123.116 17.314 123.305 17.4194 123.469C17.5278 123.633 17.6772 123.761 17.8677 123.852C18.061 123.939 18.2793 123.983 18.5225 123.983C18.7627 123.983 18.978 123.938 19.1685 123.847C19.3589 123.756 19.5083 123.63 19.6167 123.469C19.7251 123.305 19.7793 123.116 19.7793 122.902C19.7793 122.691 19.7251 122.505 19.6167 122.344C19.5083 122.18 19.3574 122.054 19.1641 121.966C18.9736 121.878 18.7598 121.836 18.5225 121.839ZM22.8203 124.88H21.9854V120.872H22.8203V124.88ZM22.8203 127.227H18.4785V127.982H23.084V128.65H17.6699V126.603H21.9941V125.908H17.6436V125.24H22.8203V127.227Z" fill="white"/>
</svg>
