<svg width="36" height="36" viewBox="0 0 36 36" fill="none" xmlns="http://www.w3.org/2000/svg">
<path d="M18.1199 27.75V15" stroke="black" stroke-width="2.25" stroke-linecap="round"/>
<path d="M14.7495 23.4513C13.9845 24.1271 13.4432 25.0197 13.1976 26.0104C12.952 27.0012 13.0136 28.0433 13.3744 28.9982C13.7352 29.9531 14.378 30.7756 15.2174 31.3564C16.0569 31.9373 17.0531 32.2489 18.0739 32.25C19.0947 32.2511 20.0916 31.9415 20.9323 31.3624C21.7729 30.7834 22.4175 29.9622 22.7803 29.0081C23.1431 28.054 23.2069 27.012 22.9634 26.0207C22.7199 25.0294 22.1805 24.1357 21.4169 23.4583M21.4322 23.0294V7.10294C21.4322 5.25116 19.931 3.75 18.0792 3.75C16.2275 3.75 14.7263 5.25116 14.7263 7.10294V23.0294" stroke="black" stroke-width="2.25" stroke-linecap="round"/>
<path d="M18.0747 27.6016H18.0897" stroke="black" stroke-width="4.2" stroke-linecap="round"/>
</svg>
