<svg width="36" height="36" viewBox="0 0 36 36" fill="none" xmlns="http://www.w3.org/2000/svg">
<path fill-rule="evenodd" clip-rule="evenodd" d="M29.8588 15.5333C30.4732 13.1519 30.0001 10.9921 28.8352 9.26868C27.5544 7.37385 25.4837 6.06661 23.2582 5.48253C21.029 4.89743 18.5483 5.01216 16.4083 6.08832C14.3475 7.12468 12.6681 9.02223 11.8598 11.8712C8.6301 12.6202 6.59646 14.8624 5.97583 17.4123C6.75339 16.0688 7.8258 15.0919 9.06087 14.4688C10.9052 13.5382 13.0225 13.4382 14.9167 13.9256C16.8065 14.4119 18.5902 15.5132 19.7258 17.1403C20.7232 18.5694 21.1807 20.3551 20.803 22.3175C22.1713 22.7373 23.1814 23.7252 23.7283 24.9192C23.9347 25.3698 24.0769 25.8542 24.1484 26.3516C25.3304 26.3667 26.4142 26.3788 27.2567 26.3791C29.3912 26.5001 31.0721 25.9772 32.2559 24.9921C33.4473 24.0007 34.0442 22.6143 34.1173 21.2176C34.2485 18.7113 32.6791 16.0961 29.8588 15.5333Z" fill="#55C4E4"/>
<path fill-rule="evenodd" clip-rule="evenodd" d="M19.2337 22.4207C19.5505 20.8356 19.1668 19.3934 18.3304 18.2391C17.3781 16.9249 15.8823 16.0354 14.2975 15.6427C12.7091 15.249 10.9335 15.3298 9.38685 16.0814C7.92517 16.7917 6.73518 18.0709 6.12842 19.9487C3.13424 20.7232 1.58832 23.2606 1.919 25.7221C2.09122 27.0041 2.77288 28.218 3.94982 29.0699C5.12422 29.9199 6.72585 30.365 8.68743 30.2584C9.76241 30.2 12.108 30.2299 14.2057 30.2567C15.2558 30.2701 16.2438 30.2827 16.9792 30.283C19.0334 30.3931 20.5727 29.694 21.418 28.4598C22.2421 27.2567 22.265 25.7374 21.6869 24.522C21.2283 23.5577 20.3812 22.7597 19.2337 22.4207Z" fill="#55C4E4"/>
</svg>
