<svg width="32" height="153" viewBox="0 0 32 153" fill="none" xmlns="http://www.w3.org/2000/svg">
<path d="M16.5 1C16.5 0.723858 16.2761 0.5 16 0.5C15.7239 0.5 15.5 0.723858 15.5 1H16.5ZM15.5 2.03077C15.5 2.30691 15.7239 2.53077 16 2.53077C16.2761 2.53077 16.5 2.30691 16.5 2.03077H15.5ZM16.5 10.2769C16.5 10.0008 16.2761 9.77692 16 9.77692C15.7239 9.77692 15.5 10.0008 15.5 10.2769H16.5ZM15.5 12.3385C15.5 12.6146 15.7239 12.8385 16 12.8385C16.2761 12.8385 16.5 12.6146 16.5 12.3385H15.5ZM16.5 20.5846C16.5 20.3085 16.2761 20.0846 16 20.0846C15.7239 20.0846 15.5 20.3085 15.5 20.5846H16.5ZM15.5 22.6462C15.5 22.9223 15.7239 23.1462 16 23.1462C16.2761 23.1462 16.5 22.9223 16.5 22.6462H15.5ZM16.5 30.8923C16.5 30.6162 16.2761 30.3923 16 30.3923C15.7239 30.3923 15.5 30.6162 15.5 30.8923H16.5ZM15.5 32.9538C15.5 33.23 15.7239 33.4538 16 33.4538C16.2761 33.4538 16.5 33.23 16.5 32.9538H15.5ZM16.5 41.2C16.5 40.9239 16.2761 40.7 16 40.7C15.7239 40.7 15.5 40.9239 15.5 41.2H16.5ZM15.5 43.2615C15.5 43.5377 15.7239 43.7615 16 43.7615C16.2761 43.7615 16.5 43.5377 16.5 43.2615H15.5ZM16.5 51.5077C16.5 51.2316 16.2761 51.0077 16 51.0077C15.7239 51.0077 15.5 51.2316 15.5 51.5077H16.5ZM15.5 53.5692C15.5 53.8454 15.7239 54.0692 16 54.0692C16.2761 54.0692 16.5 53.8454 16.5 53.5692H15.5ZM16.5 61.8154C16.5 61.5392 16.2761 61.3154 16 61.3154C15.7239 61.3154 15.5 61.5392 15.5 61.8154H16.5ZM15.5 63.8769C15.5 64.1531 15.7239 64.3769 16 64.3769C16.2761 64.3769 16.5 64.1531 16.5 63.8769H15.5ZM16.5 72.1231C16.5 71.8469 16.2761 71.6231 16 71.6231C15.7239 71.6231 15.5 71.8469 15.5 72.1231H16.5ZM15.5 74.1846C15.5 74.4608 15.7239 74.6846 16 74.6846C16.2761 74.6846 16.5 74.4608 16.5 74.1846H15.5ZM16.5 82.4308C16.5 82.1546 16.2761 81.9308 16 81.9308C15.7239 81.9308 15.5 82.1546 15.5 82.4308H16.5ZM15.5 84.4923C15.5 84.7684 15.7239 84.9923 16 84.9923C16.2761 84.9923 16.5 84.7684 16.5 84.4923H15.5ZM16.5 92.7385C16.5 92.4623 16.2761 92.2385 16 92.2385C15.7239 92.2385 15.5 92.4623 15.5 92.7385H16.5ZM15.5 94.8C15.5 95.0761 15.7239 95.3 16 95.3C16.2761 95.3 16.5 95.0761 16.5 94.8H15.5ZM16.5 103.046C16.5 102.77 16.2761 102.546 16 102.546C15.7239 102.546 15.5 102.77 15.5 103.046H16.5ZM15.5 105.108C15.5 105.384 15.7239 105.608 16 105.608C16.2761 105.608 16.5 105.384 16.5 105.108H15.5ZM16.5 113.354C16.5 113.078 16.2761 112.854 16 112.854C15.7239 112.854 15.5 113.078 15.5 113.354H16.5ZM15.5 115.415C15.5 115.692 15.7239 115.915 16 115.915C16.2761 115.915 16.5 115.692 16.5 115.415H15.5ZM16.5 123.662C16.5 123.385 16.2761 123.162 16 123.162C15.7239 123.162 15.5 123.385 15.5 123.662H16.5ZM15.5 125.723C15.5 125.999 15.7239 126.223 16 126.223C16.2761 126.223 16.5 125.999 16.5 125.723H15.5ZM16.5 133.969C16.5 133.693 16.2761 133.469 16 133.469C15.7239 133.469 15.5 133.693 15.5 133.969H16.5ZM15.5 1V2.03077H16.5V1H15.5ZM15.5 10.2769V12.3385H16.5V10.2769H15.5ZM15.5 20.5846V22.6462H16.5V20.5846H15.5ZM15.5 30.8923V32.9538H16.5L16.5 30.8923H15.5ZM15.5 41.2V43.2615H16.5V41.2H15.5ZM15.5 51.5077V53.5692H16.5V51.5077H15.5ZM15.5 61.8154V63.8769H16.5V61.8154H15.5ZM15.5 72.1231L15.5 74.1846H16.5V72.1231H15.5ZM15.5 82.4308V84.4923H16.5V82.4308H15.5ZM15.5 92.7385V94.8H16.5V92.7385H15.5ZM15.5 103.046V105.108H16.5V103.046H15.5ZM15.5 113.354V115.415H16.5V113.354H15.5ZM15.5 123.662V125.723H16.5V123.662H15.5ZM15.5 133.969V135H16.5V133.969H15.5Z" fill="#0A0A0A"/>
<rect y="125" width="32" height="28" rx="10" fill="#0A0A0A"/>
<path d="M15.2529 142.747H14.4531V138.713H13.4424V142.343H12.6602V135.03H13.4424V138.027H14.4531V134.872H15.2529V142.747ZM9.71582 140.009C10.5625 140 11.3682 139.92 12.1328 139.768L12.2207 140.497C11.7139 140.588 11.2305 140.652 10.7705 140.69C10.3135 140.726 9.85352 140.743 9.39062 140.743H8.88086V135.804H9.71582V140.009ZM18.5225 135.136C18.915 135.139 19.2666 135.216 19.5771 135.369C19.8906 135.518 20.1367 135.728 20.3154 135.997C20.4941 136.264 20.585 136.565 20.5879 136.902C20.585 137.242 20.4941 137.545 20.3154 137.812C20.1367 138.079 19.8906 138.287 19.5771 138.436C19.2666 138.585 18.915 138.66 18.5225 138.66C18.127 138.66 17.771 138.585 17.4546 138.436C17.1411 138.287 16.895 138.079 16.7163 137.812C16.5376 137.545 16.4482 137.242 16.4482 136.902C16.4482 136.565 16.5376 136.264 16.7163 135.997C16.895 135.728 17.1411 135.518 17.4546 135.369C17.771 135.216 18.127 135.139 18.5225 135.136ZM18.5225 135.839C18.2822 135.836 18.0654 135.878 17.8721 135.966C17.6816 136.054 17.5322 136.18 17.4238 136.344C17.3154 136.505 17.2627 136.691 17.2656 136.902C17.2627 137.116 17.314 137.305 17.4194 137.469C17.5278 137.633 17.6772 137.761 17.8677 137.852C18.061 137.939 18.2793 137.983 18.5225 137.983C18.7627 137.983 18.978 137.938 19.1685 137.847C19.3589 137.756 19.5083 137.63 19.6167 137.469C19.7251 137.305 19.7793 137.116 19.7793 136.902C19.7793 136.691 19.7251 136.505 19.6167 136.344C19.5083 136.18 19.3574 136.054 19.1641 135.966C18.9736 135.878 18.7598 135.836 18.5225 135.839ZM22.8203 138.88H21.9854V134.872H22.8203V138.88ZM22.8203 141.227H18.4785V141.982H23.084V142.65H17.6699V140.603H21.9941V139.908H17.6436V139.24H22.8203V141.227Z" fill="white"/>
</svg>
