<svg width="36" height="36" viewBox="0 0 36 36" fill="none" xmlns="http://www.w3.org/2000/svg">
<path fill-rule="evenodd" clip-rule="evenodd" d="M30.1749 17.8065C30.7438 15.7042 30.3058 13.7975 29.2272 12.2761C28.0413 10.6034 26.124 9.44934 24.0635 8.93372C21.9995 8.41721 19.7026 8.51849 17.7213 9.46851C15.8131 10.3834 14.2582 12.0585 13.5099 14.5736C9.74784 15.4053 7.73563 18.323 7.88251 21.2537C8.03688 24.3341 10.5416 27.0894 15.0709 27.3487L15.0965 27.3502L17.4373 27.3544C17.3198 27.2004 17.25 27.0081 17.25 26.7994C17.25 26.2937 17.66 25.8837 18.1657 25.8837H24.249C25.1129 25.8837 25.7965 25.19 25.7965 24.3575C25.7965 23.5204 25.1082 22.8314 24.249 22.8314C23.385 22.8314 22.7014 23.5251 22.7014 24.3575C22.7014 24.8633 22.2915 25.2732 21.7857 25.2732C21.28 25.2732 20.87 24.8633 20.87 24.3575C20.87 22.5031 22.3842 21 24.249 21C26.1001 21 27.6279 22.4896 27.6279 24.3575C27.6279 25.6785 26.8597 26.8211 25.7438 27.3693L28.9505 27.375L28.9848 27.3725C30.6914 27.2482 32.008 26.6373 32.8915 25.7008C33.7708 24.7686 34.1575 23.5799 34.1229 22.4205C34.0607 20.3394 32.6259 18.2735 30.1749 17.8065Z" fill="#55C4E4"/>
<path fill-rule="evenodd" clip-rule="evenodd" d="M18.5328 32.1913C18.5328 34.0458 20.0469 35.5488 21.9117 35.5488C23.7629 35.5488 25.2907 34.0593 25.2907 32.1913C25.2907 30.3368 23.7765 28.8337 21.9117 28.8337H12.1657C11.66 28.8337 11.25 29.2437 11.25 29.7494C11.25 30.2551 11.66 30.6651 12.1657 30.6651H21.9117C22.7757 30.6651 23.4593 31.3588 23.4593 32.1913C23.4593 33.0284 22.771 33.7174 21.9117 33.7174C21.0478 33.7174 20.3642 33.0237 20.3642 32.1913C20.3642 31.6856 19.9542 31.2756 19.4485 31.2756C18.9428 31.2756 18.5328 31.6856 18.5328 32.1913Z" fill="#55C4E4"/>
<path fill-rule="evenodd" clip-rule="evenodd" d="M7.55829 1.83474C8.13571 1.60532 8.78977 1.88742 9.01919 2.46483L9.64622 4.04294C9.87564 4.62036 9.59354 5.27442 9.01613 5.50385C8.43871 5.73327 7.78465 5.45116 7.55522 4.87375L6.9282 3.29564C6.69878 2.71823 6.98088 2.06416 7.55829 1.83474ZM15.8201 2.0265C16.392 2.26937 16.6587 2.92986 16.4159 3.50174L15.7888 4.97823C15.546 5.55012 14.8855 5.81685 14.3136 5.57398C13.7417 5.33111 13.475 4.67063 13.7178 4.09874L14.3449 2.62225C14.5877 2.05036 15.2482 1.78364 15.8201 2.0265ZM9.36156 6.38922C11.6469 5.46747 14.1582 6.06523 15.8 7.69616L16.7924 8.68194L15.6168 9.43983C14.263 10.3125 13.2804 11.6963 12.8877 13.2673L12.7379 13.8664L11.9929 14.1148C10.8063 14.5103 9.71082 15.1393 8.77104 15.9646L7.81763 16.802L7.07601 15.9456C6.64353 15.4462 6.28694 14.8673 6.03026 14.2213C4.80512 11.1378 6.28779 7.62894 9.36156 6.38922ZM1.70469 7.71513C1.95102 7.14473 2.61311 6.88202 3.18352 7.12835L4.64858 7.76105C5.21898 8.00738 5.48169 8.66948 5.23536 9.23988C4.98903 9.81028 4.32693 10.073 3.75653 9.82666L2.29146 9.19396C1.72106 8.94763 1.45835 8.28553 1.70469 7.71513ZM5.10894 14.5991C5.34134 15.1753 5.06263 15.8308 4.48641 16.0632L2.9813 16.6703C2.40508 16.9027 1.74957 16.624 1.51716 16.0477C1.28476 15.4715 1.56348 14.816 2.1397 14.5836L3.6448 13.9766C4.22102 13.7441 4.87654 14.0229 5.10894 14.5991Z" fill="#E96400"/>
</svg>
