<svg width="16" height="17" viewBox="0 0 16 17" fill="none" xmlns="http://www.w3.org/2000/svg">
<g clip-path="url(#clip0_1346_15597)">
<path d="M13.6987 1.5L14.5826 2.38388L1.88388 15.0826L1 14.1987L13.6987 1.5Z" fill="#DFC60A"/>
<path d="M12.6548 3.54398C11.58 2.29236 9.98874 1.5 8.21329 1.5C4.97701 1.5 2.35282 4.13265 2.35282 7.38065V11.9186H1.70166V13.2209H2.9778L4.28013 11.9186H3.65515V7.38065C3.65515 4.85219 5.69589 2.80233 8.21329 2.80233C9.62925 2.80233 10.8944 3.45085 11.7304 4.46829L12.6548 3.54398Z" fill="#DFC60A"/>
<path d="M6.04789 11.9186H12.7714V7.38065C12.7714 6.73628 12.6389 6.123 12.3997 5.5668L13.3743 4.59221C13.8205 5.42198 14.0738 6.37162 14.0738 7.38065V11.9186H14.7249V13.2209H4.74557L6.04789 11.9186Z" fill="#DFC60A"/>
<path d="M9.36439 15.0232C9.66968 14.7179 9.8412 14.3038 9.8412 13.8721H6.58538C6.58538 14.3038 6.75689 14.7179 7.06218 15.0232C7.36748 15.3285 7.78154 15.5 8.21329 15.5C8.64504 15.5 9.0591 15.3285 9.36439 15.0232Z" fill="#DFC60A"/>
</g>
<defs>
<clipPath id="clip0_1346_15597">
<rect width="16" height="16" fill="white" transform="translate(0 0.5)"/>
</clipPath>
</defs>
</svg>
