<svg width="36" height="36" viewBox="0 0 36 36" fill="none" xmlns="http://www.w3.org/2000/svg">
<path fill-rule="evenodd" clip-rule="evenodd" d="M31.3372 17.6484C31.9223 15.462 31.4718 13.479 30.3624 11.8967C29.1426 10.1571 27.1706 8.95693 25.0512 8.42068C22.9282 7.88351 20.5657 7.98884 18.5277 8.97686C16.5651 9.92834 14.9658 11.6705 14.196 14.2861C10.3265 15.1511 8.2568 18.1855 8.40787 21.2335C8.56666 24.4371 11.1429 27.3026 15.8017 27.5723L15.8279 27.5738L18.1351 27.578C17.874 27.4167 17.7001 27.1279 17.7001 26.7984C17.7001 26.2927 18.11 25.8827 18.6158 25.8827H24.699C25.563 25.8827 26.2466 25.189 26.2466 24.3566C26.2466 23.5195 25.5583 22.8304 24.699 22.8304C23.8351 22.8304 23.1515 23.5241 23.1515 24.3566C23.1515 24.8623 22.7415 25.2723 22.2358 25.2723C21.7301 25.2723 21.3201 24.8623 21.3201 24.3566C21.3201 22.5021 22.8342 20.999 24.699 20.999C26.5502 20.999 28.078 22.4886 28.078 24.3566C28.078 25.8985 27.0313 27.1974 25.6066 27.5915L30.0778 27.5996L30.1131 27.597C31.8685 27.4678 33.2227 26.8324 34.1314 25.8584C35.0359 24.889 35.4336 23.6527 35.398 22.4469C35.334 20.2826 33.8582 18.134 31.3372 17.6484Z" fill="#55C4E4"/>
<path fill-rule="evenodd" clip-rule="evenodd" d="M19.2828 31.8925C19.2828 33.7469 20.7969 35.25 22.6617 35.25C24.5129 35.25 26.0407 33.7604 26.0407 31.8925C26.0407 30.038 24.5265 28.5349 22.6617 28.5349H12.9157C12.41 28.5349 12 28.9449 12 29.4506C12 29.9563 12.41 30.3663 12.9157 30.3663H22.6617C23.5257 30.3663 24.2093 31.06 24.2093 31.8925C24.2093 32.7296 23.521 33.4186 22.6617 33.4186C21.7978 33.4186 21.1142 32.7249 21.1142 31.8925C21.1142 31.3867 20.7042 30.9768 20.1985 30.9768C19.6928 30.9768 19.2828 31.3867 19.2828 31.8925Z" fill="#55C4E4"/>
<path fill-rule="evenodd" clip-rule="evenodd" d="M10.4882 1.1376C9.76603 1.75484 10.0687 3.0229 10.3102 3.52338L10.3109 3.5249C10.6205 4.16363 10.7909 4.86271 10.7858 5.60299L10.7857 5.60647C10.7775 8.3493 8.25392 10.7174 5.14623 10.8375C4.68572 10.8556 4.24593 10.8273 3.81965 10.7589L3.8231 10.7594C3.47629 10.7026 3.10563 10.6874 2.75115 10.7629C2.38787 10.8402 1.9836 11.0296 1.72734 11.4109C1.47209 11.7906 1.47057 12.2018 1.55651 12.5274C1.64055 12.8458 1.8184 13.1376 2.02622 13.3921C2.98006 14.5704 4.56257 16.0291 6.08195 16.5969C6.48781 16.7486 6.95441 16.6611 7.26111 16.3756L7.51173 16.1423C8.56929 15.158 9.65343 13.96 11.1369 13.6878L12.1207 13.5074C12.4772 13.442 12.7733 13.2174 12.9078 12.9102L13.3092 11.9941C13.8942 10.6589 14.9264 9.52477 16.2595 8.75224L17.4998 8.03352C17.8807 7.81277 18.0695 7.39929 17.9725 6.99827C17.3523 4.43424 15.2812 1.95477 12.6538 0.955488C12.1061 0.746417 11.174 0.551361 10.4882 1.1376Z" fill="#969CA8"/>
</svg>
