<svg width="36" height="36" viewBox="0 0 36 36" fill="none" xmlns="http://www.w3.org/2000/svg">
<path fill-rule="evenodd" clip-rule="evenodd" d="M29.9772 17.822C30.4757 15.6587 29.9899 13.6928 28.8749 12.1246C27.6268 10.3691 25.6422 9.17402 23.5302 8.64378C21.4132 8.1123 19.0537 8.21927 17.0081 9.21549C15.056 10.1661 13.4571 11.8969 12.6635 14.4772C8.63608 15.4448 6.53907 18.8073 6.96811 22.0932C7.18931 23.7873 8.08327 25.386 9.62486 26.5066C11.1621 27.624 13.2768 28.2221 15.9014 28.0793C17.3793 27.999 20.6073 28.0401 23.4787 28.0768C24.9107 28.095 26.254 28.1122 27.2473 28.1125C29.2666 28.2224 30.8867 27.7477 32.0465 26.8229C33.2175 25.8892 33.8173 24.5746 33.9025 23.2417C34.0526 20.8931 32.5945 18.4569 29.9772 17.822Z" fill="#55C4E4"/>
<path fill-rule="evenodd" clip-rule="evenodd" d="M8.88076 1.33764C8.18235 1.94273 8.48499 3.1742 8.72316 3.65945L8.72389 3.66093C9.02923 4.2802 9.19946 4.9591 9.1993 5.67921L9.1993 5.6826C9.20916 8.35061 6.76987 10.6705 3.74778 10.8075C3.29996 10.8281 2.87199 10.8035 2.45689 10.7397L2.46026 10.7402C2.12254 10.6872 1.7619 10.6748 1.41758 10.7505C1.06473 10.8282 0.672721 11.015 0.425937 11.3875C0.180125 11.7586 0.181322 12.1586 0.267041 12.4747C0.350854 12.7839 0.525757 13.0665 0.729559 13.3127C1.66504 14.4527 3.21384 15.8612 4.69546 16.4037C5.09122 16.5486 5.54452 16.4604 5.84099 16.1807L6.08325 15.9522C7.10554 14.9879 8.15229 13.8155 9.59351 13.5411L10.5493 13.3592C10.8956 13.2932 11.1821 13.0728 11.311 12.7732L11.6955 11.8794C12.2558 10.5769 13.2524 9.46699 14.5441 8.70686L15.7459 7.99968C16.115 7.78248 16.296 7.37906 16.199 6.98962C15.579 4.49961 13.5483 2.1013 10.9861 1.14639C10.452 0.946595 9.5441 0.762931 8.88076 1.33764Z" fill="#969CA8"/>
<path fill-rule="evenodd" clip-rule="evenodd" d="M29.3563 29.1844C29.8956 29.4929 30.0827 30.1802 29.7742 30.7195L28.1088 33.6309C27.8003 34.1703 27.113 34.3574 26.5737 34.0489C26.0344 33.7404 25.8473 33.0531 26.1558 32.5137L27.8212 29.6023C28.1297 29.063 28.817 28.8759 29.3563 29.1844Z" fill="#55C4E4"/>
<path fill-rule="evenodd" clip-rule="evenodd" d="M21.4993 28.8817C21.9129 29.1574 22.0247 29.7162 21.749 30.1298L21.1818 30.9806H21.1895C22.148 30.9806 22.7197 32.0487 22.188 32.8462L20.999 34.6298C20.7232 35.0434 20.1645 35.1551 19.7509 34.8794C19.3373 34.6037 19.2255 34.0449 19.5013 33.6313L20.0684 32.7806H20.0607C19.1022 32.7806 18.5306 31.7124 19.0622 30.9149L20.2513 29.1313C20.527 28.7178 21.0858 28.606 21.4993 28.8817Z" fill="#DFC60A"/>
<path fill-rule="evenodd" clip-rule="evenodd" d="M14.6559 29.1844C15.1952 29.4929 15.3823 30.1802 15.0738 30.7195L13.4084 33.6309C13.0999 34.1703 12.4126 34.3574 11.8733 34.0489C11.334 33.7404 11.1468 33.0531 11.4553 32.5137L13.1208 29.6023C13.4293 29.063 14.1166 28.8759 14.6559 29.1844Z" fill="#55C4E4"/>
</svg>
