<svg width="24" height="24" viewBox="0 0 24 24" fill="none" xmlns="http://www.w3.org/2000/svg">
<path fill-rule="evenodd" clip-rule="evenodd" d="M17.571 17.6939C17.9306 17.8996 18.0553 18.3578 17.8497 18.7173L16.7394 20.6583C16.5337 21.0178 16.0755 21.1425 15.716 20.9369C15.3564 20.7312 15.2317 20.273 15.4374 19.9135L16.5476 17.9725C16.7533 17.613 17.2115 17.4882 17.571 17.6939Z" fill="#55C4E4"/>
<path fill-rule="evenodd" clip-rule="evenodd" d="M12.333 17.4895C12.6087 17.6733 12.6832 18.0458 12.4994 18.3216L12.1213 18.8887H12.1264C12.7654 18.8887 13.1465 19.6009 12.7921 20.1325L11.9994 21.3216C11.8156 21.5973 11.443 21.6718 11.1673 21.488C10.8916 21.3042 10.8171 20.9316 11.0009 20.6559L11.379 20.0887H11.3739C10.7349 20.0887 10.3538 19.3766 10.7082 18.845L11.5009 17.6559C11.6847 17.3802 12.0573 17.3057 12.333 17.4895Z" fill="#DFC60A"/>
<path fill-rule="evenodd" clip-rule="evenodd" d="M7.77099 17.6939C8.13054 17.8996 8.25528 18.3578 8.04961 18.7173L6.93934 20.6583C6.73367 21.0178 6.27547 21.1425 5.91593 20.9369C5.55638 20.7312 5.43164 20.273 5.63731 19.9135L6.74758 17.9725C6.95325 17.613 7.41144 17.4882 7.77099 17.6939Z" fill="#55C4E4"/>
<path fill-rule="evenodd" clip-rule="evenodd" d="M10.2148 4.20019C9.12939 4.74486 8.20167 5.77656 7.78263 7.49046C7.69396 7.85313 7.39704 8.13927 7.0234 8.20847C4.62175 8.65327 3.56845 10.525 3.7757 12.1806C3.87988 13.0129 4.30244 13.8094 5.06814 14.3838C5.83416 14.9585 6.99432 15.3471 8.62337 15.2558C9.75313 15.1925 12.2366 15.2248 14.3658 15.2526C15.392 15.266 16.3359 15.2783 17.0062 15.2783H17.0284L17.0505 15.2796C18.2458 15.3504 19.0211 15.0547 19.4949 14.6626C19.9697 14.2698 20.214 13.7218 20.2464 13.1424C20.3132 11.9491 19.5032 10.7829 18.1159 10.7161C17.4638 10.6847 17.0273 10.0237 17.2472 9.41352C17.7549 8.00441 17.5175 6.81209 16.8873 5.88466C16.241 4.93354 15.1478 4.21726 13.8998 3.8909C12.6541 3.56514 11.3204 3.64537 10.2148 4.20019ZM18.8476 9.30336C19.2542 7.68554 18.927 6.21738 18.128 5.04159C17.2443 3.74127 15.8166 2.84172 14.2793 2.4397C12.7397 2.0371 11.0237 2.11596 9.54199 2.85953C8.11938 3.57343 6.97005 4.87247 6.41317 6.80484C3.46334 7.50821 1.99142 10.0032 2.28732 12.3669C2.44024 13.5886 3.06555 14.7566 4.16796 15.5837C5.27006 16.4105 6.79826 16.8604 8.70729 16.7534C9.7866 16.693 12.1443 16.7239 14.2392 16.7515C15.2832 16.7652 16.2619 16.778 16.9845 16.7783C18.4573 16.8611 19.6258 16.5013 20.4512 15.8183C21.2798 15.1326 21.6907 14.1793 21.7441 13.2263C21.8386 11.5368 20.7919 9.72388 18.8476 9.30336Z" fill="#55C4E4"/>
</svg>
