<svg width="36" height="36" viewBox="0 0 36 36" fill="none" xmlns="http://www.w3.org/2000/svg">
<path fill-rule="evenodd" clip-rule="evenodd" d="M18 1.875C18.6213 1.875 19.125 2.37868 19.125 3V5.60002C19.125 6.22134 18.6213 6.72502 18 6.72502C17.3787 6.72502 16.875 6.22134 16.875 5.60002V3C16.875 2.37868 17.3787 1.875 18 1.875ZM29.2955 6.70452C29.7348 7.14386 29.7348 7.85618 29.2955 8.29552L27.558 10.033C27.1187 10.4724 26.4063 10.4724 25.967 10.033C25.5277 9.59368 25.5277 8.88137 25.967 8.44203L27.7045 6.70452C28.1438 6.26518 28.8562 6.26518 29.2955 6.70452ZM6.7045 6.70453C7.14384 6.26519 7.85616 6.26519 8.2955 6.70453L10.033 8.44203C10.4723 8.88137 10.4723 9.59368 10.033 10.033C9.59365 10.4724 8.88134 10.4724 8.442 10.033L6.7045 8.29552C6.26516 7.85618 6.26516 7.14387 6.7045 6.70453ZM1.875 18C1.875 17.3787 2.37868 16.875 3 16.875H5.5C6.12132 16.875 6.625 17.3787 6.625 18C6.625 18.6213 6.12132 19.125 5.5 19.125H3C2.37868 19.125 1.875 18.6213 1.875 18ZM29.375 18C29.375 17.3787 29.8787 16.875 30.5 16.875H33C33.6213 16.875 34.125 17.3787 34.125 18C34.125 18.6213 33.6213 19.125 33 19.125H30.5C29.8787 19.125 29.375 18.6213 29.375 18ZM10.033 25.967C10.4723 26.4064 10.4723 27.1187 10.033 27.558L8.1705 29.4205C7.73116 29.8599 7.01884 29.8599 6.5795 29.4205C6.14016 28.9812 6.14016 28.2689 6.5795 27.8295L8.442 25.967C8.88134 25.5277 9.59365 25.5277 10.033 25.967ZM25.967 25.967C26.4063 25.5277 27.1187 25.5277 27.558 25.967L29.2955 27.7045C29.7348 28.1438 29.7348 28.8562 29.2955 29.2955C28.8561 29.7348 28.1438 29.7348 27.7045 29.2955L25.967 27.558C25.5277 27.1187 25.5277 26.4064 25.967 25.967ZM18 29.375C18.6213 29.375 19.125 29.8787 19.125 30.5V33C19.125 33.6213 18.6213 34.125 18 34.125C17.3787 34.125 16.875 33.6213 16.875 33V30.5C16.875 29.8787 17.3787 29.375 18 29.375Z" fill="#E96400"/>
<path fill-rule="evenodd" clip-rule="evenodd" d="M9.375 18C9.375 13.2365 13.2365 9.375 18 9.375C22.7635 9.375 26.625 13.2365 26.625 18C26.625 22.7635 22.7635 26.625 18 26.625C13.2365 26.625 9.375 22.7635 9.375 18Z" fill="#E96400"/>
</svg>
