<svg width="24" height="24" viewBox="0 0 24 24" fill="none" xmlns="http://www.w3.org/2000/svg">
<path d="M17.8603 9.75931C20.5879 3.0638 8.94876 -0.586816 7.05371 7.16397C7.03434 7.2432 6.96661 7.30781 6.88639 7.32258C1.31027 8.34907 1.5777 15.8562 8.66495 15.8562L17.7853 9.85105C17.8185 9.82919 17.8453 9.79613 17.8603 9.75931Z" stroke="#55C4E4" stroke-width="1.5"/>
<path d="M11 20.5033L11.1885 20.3872C11.7344 20.0509 12.4059 19.9887 13.0043 20.2191V20.2191C13.4794 20.402 14.0055 20.402 14.4806 20.2191L14.6141 20.1677C15.1368 19.9664 15.7178 19.9801 16.2303 20.2057V20.2057C16.6684 20.3984 17.1587 20.4373 17.6217 20.3161L18.1477 20.1784" stroke="#55C4E4" stroke-width="1.5" stroke-linecap="round"/>
<path d="M13.7849 15.6498L14.1656 15.4778C14.8487 15.1692 15.6188 15.1117 16.3401 15.3154L16.66 15.4057C17.2253 15.5653 17.8238 15.5653 18.3892 15.4057L19.0501 15.2191C19.5536 15.0769 20.0897 15.1024 20.5775 15.2917V15.2917C21.1686 15.5211 21.8262 15.5085 22.4081 15.2564L23 15" stroke="#55C4E4" stroke-width="1.5" stroke-linecap="round"/>
</svg>
