<svg width="300" height="154" viewBox="0 0 300 154" fill="none" xmlns="http://www.w3.org/2000/svg">
<path d="M18.6621 131.198C17.5575 131.023 16.8025 129.985 16.994 128.883C22.3749 97.9212 38.3959 69.7822 62.3245 49.3452C86.767 28.4694 117.856 17 150 17C182.144 17 213.233 28.4694 237.676 49.3452C261.604 69.7822 277.625 97.9213 283.006 128.883C283.198 129.985 282.442 131.023 281.338 131.198V131.198C280.233 131.373 279.197 130.619 279.005 129.517C273.776 99.5074 258.241 72.2356 235.045 52.4249C211.336 32.1753 181.18 21.05 150 21.05C118.82 21.05 88.664 32.1753 64.9548 52.4248C41.7594 72.2355 26.2243 99.5073 20.9945 129.517C20.8025 130.618 19.7668 131.373 18.6621 131.198V131.198Z" fill="#EAEAEA"/>
<path d="M18.6621 131.198C17.5575 131.023 16.8025 129.985 16.994 128.883C22.3749 97.9212 38.3959 69.7822 62.3245 49.3452C86.767 28.4694 117.856 17 150 17C182.144 17 213.233 28.4694 237.676 49.3452C261.604 69.7822 277.625 97.9213 283.006 128.883C283.198 129.985 282.442 131.023 281.338 131.198V131.198C280.233 131.373 279.197 130.619 279.005 129.517C273.776 99.5074 258.241 72.2356 235.045 52.4249C211.336 32.1753 181.18 21.05 150 21.05C118.82 21.05 88.664 32.1753 64.9548 52.4248C41.7594 72.2355 26.2243 99.5073 20.9945 129.517C20.8025 130.618 19.7668 131.373 18.6621 131.198V131.198Z" fill="#EAEAEA"/>
<rect x="237" y="51" width="36" height="36" rx="18" fill="white"/>
<g clip-path="url(#clip0_794_5303)">
<path fill-rule="evenodd" clip-rule="evenodd" d="M257.671 59.0323C258.055 59.1353 258.283 59.5301 258.18 59.9142L257.75 61.5215C257.647 61.9056 257.252 62.1335 256.868 62.0306C256.484 61.9277 256.256 61.5329 256.359 61.1488L256.789 59.5415C256.892 59.1574 257.287 58.9294 257.671 59.0323ZM263.854 63.889C264.053 64.2333 263.935 64.6737 263.591 64.8725L262.229 65.6588C261.884 65.8576 261.444 65.7396 261.245 65.3953C261.046 65.0509 261.164 64.6105 261.509 64.4117L262.871 63.6254C263.215 63.4266 263.655 63.5446 263.854 63.889ZM249.888 60.1469C250.233 59.9481 250.673 60.0661 250.872 60.4104L251.658 61.7723C251.857 62.1167 251.739 62.5571 251.395 62.7559C251.05 62.9547 250.61 62.8367 250.411 62.4923L249.625 61.1304C249.426 60.7861 249.544 60.3457 249.888 60.1469ZM245.032 66.3297C245.135 65.9456 245.53 65.7177 245.914 65.8206L247.459 66.2347C247.843 66.3376 248.071 66.7324 247.968 67.1165C247.865 67.5006 247.471 67.7285 247.086 67.6256L245.541 67.2115C245.157 67.1086 244.929 66.7138 245.032 66.3297ZM262.032 70.8849C262.135 70.5008 262.53 70.2729 262.914 70.3758L264.459 70.7899C264.844 70.8928 265.071 71.2876 264.969 71.6717C264.866 72.0558 264.471 72.2838 264.087 72.1808L262.541 71.7667C262.157 71.6638 261.929 71.269 262.032 70.8849ZM248.755 72.6062C248.954 72.9505 248.836 73.3909 248.492 73.5897L247.032 74.4326C246.688 74.6314 246.247 74.5134 246.048 74.169C245.85 73.8247 245.968 73.3843 246.312 73.1855L247.772 72.3426C248.116 72.1438 248.557 72.2618 248.755 72.6062ZM258.606 75.2455C258.95 75.0467 259.39 75.1647 259.589 75.5091L260.376 76.871C260.574 77.2154 260.456 77.6557 260.112 77.8545C259.768 78.0533 259.327 77.9353 259.128 77.591L258.342 76.2291C258.143 75.8847 258.261 75.4444 258.606 75.2455ZM253.116 76.0327C253.5 76.1356 253.728 76.5304 253.625 76.9145L253.211 78.4599C253.108 78.844 252.713 79.072 252.329 78.9691C251.945 78.8661 251.717 78.4713 251.82 78.0872L252.234 76.5418C252.337 76.1577 252.732 75.9297 253.116 76.0327Z" fill="#E96400"/>
<path fill-rule="evenodd" clip-rule="evenodd" d="M256.056 65.0598C253.88 64.4766 251.642 65.7683 251.059 67.9448C250.476 70.1214 251.768 72.3586 253.944 72.9418C256.121 73.525 258.358 72.2334 258.941 70.0568C259.524 67.8803 258.233 65.6431 256.056 65.0598ZM249.668 67.5721C250.457 64.6274 253.484 62.8799 256.429 63.6689C259.374 64.458 261.121 67.4848 260.332 70.4295C259.543 73.3742 256.516 75.1218 253.571 74.3327C250.627 73.5437 248.879 70.5169 249.668 67.5721Z" fill="#E96400"/>
</g>
<path d="M18.6621 131.198C17.5575 131.023 16.8024 129.985 16.9939 128.884C21.1371 105.044 31.6145 82.7427 47.3452 64.3245C63.5145 45.3927 84.6043 31.301 108.283 23.6074C131.961 15.9138 157.306 14.918 181.515 20.7301C205.068 26.3845 226.652 38.2682 244.017 55.1194C244.819 55.8983 244.818 57.1817 244.028 57.9725V57.9725C243.237 58.7633 241.956 58.762 241.153 57.9835C224.317 41.6603 203.396 30.1482 180.57 24.6682C157.087 19.0304 132.502 19.9964 109.534 27.4591C86.5661 34.9219 66.1091 48.5909 50.4249 66.9548C35.1793 84.8051 25.0205 106.415 20.9945 129.517C20.8025 130.619 19.7668 131.373 18.6621 131.198V131.198Z" fill="url(#paint0_linear_794_5303)"/>
<defs>
<linearGradient id="paint0_linear_794_5303" x1="239.5" y1="38.5" x2="15" y2="144" gradientUnits="userSpaceOnUse">
<stop stop-color="#E96400"/>
<stop offset="1" stop-color="#833800" stop-opacity="0"/>
</linearGradient>
<clipPath id="clip0_794_5303">
<rect x="243.48" y="57.4805" width="23.04" height="23.04" rx="11.52" fill="white"/>
</clipPath>
</defs>
</svg>
