<svg width="24" height="24" viewBox="0 0 24 24" fill="none" xmlns="http://www.w3.org/2000/svg">
<path d="M15 16.951C16.3642 16.9678 17.1148 16.9883 18.0061 16.9883C23.3632 17.3034 22.9042 11.1493 19.1526 10.9691C19.0062 10.9621 18.9037 10.8072 18.9536 10.6694C21.307 4.17509 9.92684 0.729597 8.05419 8.33208C8.03469 8.41126 7.96852 8.47544 7.88832 8.49017C4.97315 9.02553 3.65746 11.4238 4.07599 13.5353" stroke="#55C4E4" stroke-width="1.5" stroke-linecap="round"/>
<path d="M12.6301 15.2278C14.1501 10.8034 6.23232 8.4873 4.88347 13.6617C4.86293 13.7405 4.7955 13.804 4.71548 13.8191C0.804218 14.5576 1.01663 19.9505 6.01475 19.6788C7.18293 19.6152 10.4284 19.695 11.9256 19.695C14.4625 19.8408 15.1589 17.9867 14.5484 16.7031C14.2562 16.0886 13.6643 15.6049 12.8315 15.534C12.6849 15.5216 12.5823 15.367 12.6301 15.2278Z" stroke="#55C4E4" stroke-width="1.5"/>
</svg>
