<svg width="24" height="24" viewBox="0 0 24 24" fill="none" xmlns="http://www.w3.org/2000/svg">
<path d="M12 22C17.5228 22 22 17.5228 22 12C22 6.47715 17.5228 2 12 2C6.47715 2 2 6.47715 2 12C2 17.5228 6.47715 22 12 22Z" stroke="#55C4E4" stroke-width="2" stroke-linecap="round" stroke-linejoin="round"/>
<path fill-rule="evenodd" clip-rule="evenodd" d="M7.55004 13.4006C7.68511 13.2993 7.84323 13.2504 8 13.2505C8.22698 13.2507 8.27344 13.2499 8.71484 13.25L8.71586 13.2513C8.71586 13.2513 10.1164 13.2503 8.71484 13.25L7.59184 14.6806L7.40004 14.4506C7.15152 14.1192 7.21867 13.6491 7.55004 13.4006ZM15 13.2506C15.3359 13.2506 15.773 13.2509 16 13.2506C16.1568 13.2505 16.315 13.2993 16.45 13.4006C16.7814 13.6491 16.8486 14.1192 16.6 14.4506L16 14.0006C16.6 14.4506 16.6 14.4506 16.6 14.4506L16.5993 14.4516L16.5984 14.4528L16.5961 14.4558L16.5899 14.4639L16.5706 14.4886C16.5548 14.5086 16.5329 14.5356 16.5052 14.5687C16.4497 14.6347 16.3704 14.7253 16.2681 14.832C16.0641 15.0448 15.7653 15.326 15.3787 15.6071C14.6083 16.1674 13.4567 16.7506 12 16.7506C10.5434 16.7506 9.39174 16.1674 8.62142 15.6071C8.23481 15.326 7.93597 15.0448 7.73199 14.832C7.62969 14.7253 7.55036 14.6347 7.4949 14.5687C7.46715 14.5356 7.4453 14.5086 7.42947 14.4886L7.41022 14.4639L7.40004 14.4506L7.40174 14.4528L7.40082 14.4516C7.40082 14.4516 7.47508 14.5449 7.59184 14.6806L8.71484 13.25" fill="#55C4E4"/>
<path d="M9 9H9.01" stroke="#55C4E4" stroke-width="2" stroke-linecap="round" stroke-linejoin="round"/>
<path d="M15 9H15.01" stroke="#55C4E4" stroke-width="2" stroke-linecap="round" stroke-linejoin="round"/>
</svg>
