<svg width="36" height="36" viewBox="0 0 36 36" fill="none" xmlns="http://www.w3.org/2000/svg">
<path fill-rule="evenodd" clip-rule="evenodd" d="M30.3625 11.8436C31.4773 13.39 31.9628 15.3283 31.4636 17.4612C33.9178 18.0485 35.3558 20.1988 35.3991 22.372C35.4237 23.6054 35.0025 24.8663 34.0649 25.8512C33.124 26.8398 31.7432 27.4684 29.9878 27.5965L29.9452 27.5996L27.5981 27.5954C27.3714 27.0579 26.8301 26.5035 26.0077 26.5035H25.4924V23.1445C25.4924 22.4016 25.0834 21.7358 24.4258 21.4447C23.7303 21.1369 22.8978 21.3235 22.3944 21.997L22.3932 21.9986L18.3765 27.3519L18.3716 27.3587C18.3187 27.4302 18.272 27.5037 18.2312 27.5786L15.9258 27.5744L15.894 27.5726C11.241 27.3056 8.58223 24.4543 8.40905 21.1782C8.24594 18.093 10.331 15.0675 14.1498 14.1631C14.9431 11.6191 16.5418 9.91227 18.4943 8.9747C20.5403 7.99222 22.9002 7.88675 25.0175 8.41097C27.13 8.93398 29.1146 10.1127 30.3625 11.8436Z" fill="#55C4E4"/>
<path fill-rule="evenodd" clip-rule="evenodd" d="M23.4776 23.6992L19.8003 28.2939H21.1497C21.6554 28.2939 22.0654 28.7039 22.0654 29.2096V33.0979L25.7427 28.5032H24.3933C23.8875 28.5032 23.4776 28.0932 23.4776 27.5875V23.6992Z" fill="#DFC60A"/>
<path fill-rule="evenodd" clip-rule="evenodd" d="M10.098 1.47029C9.40859 2.12387 9.77609 3.37467 10.043 3.86207L10.0438 3.86355C10.3859 4.48549 10.592 5.17489 10.625 5.91444L10.6252 5.91793C10.7581 8.65754 8.35974 11.1524 5.26235 11.4322C4.80337 11.474 4.36271 11.4684 3.93347 11.422L3.93695 11.4224C3.58767 11.3835 3.21672 11.3873 2.8666 11.481C2.50778 11.5769 2.11379 11.7869 1.87749 12.1808C1.64212 12.5732 1.66177 12.9839 1.76435 13.3047C1.86466 13.6183 2.0573 13.9005 2.27794 14.144C3.29116 15.2717 4.94664 16.647 6.49323 17.1359C6.90636 17.2665 7.36783 17.155 7.65944 16.8542L7.89772 16.6083C8.90322 15.5709 9.92427 14.3186 11.3918 13.9705L12.365 13.7397C12.7176 13.656 13.0018 13.4164 13.1203 13.1028L13.474 12.1672C13.9895 10.8037 14.9619 9.61794 16.2536 8.77781L17.4552 7.99622C17.8243 7.75616 17.9916 7.33351 17.8741 6.93802C17.1227 4.4093 14.9268 2.0397 12.2514 1.17696C11.6936 0.996359 10.7528 0.849528 10.098 1.47029Z" fill="#969CA8"/>
</svg>
