<svg width="36" height="36" viewBox="0 0 36 36" fill="none" xmlns="http://www.w3.org/2000/svg">
<path d="M6.49949 23.4513C5.73446 24.1271 5.19318 25.0197 4.94756 26.0104C4.70195 27.0012 4.76364 28.0433 5.12443 28.9982C5.48521 29.9531 6.12802 30.7756 6.96744 31.3564C7.80686 31.9373 8.80315 32.2489 9.82393 32.25C10.8447 32.2511 11.8416 31.9415 12.6823 31.3624C13.5229 30.7834 14.1675 29.9622 14.5303 29.0081C14.8931 28.054 14.9569 27.012 14.7134 26.0207C14.4699 25.0294 13.9305 24.1357 13.1669 23.4583M13.1822 23.0294V7.10294C13.1822 5.25116 11.681 3.75 9.82925 3.75C7.97747 3.75 6.47631 5.25116 6.47631 7.10294V23.0294" stroke="black" stroke-width="2.25" stroke-linecap="round"/>
<path d="M9.82471 27.6016H9.83971" stroke="black" stroke-width="4.2" stroke-linecap="round"/>
<path d="M9.86987 27.75V23.25" stroke="black" stroke-width="2.25" stroke-linecap="round"/>
<path d="M18.4497 4.7475L21.0087 7.74L23.5677 4.7475M27.7122 7.04174L26.3323 10.6976L30.2712 11.361M27.7624 20.5381L26.3825 16.8822L30.3214 16.2188M18.4497 22.7025L21.0087 19.71L23.5677 22.7025M21.0087 3.75L21.0087 23.7M29.8732 8.73753L21.0087 13.725M29.946 18.7834L21.0814 13.7959" stroke="#55C4E4" stroke-width="2.25" stroke-linecap="round"/>
</svg>
