<svg width="300" height="154" viewBox="0 0 300 154" fill="none" xmlns="http://www.w3.org/2000/svg">
<path d="M18.6621 131.198C17.5575 131.023 16.8025 129.985 16.994 128.883C22.3749 97.9212 38.3959 69.7822 62.3245 49.3452C86.767 28.4694 117.856 17 150 17C182.144 17 213.233 28.4694 237.676 49.3452C261.604 69.7822 277.625 97.9213 283.006 128.883C283.198 129.985 282.442 131.023 281.338 131.198V131.198C280.233 131.373 279.197 130.619 279.005 129.517C273.776 99.5074 258.241 72.2356 235.045 52.4249C211.336 32.1753 181.18 21.05 150 21.05C118.82 21.05 88.664 32.1753 64.9548 52.4248C41.7594 72.2355 26.2243 99.5073 20.9945 129.517C20.8025 130.618 19.7668 131.373 18.6621 131.198V131.198Z" fill="#EAEAEA"/>
<path d="M18.6621 131.198C17.5575 131.023 16.8025 129.985 16.994 128.883C22.3749 97.9212 38.3959 69.7822 62.3245 49.3452C86.767 28.4694 117.856 17 150 17C182.144 17 213.233 28.4694 237.676 49.3452C261.604 69.7822 277.625 97.9213 283.006 128.883C283.198 129.985 282.442 131.023 281.338 131.198V131.198C280.233 131.373 279.197 130.619 279.005 129.517C273.776 99.5074 258.241 72.2356 235.045 52.4249C211.336 32.1753 181.18 21.05 150 21.05C118.82 21.05 88.664 32.1753 64.9548 52.4248C41.7594 72.2355 26.2243 99.5073 20.9945 129.517C20.8025 130.618 19.7668 131.373 18.6621 131.198V131.198Z" fill="#EAEAEA"/>
<rect x="257" y="86" width="36" height="36" rx="18" fill="white"/>
<g clip-path="url(#clip0_794_5306)">
<path fill-rule="evenodd" clip-rule="evenodd" d="M277.671 94.0323C278.056 94.1353 278.284 94.5301 278.181 94.9142L277.75 96.5215C277.647 96.9056 277.252 97.1335 276.868 97.0306C276.484 96.9277 276.256 96.5329 276.359 96.1488L276.79 94.5415C276.893 94.1574 277.287 93.9294 277.671 94.0323ZM283.854 98.889C284.053 99.2333 283.935 99.6737 283.591 99.8725L282.229 100.659C281.884 100.858 281.444 100.74 281.245 100.395C281.046 100.051 281.164 99.6105 281.509 99.4117L282.871 98.6254C283.215 98.4266 283.655 98.5446 283.854 98.889ZM269.889 95.1469C270.233 94.9481 270.673 95.0661 270.872 95.4104L271.659 96.7723C271.857 97.1167 271.739 97.5571 271.395 97.7559C271.051 97.9547 270.61 97.8367 270.411 97.4923L269.625 96.1304C269.426 95.7861 269.544 95.3457 269.889 95.1469ZM265.032 101.33C265.135 100.946 265.53 100.718 265.914 100.821L267.459 101.235C267.844 101.338 268.071 101.732 267.969 102.117C267.866 102.501 267.471 102.729 267.087 102.626L265.541 102.212C265.157 102.109 264.929 101.714 265.032 101.33ZM282.032 105.885C282.135 105.501 282.53 105.273 282.914 105.376L284.46 105.79C284.844 105.893 285.072 106.288 284.969 106.672C284.866 107.056 284.471 107.284 284.087 107.181L282.542 106.767C282.157 106.664 281.929 106.269 282.032 105.885ZM268.756 107.606C268.954 107.951 268.836 108.391 268.492 108.59L267.032 109.433C266.688 109.631 266.247 109.513 266.049 109.169C265.85 108.825 265.968 108.384 266.312 108.185L267.772 107.343C268.116 107.144 268.557 107.262 268.756 107.606ZM278.606 110.246C278.95 110.047 279.391 110.165 279.589 110.509L280.376 111.871C280.575 112.215 280.457 112.656 280.112 112.855C279.768 113.053 279.327 112.935 279.129 112.591L278.342 111.229C278.144 110.885 278.262 110.444 278.606 110.246ZM273.116 111.033C273.5 111.136 273.728 111.53 273.625 111.914L273.211 113.46C273.108 113.844 272.714 114.072 272.329 113.969C271.945 113.866 271.717 113.471 271.82 113.087L272.234 111.542C272.337 111.158 272.732 110.93 273.116 111.033Z" fill="#E96400"/>
<path fill-rule="evenodd" clip-rule="evenodd" d="M276.056 100.06C273.88 99.4766 271.643 100.768 271.059 102.945C270.476 105.121 271.768 107.359 273.944 107.942C276.121 108.525 278.358 107.233 278.941 105.057C279.525 102.88 278.233 100.643 276.056 100.06ZM269.668 102.572C270.458 99.6274 273.484 97.8799 276.429 98.6689C279.374 99.458 281.121 102.485 280.332 105.43C279.543 108.374 276.516 110.122 273.572 109.333C270.627 108.544 268.879 105.517 269.668 102.572Z" fill="#E96400"/>
</g>
<path d="M18.6621 131.198C17.5575 131.023 16.8024 129.985 16.9939 128.883C21.7542 101.493 34.8592 76.2219 54.5406 56.5406C74.6997 36.3815 100.723 23.1219 128.881 18.6621C157.04 14.2023 185.887 18.7712 211.289 31.7141C236.089 44.3504 256.362 64.335 269.353 88.9136C269.876 89.9024 269.478 91.1229 268.482 91.6307V91.6307C267.485 92.1384 266.267 91.7411 265.744 90.7526C253.141 66.9359 233.488 47.5707 209.45 35.3227C184.81 22.7681 156.828 18.3362 129.515 22.6622C102.201 26.9882 76.9587 39.8501 57.4044 59.4043C38.3278 78.4809 25.6206 102.972 20.9945 129.517C20.8025 130.619 19.7668 131.373 18.6621 131.198V131.198Z" fill="url(#paint0_linear_794_5306)"/>
<defs>
<linearGradient id="paint0_linear_794_5306" x1="276" y1="84" x2="7.49999" y2="143.5" gradientUnits="userSpaceOnUse">
<stop stop-color="#E96400"/>
<stop offset="1" stop-color="#E96400" stop-opacity="0"/>
</linearGradient>
<clipPath id="clip0_794_5306">
<rect x="263.48" y="92.4805" width="23.04" height="23.04" rx="11.52" fill="white"/>
</clipPath>
</defs>
</svg>
