<svg width="36" height="36" viewBox="0 0 36 36" fill="none" xmlns="http://www.w3.org/2000/svg">
<path fill-rule="evenodd" clip-rule="evenodd" d="M30.3354 15.7116C31.5071 17.3429 32.003 19.3871 31.4408 21.638C34.2276 22.2462 35.7782 24.756 35.6314 27.1678C35.5488 28.5267 34.9312 29.8711 33.7135 30.8289C32.5058 31.7789 30.8073 32.2734 28.6739 32.159C27.6231 32.1586 26.1994 32.1408 24.6805 32.1218C21.632 32.0836 18.1998 32.0407 16.6288 32.1246C13.8579 32.2725 11.6357 31.6515 10.0268 30.5018C8.41412 29.3494 7.48459 27.7098 7.25635 25.9775C6.813 22.6126 9.01124 19.1441 13.2768 18.1649C14.1022 15.4758 15.7864 13.6768 17.8477 12.6909C19.9995 11.6616 22.4868 11.5515 24.7197 12.105C26.9481 12.6574 29.0333 13.8987 30.3354 15.7116Z" fill="#55C4E4"/>
<path fill-rule="evenodd" clip-rule="evenodd" d="M7.01327 4.37975C7.59069 4.15033 8.24475 4.43243 8.47417 5.00985L9.12349 6.64405C9.35291 7.22146 9.07081 7.87553 8.49339 8.10495C7.91598 8.33437 7.26191 8.05227 7.03249 7.47486L6.38318 5.84065C6.15376 5.26324 6.43586 4.60917 7.01327 4.37975ZM15.5384 4.57798C16.1102 4.82084 16.377 5.48133 16.1341 6.05322L15.4848 7.58219C15.2419 8.15408 14.5814 8.4208 14.0095 8.17793C13.4377 7.93507 13.1709 7.27458 13.4138 6.70269L14.0631 5.17372C14.306 4.60184 14.9665 4.33511 15.5384 4.57798ZM8.88082 9.09604C11.232 8.14775 13.8157 8.76263 15.505 10.4407L16.4973 11.4265L15.2395 12.2374C13.8782 13.115 12.902 14.4779 12.5091 16.0493L12.3287 16.7709L11.5065 17.045C10.3199 17.4405 9.22444 18.0695 8.28466 18.8949L7.27094 19.7852L6.52932 18.9288C6.08436 18.4151 5.71745 17.8194 5.45333 17.1546C4.19268 13.9818 5.71842 10.3715 8.88082 9.09604ZM0.973556 10.4478C1.21989 9.87744 1.88198 9.61473 2.45239 9.86106L3.96953 10.5163C4.53993 10.7626 4.80264 11.4247 4.5563 11.9951C4.30997 12.5655 3.64788 12.8282 3.07747 12.5819L1.56034 11.9267C0.989934 11.6803 0.727223 11.0182 0.973556 10.4478ZM4.42502 17.5756C4.65742 18.1518 4.3787 18.8073 3.80248 19.0397L2.24388 19.6683C1.66766 19.9007 1.01215 19.622 0.779745 19.0458C0.547343 18.4696 0.826062 17.8141 1.40228 17.5817L2.96088 16.953C3.5371 16.7206 4.19262 16.9994 4.42502 17.5756Z" fill="#E96400"/>
</svg>
